<?xml version="1.0" encoding="utf-8"?>
<!-- Generator: Adobe Illustrator 25.0.1, SVG Export Plug-In . SVG Version: 6.00 Build 0)  -->
<svg version="1.1" id="Layer_1" xmlns="http://www.w3.org/2000/svg" xmlns:xlink="http://www.w3.org/1999/xlink" x="0px" y="0px"
	 viewBox="0 0 226.8 226.8" style="enable-background:new 0 0 226.8 226.8;" xml:space="preserve">
<style type="text/css">
	.st0{fill:url(#SVGID_1_);}
	.st1{opacity:0.51;fill:#FAB513;}
	.st2{fill:none;stroke:#FFFFFF;stroke-width:1.9843;stroke-miterlimit:10;}
	.st3{fill:#FFFFFF;}
</style>
<linearGradient id="SVGID_1_" gradientUnits="userSpaceOnUse" x1="-5.6065" y1="173.7692" x2="248.2603" y2="44.3774">
	<stop  offset="0" style="stop-color:#EF7841"/>
	<stop  offset="1" style="stop-color:#F0A10B"/>
</linearGradient>
<path class="st0" d="M27.4,215.8h172.7c10.4,0,18.9-8.5,18.9-18.9v-168c0-10.4-8.5-18.9-18.9-18.9H27.4C17,10,8.5,18.5,8.5,28.9v168
	C8.5,207.4,17,215.8,27.4,215.8z"/>
<path class="st1" d="M25.9,138.2v-7.7c0-6.2,5-11.2,11.2-11.2h151.7c6.2,0,11.2,5,11.2,11.2v7.7c0,6.2-5,11.2-11.2,11.2H37.1
	C30.9,149.4,25.9,144.4,25.9,138.2z"/>
<path class="st1" d="M25.9,159.5v-50.3c0-6.2,5-11.2,11.2-11.2h151.7c6.2,0,11.2,5,11.2,11.2v50.3c0,6.2-5,11.2-11.2,11.2H37.1
	C30.9,170.7,25.9,165.6,25.9,159.5z"/>
<path class="st2" d="M43.6,170.7H43c-9.5,0-17.1-7.7-17.1-17.1v-38.4c0-9.5,7.7-17.1,17.1-17.1h0.5c9.5,0,17.1,7.7,17.1,17.1v38.4
	C60.7,163,53,170.7,43.6,170.7z"/>
<path class="st2" d="M90,170.7h-0.5c-9.5,0-17.1-7.7-17.1-17.1v-38.4c0-9.5,7.7-17.1,17.1-17.1H90c9.5,0,17.1,7.7,17.1,17.1v38.4
	C107.2,163,99.5,170.7,90,170.7z"/>
<path class="st2" d="M136.5,170.7h-0.5c-9.5,0-17.1-7.7-17.1-17.1v-38.4c0-9.5,7.7-17.1,17.1-17.1h0.5c9.5,0,17.1,7.7,17.1,17.1
	v38.4C153.6,163,145.9,170.7,136.5,170.7z"/>
<path class="st2" d="M182.9,170.7h-0.5c-9.5,0-17.1-7.7-17.1-17.1v-38.4c0-9.5,7.7-17.1,17.1-17.1h0.5c9.5,0,17.1,7.7,17.1,17.1
	v38.4C200.1,163,192.4,170.7,182.9,170.7z"/>
<g>
	<path class="st3" d="M186.2,121v8.8l8.1-2.8l2.5,6.4l-8.1,3.4l5.1,7.2l-5.4,4l-5.5-7.2l-5.4,7.2l-5.7-4l5.1-7.5l-8.1-3.1l2.3-6.4
		l8.3,2.8V121H186.2z"/>
</g>
<g>
	<path class="st3" d="M139.7,121v8.8l8.1-2.8l2.5,6.4l-8.1,3.4l5.1,7.2l-5.4,4l-5.5-7.2l-5.4,7.2l-5.7-4l5.1-7.5l-8.1-3.1l2.3-6.4
		l8.3,2.8V121H139.7z"/>
</g>
<g>
	<path class="st3" d="M93.3,121v8.8l8.1-2.8l2.5,6.4l-8.1,3.4l5.1,7.2l-5.4,4l-5.5-7.2l-5.4,7.2l-5.7-4l5.1-7.5l-8.1-3.1l2.3-6.4
		l8.3,2.8V121H93.3z"/>
</g>
<g>
	<path class="st3" d="M46.8,121v8.8l8.1-2.8l2.5,6.4l-8.1,3.4l5.1,7.2l-5.4,4l-5.5-7.2l-5.4,7.2l-5.7-4l5.1-7.5l-8.1-3.1l2.3-6.4
		l8.3,2.8V121H46.8z"/>
</g>
<g>
	<path class="st3" d="M49.4,43.2c0.4-0.2,0.8-0.4,1.4-0.6c0.6-0.2,1.2-0.4,1.8-0.6s1.3-0.4,2-0.5c0.7-0.1,1.4-0.2,2-0.2
		c1,0,1.9,0.1,2.9,0.4c0.9,0.2,1.8,0.7,2.5,1.3s1.3,1.4,1.8,2.5c0.4,1,0.7,2.3,0.7,3.9V54h3.2v4.4H54.2c-0.2,0-0.4,0.1-0.5,0.3
		c-0.1,0.2-0.2,0.4-0.2,0.6c0,0.2,0.1,0.4,0.2,0.6c0.1,0.2,0.3,0.3,0.5,0.3h5.8v4.4h-5.8c-0.8,0-1.6-0.2-2.2-0.5
		c-0.6-0.3-1.1-0.7-1.6-1.2s-0.7-1.1-0.9-1.7c-0.2-0.6-0.3-1.3-0.3-1.9c0-0.7,0.1-1.3,0.3-1.9s0.5-1.2,0.9-1.7
		c0.4-0.5,0.9-0.9,1.6-1.2c0.6-0.3,1.4-0.4,2.2-0.4H60v-4.7c0-0.7-0.1-1.3-0.3-1.8c-0.2-0.5-0.4-0.8-0.8-1.1s-0.7-0.5-1.1-0.6
		c-0.4-0.1-0.8-0.2-1.2-0.2c-0.4,0-0.9,0.1-1.4,0.2c-0.5,0.1-1,0.2-1.5,0.4c-0.5,0.1-1,0.3-1.4,0.5c-0.4,0.2-0.8,0.3-1.1,0.5
		L49.4,43.2z"/>
	<path class="st3" d="M75.8,41.3v11.4c0,0.8-0.1,1.5-0.4,2.2c-0.3,0.7-0.7,1.3-1.2,1.8s-1.1,0.9-1.8,1.2c-0.7,0.3-1.4,0.4-2.2,0.4
		h-4V54h4c0.4,0,0.7-0.1,0.9-0.4c0.3-0.3,0.4-0.6,0.4-0.9V41.3H75.8z M71.4,62.2c0-0.3,0.1-0.6,0.2-0.9c0.1-0.3,0.3-0.5,0.5-0.7
		s0.4-0.4,0.7-0.5c0.3-0.1,0.6-0.2,0.9-0.2s0.6,0.1,0.9,0.2s0.5,0.3,0.7,0.5s0.4,0.4,0.5,0.7c0.1,0.3,0.2,0.5,0.2,0.9
		s-0.1,0.6-0.2,0.9s-0.3,0.5-0.5,0.7s-0.4,0.4-0.7,0.5s-0.6,0.2-0.9,0.2s-0.6-0.1-0.9-0.2c-0.3-0.1-0.5-0.3-0.7-0.5
		s-0.4-0.4-0.5-0.7S71.4,62.5,71.4,62.2z"/>
	<path class="st3" d="M86.9,41.3V56c0,0,0,0.2,0,0.5c0,0.3-0.1,0.7-0.2,1.2s-0.3,1-0.6,1.6c-0.3,0.6-0.7,1.2-1.2,1.9
		c-0.5,0.6-1.2,1.3-2,1.9c-0.8,0.6-1.8,1.2-3.1,1.7l-1.7-4c0.6-0.2,1.1-0.5,1.5-0.7c0.4-0.3,0.8-0.5,1.1-0.8s0.6-0.5,0.8-0.8
		c0.2-0.3,0.4-0.5,0.5-0.7c0.3-0.5,0.5-1.1,0.5-1.6V41.3H86.9z"/>
	<path class="st3" d="M94.9,35.2v23.2h-4.4V35.2H94.9z"/>
	<path class="st3" d="M100.8,60.1h5.5c0.7,0,1.2-0.1,1.8-0.4c0.5-0.3,0.9-0.7,1.2-1.3h-5.1c-0.8,0-1.5-0.1-2.2-0.4
		c-0.7-0.3-1.3-0.7-1.8-1.2s-0.9-1.1-1.2-1.8c-0.3-0.7-0.4-1.4-0.4-2.2v-3.5c0-1.1,0.2-2.1,0.6-3.1s1-1.8,1.7-2.5
		c0.7-0.7,1.5-1.3,2.5-1.7c0.9-0.4,1.9-0.6,3-0.6c1.1,0,2.1,0.2,3,0.6c0.9,0.4,1.8,1,2.5,1.7c0.7,0.7,1.3,1.6,1.7,2.5
		c0.4,1,0.6,1.9,0.6,3v7.5c0,1.1-0.2,2.1-0.6,3c-0.4,0.9-1,1.8-1.7,2.5c-0.7,0.7-1.5,1.3-2.5,1.7c-0.9,0.4-1.9,0.6-3,0.6h-5.5V60.1z
		 M109.6,54v-4.8c0-0.5-0.1-0.9-0.3-1.3c-0.2-0.4-0.4-0.8-0.7-1.1c-0.3-0.3-0.7-0.6-1.1-0.8c-0.4-0.2-0.9-0.3-1.3-0.3
		c-0.5,0-0.9,0.1-1.3,0.3c-0.4,0.2-0.8,0.4-1.1,0.8c-0.3,0.3-0.5,0.7-0.7,1.1c-0.2,0.4-0.3,0.9-0.3,1.4v3.5c0,0.4,0.1,0.7,0.4,0.9
		c0.2,0.2,0.5,0.4,0.9,0.4H109.6z"/>
	<path class="st3" d="M140.7,41.3V54h3.2v4.4h-3.4c-0.2,1-0.6,1.9-1.1,2.7s-1.2,1.4-2,1.9c-0.8,0.5-1.6,0.9-2.6,1.1
		c-0.9,0.3-1.9,0.4-2.8,0.4c-1.1,0-2.2-0.2-3.2-0.5c-1-0.3-2-0.8-2.8-1.5c-0.8-0.7-1.5-1.5-2-2.5c-0.5-1-0.7-2.1-0.7-3.4V44.2h4.4
		v12.4c0,0.6,0.1,1.1,0.4,1.5s0.6,0.8,1,1.1c0.4,0.3,0.9,0.5,1.4,0.7c0.5,0.1,1.1,0.2,1.6,0.2c0.5,0,1.1-0.1,1.6-0.2
		c0.5-0.1,1-0.4,1.4-0.7c0.4-0.3,0.7-0.7,1-1.1c0.3-0.4,0.4-0.9,0.4-1.5V41.3H140.7z M129.7,37.4c0-0.3,0.1-0.6,0.2-0.9
		c0.1-0.3,0.3-0.5,0.5-0.7s0.4-0.4,0.7-0.5c0.3-0.1,0.6-0.2,0.9-0.2s0.6,0.1,0.9,0.2s0.5,0.3,0.7,0.5s0.4,0.4,0.5,0.7
		c0.1,0.3,0.2,0.6,0.2,0.9c0,0.3-0.1,0.6-0.2,0.9c-0.1,0.3-0.3,0.5-0.5,0.7s-0.4,0.4-0.7,0.5s-0.6,0.2-0.9,0.2s-0.6-0.1-0.9-0.2
		c-0.3-0.1-0.5-0.3-0.7-0.5s-0.4-0.4-0.5-0.7S129.7,37.7,129.7,37.4z"/>
	<path class="st3" d="M142.4,54h3.3c0-0.2-0.1-0.4-0.1-0.7c0-0.2,0-0.4,0-0.7v-3.5c0-1.1,0.2-2.1,0.6-3s0.9-1.8,1.6-2.5
		c0.7-0.7,1.5-1.3,2.4-1.7c0.9-0.4,1.9-0.6,3-0.6c1.1,0,2,0.2,3,0.6c0.9,0.4,1.8,1,2.5,1.7c0.7,0.7,1.2,1.6,1.6,2.5
		c0.4,0.9,0.6,1.9,0.6,3v3.5c0,0.2,0,0.5,0,0.7c0,0.2,0,0.4-0.1,0.6h3.3v4.4h-5.6c-0.7,0.7-1.5,1.2-2.4,1.6
		c-0.9,0.4-1.9,0.6-2.9,0.6c-2.1,0-3.9-0.7-5.3-2.2h-5.6V54z M153.3,45.7c-0.5,0-0.9,0.1-1.3,0.3c-0.4,0.2-0.8,0.4-1.1,0.7
		c-0.3,0.3-0.5,0.7-0.7,1.1c-0.2,0.4-0.3,0.9-0.3,1.3v3.5c0,0.5,0.1,0.9,0.3,1.4c0.2,0.4,0.4,0.8,0.7,1.1c0.3,0.3,0.7,0.6,1.1,0.7
		c0.4,0.2,0.8,0.3,1.3,0.3c0.5,0,0.9-0.1,1.3-0.3c0.4-0.2,0.8-0.4,1.1-0.8s0.5-0.7,0.7-1.1c0.2-0.4,0.3-0.9,0.3-1.3v-3.5
		c0-0.5-0.1-0.9-0.3-1.3c-0.2-0.4-0.4-0.8-0.7-1.1s-0.7-0.6-1.1-0.8C154.1,45.8,153.7,45.7,153.3,45.7z"/>
	<path class="st3" d="M165.4,43.2c0.4-0.2,0.8-0.4,1.4-0.6c0.6-0.2,1.2-0.4,1.8-0.6c0.7-0.2,1.3-0.4,2-0.5c0.7-0.1,1.4-0.2,2-0.2
		c1,0,1.9,0.1,2.8,0.4s1.8,0.7,2.5,1.3c0.7,0.6,1.3,1.4,1.8,2.5c0.4,1,0.7,2.3,0.7,3.9v3.4c0,0.8-0.1,1.5-0.4,2.2
		c-0.3,0.7-0.7,1.3-1.2,1.8s-1.1,0.9-1.8,1.2c-0.7,0.3-1.4,0.4-2.2,0.4h-12.1V54h12.1c0.4,0,0.7-0.1,1-0.4c0.3-0.2,0.4-0.5,0.4-0.9
		v-3.4c0-0.7-0.1-1.3-0.3-1.8s-0.5-0.8-0.8-1.1s-0.7-0.5-1.1-0.6c-0.4-0.1-0.8-0.2-1.2-0.2c-0.5,0-0.9,0.1-1.5,0.2
		c-0.5,0.1-1,0.2-1.5,0.4c-0.5,0.1-1,0.3-1.4,0.5c-0.4,0.2-0.8,0.3-1.1,0.5L165.4,43.2z M170.5,37.4c0-0.3,0.1-0.6,0.2-0.9
		c0.1-0.3,0.3-0.5,0.5-0.7s0.4-0.4,0.7-0.5s0.6-0.2,0.9-0.2c0.3,0,0.6,0.1,0.9,0.2c0.3,0.1,0.5,0.3,0.7,0.5c0.2,0.2,0.4,0.4,0.5,0.7
		c0.1,0.3,0.2,0.6,0.2,0.9c0,0.3-0.1,0.6-0.2,0.9c-0.1,0.3-0.3,0.5-0.5,0.7c-0.2,0.2-0.4,0.4-0.7,0.5c-0.3,0.1-0.5,0.2-0.9,0.2
		c-0.3,0-0.6-0.1-0.9-0.2s-0.5-0.3-0.7-0.5s-0.4-0.4-0.5-0.7S170.5,37.7,170.5,37.4z"/>
</g>
<path class="st3" d="M124.5,191.9c0.5-0.4,1.2-1.1,2-1.5c4.1-1.7,8.3-3.2,12.4-4.9c2.2-0.9,3.4-0.1,4.2,2.1c1.4,4,2.8,7.9,4.5,11.7
	c0.9,2,0.3,3-1.5,3.7c-4.4,1.7-8.7,3.4-13.2,5c-0.7,0.3-2.4-0.3-2.7-0.9c-2-4.7-3.7-9.4-5.5-14.1
	C124.6,192.9,124.6,192.7,124.5,191.9z M145.7,200.3c-0.2-0.8-0.3-1.2-0.4-1.6c-2.9-11.8-4.2-12.5-15.3-7.8
	c-0.2,0.1-0.4,0.2-0.7,0.3c-2.1,0.7-2.6,2.2-1.9,4.1c1.1,2.9,2,5.9,3.5,8.6c0.5,1,2.6,1.9,3.6,1.7c3.1-0.8,6.1-2.1,9.1-3.4
	C144.4,201.8,145.1,200.8,145.7,200.3z"/>
<path class="st3" d="M57.9,191.1c1.9-0.6,3.5-1.1,5.5-1.7c0.9,2.4,1.8,4.5,2.7,6.8c-1.9,1-3.5,1.8-5.1,2.6c-0.1,2.4,3.1,5-1.4,6.9
	c-4.5,1.9-5.2-1.1-6.6-3.9c-1.8,0.5-3.5,1-5.4,1.6c-0.7-1.7-1.6-3.2-2-4.8c-0.2-0.8,0.2-2.4,0.6-2.5c4.7-1.1,3.6-4,2.1-7.3
	c2.3-1,4.4-1.9,6.9-2.9C56.1,187.5,56.9,189.1,57.9,191.1z M60.2,203c-1.8-3.4-2.1-6.2,2.4-7.4c0.3-0.1,0-2.3,0-4
	c-3.6,1.3-6.7,2.7-7.8-2.1c-0.1-0.4-1.7-0.8-2.4-0.5c-0.6,0.3-1.3,1.4-1.3,2.1c0.1,1.3,0.8,2.5,1.2,3.9c-1.8,0.9-3.4,1.8-5,2.6
	c0.7,5.9,4.5,1.6,6.8,2.3c0.8,1.6,1.6,3.2,2.4,4.9C58,204.1,59,203.6,60.2,203z"/>
<path class="st3" d="M101.7,195.6c-0.4,0.4-0.8,0.9-1.2,1.3c-0.4,0.4-0.9,0.8-1.4,1.3c1.2,0.8,2.2,1.6,3.2,2.3
	c0,0.4-0.1,0.8-0.1,1.1c-3.6-2.7-6.6-1.7-9.4,1.2c-0.2-0.3-0.4-0.6-0.6-0.9c1-1.1,2-2.2,3.1-3.5c-1.1-0.7-2.2-1.5-3.3-2.2
	c0.1-0.4,0.2-0.8,0.3-1.1c3.1,1.8,6.2,2.6,9-0.6C101.5,194.8,101.6,195.2,101.7,195.6z"/>
<g>
	<path class="st3" d="M168.1,198.6c1.5-2.3,1.8-4.6-0.1-6.7c-2.3-2.7-5-1.8-7.7-0.7c3-2.3,6-2.3,8.2,0
		C170.5,193.3,170.4,196.2,168.1,198.6z"/>
	<path class="st3" d="M160.4,191c-0.3,2.1-1.4,4.4-0.8,6.2c1,3.4,4.4,3.9,8.3,1.6c-2.4,2.4-5.4,2.6-7.7,0.5
		C157.7,197,157.8,194,160.4,191z"/>
</g>
<path class="st3" d="M183.8,23.8c0.5-0.4,1.2-1.1,2-1.5c4.1-1.7,8.3-3.2,12.4-4.9c2.2-0.9,3.4-0.1,4.2,2.1c1.4,4,2.8,7.9,4.5,11.7
	c0.9,2,0.3,3-1.5,3.7c-4.4,1.7-8.7,3.4-13.2,5c-0.7,0.3-2.4-0.3-2.7-0.9c-2-4.7-3.7-9.4-5.5-14.1C184,24.8,184,24.5,183.8,23.8z
	 M205.1,32.1c-0.2-0.8-0.3-1.2-0.4-1.6c-2.9-11.8-4.2-12.5-15.3-7.8c-0.2,0.1-0.4,0.2-0.7,0.3c-2.1,0.7-2.6,2.2-1.9,4.1
	c1.1,2.9,2,5.9,3.5,8.6c0.5,1,2.6,1.9,3.6,1.7c3.1-0.8,6.1-2.1,9.1-3.4C203.8,33.7,204.5,32.7,205.1,32.1z"/>
<path class="st3" d="M36.3,73c1.9-0.6,3.5-1.1,5.5-1.7c0.9,2.4,1.8,4.5,2.7,6.8c-1.9,1-3.5,1.8-5.1,2.6c-0.1,2.4,3.1,5-1.4,6.9
	c-4.5,1.9-5.2-1.1-6.6-3.9c-1.8,0.5-3.5,1-5.4,1.6c-0.7-1.7-1.6-3.2-2-4.8c-0.2-0.8,0.2-2.4,0.6-2.5c4.7-1.1,3.6-4,2.1-7.3
	c2.3-1,4.4-1.9,6.9-2.9C34.5,69.4,35.3,71,36.3,73z M38.6,84.9c-1.8-3.4-2.1-6.2,2.4-7.4c0.3-0.1,0-2.3,0-4
	c-3.6,1.3-6.7,2.7-7.8-2.1c-0.1-0.4-1.7-0.8-2.4-0.5c-0.6,0.3-1.3,1.4-1.3,2.1c0.1,1.3,0.8,2.5,1.2,3.9c-1.8,0.9-3.4,1.8-5,2.6
	c0.7,5.9,4.5,1.6,6.8,2.3c0.8,1.6,1.6,3.2,2.4,4.9C36.4,86,37.4,85.5,38.6,84.9z"/>
<path class="st3" d="M26.2,24.6c-0.4,0.4-0.8,0.9-1.2,1.3c-0.4,0.4-0.9,0.8-1.4,1.3c1.2,0.8,2.2,1.6,3.2,2.3c0,0.4-0.1,0.8-0.1,1.1
	c-3.6-2.7-6.6-1.7-9.4,1.2c-0.2-0.3-0.4-0.6-0.6-0.9c1-1.1,2-2.2,3.1-3.5c-1.1-0.7-2.2-1.5-3.3-2.2c0.1-0.4,0.2-0.8,0.3-1.1
	c3.1,1.8,6.2,2.6,9-0.6C26,23.8,26.1,24.2,26.2,24.6z"/>
</svg>
