<?xml version="1.0" encoding="utf-8"?>
<!-- Generator: Adobe Illustrator 25.0.1, SVG Export Plug-In . SVG Version: 6.00 Build 0)  -->
<svg version="1.1" id="Layer_1" xmlns="http://www.w3.org/2000/svg" xmlns:xlink="http://www.w3.org/1999/xlink" x="0px" y="0px"
	 viewBox="0 0 226.8 226.8" style="enable-background:new 0 0 226.8 226.8;" xml:space="preserve">
<style type="text/css">
	.st0{fill:url(#SVGID_1_);}
	.st1{fill:#FFFFFF;}
	.st2{fill:none;stroke:#FFFFFF;stroke-width:1.9843;stroke-miterlimit:10;}
	.st3{fill-rule:evenodd;clip-rule:evenodd;fill:#FFFFFF;}
	.st4{fill:none;stroke:#FFFFFF;stroke-width:0.8504;stroke-miterlimit:10;}
</style>
<linearGradient id="SVGID_1_" gradientUnits="userSpaceOnUse" x1="-5.7722" y1="173.7692" x2="248.0945" y2="44.3774">
	<stop  offset="0" style="stop-color:#EF7841"/>
	<stop  offset="1" style="stop-color:#F0A10B"/>
</linearGradient>
<path class="st0" d="M27.3,215.8H200c10.4,0,18.9-8.5,18.9-18.9v-168c0-10.4-8.5-18.9-18.9-18.9H27.3C16.8,10,8.4,18.5,8.4,28.9v168
	C8.4,207.4,16.8,215.8,27.3,215.8z"/>
<g>
	<g>
		<path class="st1" d="M50.3,62.6h-8.5v-3c0-1.9-0.1-3.1-0.2-3.5s-0.5-0.7-1.2-0.7c-0.5,0-0.9,0.2-1.1,0.6S39,57.4,39,59.1v15.8
			c0,1.5,0.1,2.4,0.3,2.9c0.2,0.5,0.6,0.7,1.1,0.7c0.6,0,1-0.3,1.3-0.8c0.2-0.5,0.3-1.6,0.3-3.1v-3.9h-1.7v-5h10v17.6h-5.4L44.1,81
			c-0.6,1-1.3,1.8-2.2,2.3C41,83.8,40,84,38.8,84c-1.4,0-2.8-0.3-4-1s-2.2-1.6-2.9-2.6c-0.6-1-1.1-2.1-1.2-3.2
			c-0.2-1.1-0.2-2.8-0.2-5.1v-9.8c0-3.1,0.2-5.4,0.5-6.8c0.3-1.4,1.3-2.7,2.9-3.9c1.6-1.2,3.7-1.8,6.2-1.8c2.5,0,4.6,0.5,6.2,1.5
			c1.6,1,2.7,2.2,3.2,3.7c0.5,1.4,0.8,3.5,0.8,6.2V62.6z"/>
		<path class="st1" d="M62.1,50.5v32.8h-8.5V50.5H62.1z"/>
		<path class="st1" d="M85.9,50.5l-4.3,32.8h-13l-4.9-32.8h9c1,9,1.8,16.7,2.2,23c0.4-6.3,0.9-11.9,1.4-16.9l0.6-6.1H85.9z"/>
		<path class="st1" d="M87.3,50.5h14.2v6.6h-5.7v6.2h5.3v6.2h-5.3v7.2h6.3v6.6H87.3V50.5z"/>
		<path class="st1" d="M119.3,50.5l4.9,32.8h-8.7l-0.5-5.9H112l-0.5,5.9h-8.8l4.4-32.8H119.3z M114.8,71.6
			c-0.4-3.7-0.9-8.3-1.3-13.8c-0.9,6.3-1.4,10.9-1.6,13.8H114.8z"/>
		<path class="st1" d="M157.8,50.5L154,83.3h-10.7c-1-5-1.8-10.8-2.6-17.2c-0.3,2.8-1.1,8.5-2.4,17.2h-10.6L124,50.5h8.3l0.9,11.5
			L134,73c0.3-5.7,1.1-13.2,2.4-22.5h8.9c0.1,1,0.4,4.6,0.9,10.8l0.9,12.5c0.5-8,1.3-15.7,2.4-23.3H157.8z"/>
		<path class="st1" d="M174.3,50.5l4.9,32.8h-8.7l-0.5-5.9h-3.1l-0.5,5.9h-8.8l4.4-32.8H174.3z M169.7,71.6
			c-0.4-3.7-0.9-8.3-1.3-13.8c-0.9,6.3-1.4,10.9-1.6,13.8H169.7z"/>
		<path class="st1" d="M198.8,50.5l-6.2,21v11.9h-7.9V71.4l-6-21h7.8c1.2,6.4,1.9,10.7,2.1,12.9c0.5-3.5,1.3-7.8,2.4-12.9H198.8z"/>
	</g>
</g>
<path class="st1" d="M109.7,120.3c0-2.6,2-4.7,4.6-4.7c2.6,0,4.8,2.1,4.8,4.6c0,2.7-2.1,4.9-4.8,4.9
	C111.7,125,109.7,123,109.7,120.3z"/>
<path class="st1" d="M35.4,212.7c0-1.9,0-3.9,0.1-5.8c0.5-9.2,2.5-18.1,6.2-26.6c3.3-7.6,7.6-14.6,13.1-20.8
	c6-6.9,12.9-12.6,20.8-17c6.9-3.9,14.3-6.8,22.1-8.4c2.7-0.6,5.5-0.9,8.2-1.3c0.2,0,0.7,0.3,0.8,0.5c0.6,2.7,1.1,5.4,1.6,8.2
	c-19.5,2.1-35.6,10.4-47.9,25.5c-11,13.5-16.3,28.8-15.8,45.8h3.1c19.1,0,38,0,57.1,0h3.2c-0.1-0.5-0.2-1.1-0.2-1.7
	c0-3.7,3.2-6.8,6.9-6.7c3.7,0.1,6.7,3.2,6.7,7c0,0.5-0.1,1-0.2,1.4h3.7c0.1,0,0.2,0,0.2,0c1.5,0,3.1,0,4.6,0c14.1,0,28.1,0,42.2,0
	c2.8,0,5.6,0,8.3,0c0.3,0,0.7,0,1.2,0c0,0,0,0,0,0.1h3.1c0.5-16.6-4.6-31.8-15.4-45.2c-12.3-15.4-28.6-23.9-48.3-26.1
	c0.6-2.9,1.1-5.8,1.7-8.9c1.7,0.2,3.4,0.4,5,0.7c9.1,1.5,17.7,4.5,25.7,9.1c7.8,4.4,14.7,10,20.6,16.8c6.4,7.3,11.3,15.5,14.7,24.6
	c2.4,6.3,3.9,12.9,4.5,19.6c0.3,3.1,0.4,6.3,0.4,9.4h3.1c0.4-14.5-3.1-28.4-10.5-41.5c-12.5-21.9-31.4-35.3-56.1-40.7
	c0-0.4,0-0.8,0-1.1c0-3.8,0.1-7.6,0-11.4c-0.2-5.5-3-9.5-7.7-12.1c-3.1-1.7-6.4-1.7-9.7-1.5c-2.1,0.1-4,0.8-5.8,1.8
	c-4.8,3-7.2,7.3-7.2,13c0,3.7,0,7.5,0,11.3c-21.8,4.5-39.3,15.5-52.1,33.6c-10.5,14.9-15.5,31.2-15,48.7H35.4z M105,208.2
	c-0.3,0.5,0,1.6-1.2,1.5c-0.7-0.1-1.4,0-2.1,0c-15.7,0-31.5,0-47.2,0c-2.3,0-4.6,0-7,0c0.3-10.9,3-21,8.2-30.6
	c2.1,1.2,4.1,2.4,6.2,3.5c7.2,4.2,14.4,8.3,21.6,12.5c7,4,14,8.1,20.9,12.1C104.8,207.4,105.3,207.6,105,208.2z M106.5,204.8
	c-16.3-9.4-32.8-18.9-49.2-28.4c4.3-7.8,13.1-17.1,22.3-22.4c9.5,16.4,19,32.9,28.5,49.4C107.6,203.9,107.1,204.3,106.5,204.8z
	 M112.9,201.2c-0.1,0.1-0.1,0.1-0.2,0.2c-1.9,0.4-1.9,0.5-2.9-1.2c-2.8-4.7-5.5-9.5-8.2-14.3c-4.8-8.4-9.7-16.7-14.5-25.1
	c-1.6-2.7-3.2-5.5-4.9-8.5c3.3-1.4,6.4-2.8,9.6-4.1c5.2-2,10.6-3.1,16.2-3.7c0.7-0.1,1,0.1,1.1,0.9c1.2,6,2.5,11.9,3.7,17.9
	c0.1,0.4,0.1,0.9,0.1,1.3c0,11.5,0,23,0,34.5C112.9,199.9,112.9,200.6,112.9,201.2z M181.3,209.7c-1.9,0-3.7,0-5.5,0
	c-10.9,0-21.7,0-32.6-0.1c-6,0-12.1,0-18.1,0c-0.7,0-1-0.1-1.1-0.8c0-0.4-0.2-0.8-0.4-1.2c16.5-9.5,32.9-19,49.4-28.5
	C178.3,188.6,181,198.7,181.3,209.7z M149.1,154.1c5.7,2.1,19.2,15.5,22.3,22.3c-16.5,9.5-32.9,19-49.3,28.5
	c-0.1-0.1-0.2-0.1-0.3-0.2c-1.2-1.3-1.2-1.3-0.3-2.9c5-8.7,10-17.3,15-26c2-3.4,3.9-6.9,5.9-10.4c2-3.5,4-6.9,6-10.4
	C148.7,154.7,148.9,154.4,149.1,154.1z M146.5,152.5c-9.5,16.5-19,33-28.5,49.4c-0.7-0.2-1.3-0.3-2.1-0.6c0-1.2,0-2.5,0-3.8
	c0-10.9-0.1-21.8,0.1-32.7c0-2.1,0.7-4.2,1.1-6.3c0.9-4.4,1.8-8.8,2.7-13.3c0.1-0.2,0.1-0.5,0.2-0.8
	C129.4,145.3,138.2,147.9,146.5,152.5z M121.1,121.6c-0.5,3.4-1,6.8-1.7,10.2c-1.4,7-2.8,14-4.2,21c-0.2,1-0.5,2.1-0.7,3.1
	c-0.1,0-0.1,0-0.2,0c-0.5-2.3-1-4.6-1.5-7c-1-5-2.1-10-3-15.1c-0.8-4.1-1.4-8.3-2.1-12.5c-0.4-2.9,0.7-5.2,3.2-6.7
	c2.3-1.4,4.8-1.4,7.1,0.1C120.5,116.2,121.5,118.6,121.1,121.6z M115.4,107.2c4.2,0.2,7.5,1.8,9.8,5.5c1,1.6,1.6,3.3,1.6,5.2
	c0,3.9,0,7.8,0,11.6c0,0.1,0,0.2-0.1,0.5c-1.3-0.2-2.5-0.3-3.8-0.5c0.4-2.6,0.8-5.1,1.2-7.5c0.8-5.3-2.7-10.3-7.8-11.2
	c-5.3-1-10.4,2.3-11.6,7.5c-0.5,2.4,0,4.7,0.4,7c0.2,1.4,0.4,2.7,0.7,4.2c-1.1,0.1-2.2,0.3-3.3,0.4c0-0.4,0-0.8,0-1.1
	c0-3.1,0.1-6.3,0-9.4C102.2,112.6,107.3,106.8,115.4,107.2z"/>
<g id="Pages">
	<g id="Desktop-HD" transform="translate(-55.000000, -4501.000000)">
		<g id="Shape_2_" transform="translate(65.000000, 4511.000000)">
			
				<g id="Group" transform="translate(655.500000, 419.000000) rotate(-13.000000) translate(-655.500000, -419.000000) translate(50.000000, 129.000000)">
				<path id="Rectangle-206" class="st2" d="M47.5-155.8l60.4-11.4c0.1,0,0.1,0,0.1,0.1l5.5,28.8c0,0.1,0,0.1-0.1,0.1L53-126.7
					c-0.1,0-0.1,0-0.1-0.1l-5.5-28.8C47.5-155.7,47.5-155.8,47.5-155.8z"/>
				<path id="_x24_" class="st3" d="M58.4-148.2c-0.3-1.3-1.4-1.5-2.6-1.6l-0.4-2.2c0.5,0,0.9,0.1,1.4,0.3c0.1,0,0.2,0.1,0.3,0
					c0.2,0,0.4-0.3,0.3-0.5c0-0.1-0.1-0.2-0.2-0.3c-0.6-0.3-1.2-0.4-1.9-0.4l-0.1-0.7c0-0.2-0.2-0.3-0.4-0.2c-0.2,0-0.3,0.2-0.3,0.4
					l0.1,0.7c-1.2,0.3-2,1.2-1.8,2.3c0.2,1.3,1.4,1.4,2.5,1.5l0.5,2.5c-0.7,0.1-1.3-0.1-1.8-0.4c-0.1,0-0.2-0.1-0.3,0
					c-0.2,0-0.3,0.3-0.3,0.5c0,0.1,0.1,0.2,0.2,0.3c0.6,0.4,1.4,0.6,2.3,0.4l0.1,0.7c0,0.2,0.2,0.3,0.4,0.2c0.2,0,0.3-0.2,0.2-0.4
					l-0.1-0.7C58.2-146.2,58.6-147.3,58.4-148.2L58.4-148.2z M55.2-149.9c-0.7-0.1-1.3-0.2-1.4-0.8c-0.1-0.6,0.3-1.1,1-1.3
					L55.2-149.9z M57.5-148c0.1,0.5-0.1,1.1-1.1,1.4l-0.4-2.3C56.8-148.8,57.4-148.6,57.5-148L57.5-148z"/>
				<path id="_x24__1_" class="st3" d="M109.6-143.7c-0.3-1.3-1.4-1.5-2.6-1.6l-0.4-2.2c0.5,0,0.9,0.1,1.4,0.3c0.1,0,0.2,0.1,0.3,0
					c0.2,0,0.4-0.3,0.3-0.5c0-0.1-0.1-0.2-0.2-0.3c-0.6-0.3-1.2-0.4-1.9-0.4l-0.1-0.7c0-0.2-0.2-0.3-0.4-0.2c-0.2,0-0.3,0.2-0.3,0.4
					l0.1,0.7c-1.2,0.3-2,1.2-1.8,2.3c0.2,1.3,1.4,1.4,2.5,1.5l0.5,2.5c-0.7,0.1-1.3-0.1-1.8-0.4c-0.1,0-0.2-0.1-0.3,0
					c-0.2,0-0.3,0.3-0.3,0.5c0,0.1,0.1,0.2,0.2,0.3c0.6,0.4,1.4,0.6,2.3,0.4l0.1,0.7c0,0.2,0.2,0.3,0.4,0.2c0.2,0,0.3-0.2,0.2-0.4
					l-0.1-0.7C109.4-141.7,109.8-142.8,109.6-143.7L109.6-143.7z M106.4-145.4c-0.7-0.1-1.3-0.2-1.4-0.8c-0.1-0.6,0.3-1.1,1-1.3
					L106.4-145.4z M108.7-143.5c0.1,0.5-0.1,1.1-1.1,1.4l-0.4-2.3C108-144.3,108.6-144.2,108.7-143.5L108.7-143.5z"/>
				<circle id="Oval-29" class="st2" cx="80.9" cy="-147.1" r="7"/>
				<path id="Shape" class="st2" d="M103.2-162.7l-41.6,7.9c0.9,4.7,1.5,12-7.9,13.8l1.4,7.2"/>
				<path id="Shape_1_" class="st2" d="M57.5-130.7l41.6-7.9c-0.9-4.7-1.5-12,7.9-13.8l-1.4-7.2"/>
			</g>
		</g>
	</g>
</g>
<g id="Pages_1_">
	<g id="Desktop-HD_1_" transform="translate(-55.000000, -4501.000000)">
		<g id="Shape_3_" transform="translate(65.000000, 4511.000000)">
			
				<g id="Group_1_" transform="translate(655.500000, 419.000000) rotate(-13.000000) translate(-655.500000, -419.000000) translate(50.000000, 129.000000)">
				<path id="Rectangle-206_1_" class="st4" d="M176.7-132.5l30.8,14.1c0,0,0,0,0,0.1l-6.7,14.7c0,0,0,0-0.1,0l-30.8-14.1
					c0,0,0,0,0-0.1L176.7-132.5C176.6-132.5,176.7-132.5,176.7-132.5z"/>
				<path id="_x24__3_" class="st3" d="M179.2-125.7c0.3-0.7-0.2-1.1-0.6-1.5l0.5-1.1c0.2,0.1,0.4,0.3,0.5,0.6c0,0,0.1,0.1,0.1,0.1
					c0.1,0.1,0.2,0,0.3-0.1c0-0.1,0-0.1,0-0.2c-0.2-0.3-0.4-0.6-0.7-0.8l0.2-0.4c0-0.1,0-0.2-0.1-0.2c-0.1,0-0.2,0-0.2,0.1l-0.2,0.4
					c-0.6-0.3-1.3-0.1-1.5,0.5c-0.3,0.6,0.2,1.1,0.6,1.5l-0.6,1.3c-0.3-0.2-0.5-0.5-0.7-0.7c0,0-0.1-0.1-0.1-0.1
					c-0.1-0.1-0.3,0-0.3,0.1c0,0.1,0,0.1,0,0.2c0.2,0.4,0.4,0.7,0.9,0.9l-0.2,0.3c0,0.1,0,0.2,0.1,0.2c0.1,0,0.2,0,0.2-0.1l0.2-0.3
					C178.4-124.9,179-125.2,179.2-125.7L179.2-125.7z M178.3-127.5c-0.3-0.3-0.5-0.5-0.4-0.8c0.1-0.3,0.5-0.4,0.9-0.3L178.3-127.5z
					 M178.7-125.8c-0.1,0.2-0.4,0.5-0.9,0.3l0.5-1.2C178.6-126.5,178.9-126.2,178.7-125.8L178.7-125.8z"/>
				<path id="_x24__2_" class="st3" d="M200.8-107.4c0.3-0.7-0.2-1.1-0.6-1.5l0.5-1.1c0.2,0.1,0.4,0.3,0.5,0.6c0,0,0.1,0.1,0.1,0.1
					c0.1,0.1,0.2,0,0.3-0.1c0-0.1,0-0.1,0-0.2c-0.2-0.3-0.4-0.6-0.7-0.8l0.2-0.4c0-0.1,0-0.2-0.1-0.2c-0.1,0-0.2,0-0.2,0.1l-0.2,0.4
					c-0.6-0.3-1.3-0.1-1.5,0.5c-0.3,0.6,0.2,1.1,0.6,1.5l-0.6,1.3c-0.3-0.2-0.5-0.5-0.7-0.7c0,0-0.1-0.1-0.1-0.1
					c-0.1-0.1-0.3,0-0.3,0.1c0,0.1,0,0.1,0,0.2c0.2,0.4,0.4,0.7,0.9,0.9l-0.2,0.3c0,0.1,0,0.2,0.1,0.2c0.1,0,0.2,0,0.2-0.1l0.2-0.3
					C200.1-106.6,200.6-106.9,200.8-107.4L200.8-107.4z M199.9-109.2c-0.3-0.3-0.5-0.5-0.4-0.8c0.1-0.3,0.5-0.4,0.9-0.3L199.9-109.2
					z M200.3-107.6c-0.1,0.2-0.4,0.5-0.9,0.3l0.5-1.2C200.3-108.2,200.5-107.9,200.3-107.6L200.3-107.6z"/>
				<circle id="Oval-29_1_" class="st4" cx="188.9" cy="-118" r="3.8"/>
				<path id="Shape_5_" class="st4" d="M204-118l-21.2-9.7c-1.1,2.4-3.1,5.9-7.9,3.7l-1.7,3.7"/>
				<path id="Shape_4_" class="st4" d="M173.2-118.1l21.2,9.7c1.1-2.4,3.1-5.9,7.9-3.7l1.7-3.7"/>
			</g>
		</g>
	</g>
</g>
<g>
	<path class="st4" d="M140.4,28c1,0.1,1.5-0.4,1.6-0.9c0.1-0.7-0.4-1.1-1.1-1.5L140.4,28z"/>
	<path class="st4" d="M123.9,13.7l21.2-3.3h-21.6C123.9,11.5,124.1,12.6,123.9,13.7z"/>
	<path class="st4" d="M140.9,22.2c-0.8-0.1-1.4,0.2-1.5,0.8c-0.1,0.6,0.4,1,1.1,1.3L140.9,22.2z"/>
	<path class="st4" d="M145.2,10.5l-1.5,7.4c-9.7-2-11.9,5.3-12.9,10.1l-42.7-8.7l22.2-3.4c-0.6-1.2-0.8-2.5-0.6-3.9l-22.6,3.5l1-5
		h-3.7l-2.2,10.8c0,0.1,0,0.1,0.1,0.1L144.4,34c0.1,0,0.1,0,0.1-0.1l4.8-23.5H145.2z M143.5,23c0,0.2-0.3,0.4-0.5,0.4
		c-0.1,0-0.2-0.1-0.2-0.1c-0.3-0.4-0.7-0.7-1.2-0.8l-0.5,2.3c1,0.5,2.1,1.2,1.8,2.6c-0.2,1-1,1.8-2.7,1.6l-0.1,0.7
		c0,0.2-0.2,0.3-0.4,0.2c-0.2,0-0.3-0.2-0.3-0.4l0.1-0.7c-0.9-0.2-1.6-0.7-2-1.3c-0.1-0.1-0.1-0.2-0.1-0.3c0-0.2,0.3-0.4,0.5-0.4
		c0.1,0,0.2,0.1,0.2,0.1c0.3,0.5,0.9,0.9,1.5,1.1l0.5-2.6c-1-0.5-2.1-1.1-1.8-2.4c0.2-1.1,1.3-1.7,2.6-1.5l0.1-0.7
		c0-0.2,0.2-0.3,0.4-0.2c0.2,0,0.3,0.2,0.2,0.4l-0.2,0.7c0.7,0.2,1.3,0.6,1.7,1.1C143.5,22.8,143.5,22.9,143.5,23z"/>
</g>
</svg>
