<?xml version="1.0" encoding="utf-8"?>
<!-- Generator: Adobe Illustrator 25.0.1, SVG Export Plug-In . SVG Version: 6.00 Build 0)  -->
<svg version="1.1" id="Layer_1" xmlns="http://www.w3.org/2000/svg" xmlns:xlink="http://www.w3.org/1999/xlink" x="0px" y="0px"
	 viewBox="0 0 202 202" style="enable-background:new 0 0 202 202;" xml:space="preserve">
<style type="text/css">
	.st0{fill:#EF7841;}
	.st1{fill:#FFFFFF;}
</style>
<path class="st0" d="M101,2.8L101,2.8c54,0,98.2,44.2,98.2,98.2v0c0,54-44.2,98.2-98.2,98.2h0C47,199.2,2.8,155,2.8,101v0
	C2.8,47,47,2.8,101,2.8z"/>
<path class="st1" d="M26.5,128.2c0-2.5,0-5,0-7.6c0.5-4,0.9-8,1.5-12c2.9-19.4,9.8-37.1,20.6-53.5c0.7-1.1,1.9-2.1,3-2.5
	c7.1-2.6,14.1-5.2,21.4-7.3c6.7-1.9,6.8-1.6,9.9,4.8c0.7,1.4,1.4,1.8,3.1,1.7c8.3-0.4,16.6-0.6,24.9-0.7c2.3,0,5,1.4,6.8,0.5
	c1.7-0.8,2.4-3.7,3.5-5.7c0.7-1.4,1.4-2.1,3.2-1.6c8.8,2.8,17.7,5.6,26.5,8.4c0.9,0.3,1.9,1.1,2.4,1.9c11.4,17.3,18.8,36.2,21,56.9
	c0.5,4.4,0.9,8.8,1.3,13.2c0,1.2,0,2.3,0,3.5c-0.3,2.9-0.4,5.8-0.9,8.6c-0.2,1.3-0.8,2.9-1.7,3.6c-10.4,7.6-21.7,13.5-33.9,17.4
	c-0.7,0.2-1.9,0.1-2.2-0.3c-2.5-3.7-4.8-7.6-7.2-11.4c4.5-2.3,8.4-4.2,12.4-6.2c-1.8-2.9-3.6-3.3-6.3-2c-8.6,4-17.7,6.3-27.1,7
	c-14.7,1.1-29-1-42.5-7.1c-2.9-1.3-4.4-0.5-6.1,2.2c4.1,2,8,4,12.4,6.2c-2.4,3.8-4.6,7.6-7,11.1c-0.4,0.5-1.7,0.8-2.4,0.6
	c-12.4-3.9-23.8-9.8-34.2-17.6c-0.8-0.6-1.3-2-1.5-3.1C26.9,134.1,26.8,131.2,26.5,128.2z M125.9,122.8c1.5-0.4,3-0.6,4.4-1.2
	c10.4-4.5,12.6-19.4,4-26.9c-5.1-4.4-11.5-4.5-16.7-0.3c-3.2,2.6-5,6.2-5.5,10.2C110.9,113.2,116.7,122.5,125.9,122.8z M75.5,91.3
	c-0.3,0.1-1.4,0.2-2.4,0.4c-10.1,2.8-14,15.8-7.5,25c3.2,4.5,8.2,6.6,13.1,5.5c9.1-2.1,13.9-12.7,10-22
	C86.3,94.7,81.6,91.3,75.5,91.3z"/>
</svg>
