<?xml version="1.0" encoding="utf-8"?>
<!-- Generator: Adobe Illustrator 25.0.1, SVG Export Plug-In . SVG Version: 6.00 Build 0)  -->
<svg version="1.1" id="Layer_1" xmlns="http://www.w3.org/2000/svg" xmlns:xlink="http://www.w3.org/1999/xlink" x="0px" y="0px"
	 viewBox="0 0 202 202" style="enable-background:new 0 0 202 202;" xml:space="preserve">
<style type="text/css">
	.st0{fill:#F17658;}
</style>
<g>
	<path class="st0" d="M102.1,51.4c39.3,2,68.6,16.6,85.9,45.8c1.7,2.9,1.6,5.4-0.1,8.2c-17.6,29.4-46.9,45.4-87.5,45.2
		c-40.3-0.2-69-16.4-86.4-45.5c-1.5-2.6-1.6-4.9-0.1-7.5c14.9-25.8,39.8-40.9,74.9-45.2C93,51.9,97.2,51.7,102.1,51.4z M96,143.9
		c37.9,0,68.6-15.5,82.7-39.1c1.5-2.5,1.6-4.6,0-7c-16.3-25-42-38.8-77.2-39c-35.3-0.1-61.4,13.5-77.9,38.6c-1.8,2.7-1.8,5,0,7.7
		C39.9,130.1,66.1,142.6,96,143.9z"/>
	<path class="st0" d="M129.4,101.3c0,15.6-12.8,28.3-28.4,28.3c-15.6,0-28.3-12.8-28.3-28.4c0-15.6,12.8-28.3,28.4-28.3
		C116.7,73,129.4,85.7,129.4,101.3z M101,79.9c-11.6,0-21.5,9.9-21.4,21.5c0.1,11.4,9.7,21.2,21.2,21.3c11.5,0.2,21.5-9.7,21.6-21.3
		C122.6,89.9,112.6,79.9,101,79.9z"/>
	<path class="st0" d="M101,90.9c5.6,0,10.5,4.9,10.4,10.5c-0.1,5.6-4.9,10.5-10.5,10.4c-5.6-0.1-10.3-4.8-10.3-10.4
		C90.6,95.7,95.4,90.8,101,90.9z"/>
</g>
</svg>
