<?xml version="1.0" encoding="utf-8"?>
<!-- Generator: Adobe Illustrator 25.0.1, SVG Export Plug-In . SVG Version: 6.00 Build 0)  -->
<svg version="1.1" id="Layer_1" xmlns="http://www.w3.org/2000/svg" xmlns:xlink="http://www.w3.org/1999/xlink" x="0px" y="0px"
	 viewBox="0 0 202 202" style="enable-background:new 0 0 202 202;" xml:space="preserve">
<style type="text/css">
	.st0{fill:#EF7841;}
	.st1{fill:#FFFFFF;}
</style>
<path class="st0" d="M101,2.8L101,2.8c54,0,98.2,44.2,98.2,98.2v0c0,54-44.2,98.2-98.2,98.2h0C47,199.2,2.8,155,2.8,101v0
	C2.8,47,47,2.8,101,2.8z"/>
<path class="st1" d="M113.4,180c-9.8,0-19.4,0-29.2,0c0-24,0-48,0-72.1c-8.2,0-16.2,0-24.3,0c0-9.4,0-18.7,0-28.1c8.1,0,16,0,24.2,0
	c0-0.7,0.1-1.3,0.1-1.8c0.1-7.9-0.1-15.7,0.3-23.6c0.4-7.8,2.8-15,8-21.1c5.5-6.5,12.8-9.8,21.1-11c6.6-0.9,13.1-0.4,19.7-0.1
	c2.9,0.1,5.9,0.4,8.8,0.6c0,8.5,0,16.8,0,25.2c-0.7,0-1.2,0-1.8,0c-5.4,0.1-10.8,0.1-16.2,0.2c-0.9,0-1.8,0.2-2.6,0.4
	c-4.8,1.2-7.5,4.2-7.8,9.3c-0.3,5.1-0.2,10.3-0.3,15.4c0,2.1,0,4.1,0,6.3c9.3,0,18.4,0,27.8,0c-1.2,9.4-2.4,18.7-3.6,28
	c-8.1,0-16,0-24.1,0C113.4,132,113.4,156,113.4,180z"/>
</svg>
