<?xml version="1.0" encoding="utf-8"?>
<!-- Generator: Adobe Illustrator 25.0.1, SVG Export Plug-In . SVG Version: 6.00 Build 0)  -->
<svg version="1.1" id="Layer_1" xmlns="http://www.w3.org/2000/svg" xmlns:xlink="http://www.w3.org/1999/xlink" x="0px" y="0px"
	 viewBox="0 0 202 202" style="enable-background:new 0 0 202 202;" xml:space="preserve">
<style type="text/css">
	.st0{fill:#EF7841;}
	.st1{fill:#FFFFFF;}
</style>
<path class="st0" d="M101,2.8L101,2.8c54,0,98.2,44.2,98.2,98.2v0c0,54-44.2,98.2-98.2,98.2h0C47,199.2,2.8,155,2.8,101v0
	C2.8,47,47,2.8,101,2.8z"/>
<g>
	<path class="st1" d="M33.5,134c0-22,0-43.9,0-65.9c0.1-0.5,0.1-0.9,0.3-1.4c0.9-3.5,1.3-7.2,2.8-10.5c6.7-14.6,18.3-22.3,34.3-22.6
		c20-0.3,40.1-0.1,60.1-0.1c7.8,0,15,2.1,21.3,6.6c10.7,7.6,16.1,18.2,16.1,31.4c0.1,19.7,0,39.4,0,59.1c0,2.5-0.1,5.1-0.7,7.6
		c-3.4,15.3-12.7,25.1-27.8,29.3c-2,0.5-4,0.7-6.1,1.1c-22,0-44,0-65.9,0c-1.4-0.2-2.8-0.4-4.1-0.7c-15.3-3.4-25.1-12.7-29.3-27.8
		C34,138.1,33.8,136,33.5,134z M45.5,101c0,9.8,0,19.5,0,29.3c0,3.1,0.3,6.1,1.4,9.1c3.8,10.7,13.1,17.2,24.7,17.2
		c19.6,0,39.2,0.1,58.8-0.1c3,0,6.1-0.4,8.9-1.4c10.8-3.6,17.2-13,17.2-24.6c0-19.6,0.1-39.3-0.1-58.9c0-2.9-0.4-6-1.3-8.8
		c-3.6-10.7-12.9-17.2-24.5-17.3c-19.7,0-39.5,0-59.2,0c-8.9,0-16,3.5-21.3,10.7c-3.4,4.6-4.7,9.8-4.7,15.5
		C45.5,81.4,45.5,91.2,45.5,101z"/>
	<path class="st1" d="M135.8,101.1c0,19.1-15.8,34.8-34.8,34.8C81.8,135.8,66.1,120,66.2,101c0.1-19.1,15.7-34.7,34.8-34.7
		C120.1,66.2,135.8,82,135.8,101.1z M101,78.3C88.5,78.2,78.3,88.4,78.2,101c-0.1,12.5,10.1,22.8,22.7,22.8
		c12.5,0.1,22.8-10.1,22.8-22.7C123.8,88.6,113.6,78.3,101,78.3z"/>
	<path class="st1" d="M137.2,56.1c4.8,0,8.9,4,8.8,8.8c-0.1,4.8-4,8.7-8.8,8.7c-4.8,0-8.9-4-8.8-8.8C128.5,60,132.4,56.1,137.2,56.1
		z"/>
</g>
</svg>
