<?xml version="1.0" encoding="utf-8"?>
<!-- Generator: Adobe Illustrator 25.0.1, SVG Export Plug-In . SVG Version: 6.00 Build 0)  -->
<svg version="1.1" id="Layer_1" xmlns="http://www.w3.org/2000/svg" xmlns:xlink="http://www.w3.org/1999/xlink" x="0px" y="0px"
	 viewBox="0 0 202 202" style="enable-background:new 0 0 202 202;" xml:space="preserve">
<style type="text/css">
	.st0{fill:#EF7841;}
	.st1{fill:#FFFFFF;}
</style>
<path class="st0" d="M101,2.8L101,2.8c54,0,98.2,44.2,98.2,98.2v0c0,54-44.2,98.2-98.2,98.2h0C47,199.2,2.8,155,2.8,101v0
	C2.8,47,47,2.8,101,2.8z"/>
<path class="st1" d="M88.7,82.2c0,9.3,0,17.6,0,25.7c-3.9,0-7.8-0.6-11.4,0.1c-12,2.2-20.3,13.3-18.8,24.9
	c1.5,12.6,12.2,21.3,25,20.5c11.7-0.7,21.1-10.7,21.1-23c0.1-34.1,0.1-68.2,0.1-102.3c0-1.5,0-3,0-4.8c8.4,0,16.7,0,25,0
	c2.9,23.5,16.2,36.5,39.9,39c0,8.2,0,16.4,0,24.9c-14.5,0-27.3-4.5-39.5-13.3c0,1.8,0,3,0,4.2c0,18.7,0.5,37.4-0.1,56
	c-0.7,23.3-21.2,43.1-44.5,44.6c-28.2,1.8-47.6-17.8-52-38.4C27.9,114.1,46.6,86.5,73.1,83C78.2,82.3,83.4,82.4,88.7,82.2z"/>
</svg>
