<?xml version="1.0" encoding="utf-8"?>
<!-- Generator: Adobe Illustrator 25.0.1, SVG Export Plug-In . SVG Version: 6.00 Build 0)  -->
<svg version="1.1" id="Layer_1" xmlns="http://www.w3.org/2000/svg" xmlns:xlink="http://www.w3.org/1999/xlink" x="0px" y="0px"
	 viewBox="0 0 202 202" style="enable-background:new 0 0 202 202;" xml:space="preserve">
<style type="text/css">
	.st0{fill:#EF7841;}
	.st1{fill:#FFFFFF;}
</style>
<path class="st0" d="M101,2.8L101,2.8c54,0,98.2,44.2,98.2,98.2v0c0,54-44.2,98.2-98.2,98.2h0C47,199.2,2.8,155,2.8,101v0
	C2.8,47,47,2.8,101,2.8z"/>
<path class="st1" d="M104.1,53.2c4.4,0,10.7,0.1,17.1,0.3c4,0.1,7.9,0.3,11.9,0.4c3.1,0.1,6.2,0.3,9.2,0.5c3,0.2,6.1,0.5,9.1,0.9
	c3.3,0.5,6.4,1.6,9,3.7c3.2,2.5,5.2,5.8,6.2,9.7c0.7,2.9,1.2,5.9,1.5,8.8c0.4,3.3,0.7,6.5,0.9,9.8c0.3,4.6,0.4,9.2,0.4,13.9
	c0,3.5-0.1,7-0.3,10.4c-0.2,3.4-0.4,6.9-0.8,10.3c-0.4,3.7-0.9,7.3-1.7,10.9c-1.3,6.4-6.4,11.7-12.8,13.1c-2,0.5-4.1,0.7-6.1,1
	c-3.1,0.4-6.2,0.6-9.4,0.8c-2.1,0.1-4.3,0.2-6.4,0.4c-5.6,0.3-11.2,0.4-16.7,0.5c-5.8,0.1-11.6,0.1-17.5,0.1
	c-5.7,0-11.4-0.1-17.1-0.3c-4.4-0.1-8.8-0.3-13.2-0.5c-3.6-0.2-7.1-0.4-10.7-0.8c-2.8-0.3-5.6-0.5-8.4-1.1
	c-4.2-0.9-7.6-3.1-10.2-6.5c-1.6-2.1-2.6-4.5-3.1-7.2c-0.7-3.4-1.2-6.8-1.5-10.2c-0.9-8.8-1.1-17.6-0.9-26.4
	c0.1-3.8,0.2-7.6,0.5-11.4c0.3-4.5,0.8-9,1.6-13.5c0.3-1.8,0.7-3.6,1.5-5.3c2.2-4.8,5.9-7.9,10.9-9.4c1.2-0.4,2.6-0.5,3.8-0.7
	c2.4-0.4,4.7-0.6,7.1-0.8c2-0.2,4.1-0.3,6.1-0.5c4-0.3,7.9-0.5,11.9-0.6c3.4-0.1,6.7-0.2,10.1-0.3C91.6,53.2,96.9,53.2,104.1,53.2z
	 M87.8,80.5c-0.1,0.6-0.1,40.4,0,40.9c11.9-6.8,23.7-13.6,35.6-20.4C111.5,94.1,99.7,87.3,87.8,80.5z"/>
</svg>
