<?xml version="1.0" encoding="utf-8"?>
<!-- Generator: Adobe Illustrator 25.0.1, SVG Export Plug-In . SVG Version: 6.00 Build 0)  -->
<svg version="1.1" id="Layer_1" xmlns="http://www.w3.org/2000/svg" xmlns:xlink="http://www.w3.org/1999/xlink" x="0px" y="0px"
	 viewBox="0 0 425.2 85" style="enable-background:new 0 0 425.2 85;" xml:space="preserve">
<style type="text/css">
	.st0{fill:url(#SVGID_1_);}
	.st1{fill:none;stroke:#FFFFFF;stroke-width:2.8346;stroke-miterlimit:10;}
	.st2{fill:#FFFFFF;}
</style>
<g>
	<linearGradient id="SVGID_1_" gradientUnits="userSpaceOnUse" x1="42.7899" y1="129.4382" x2="404.2974" y2="-54.8164">
		<stop  offset="0" style="stop-color:#EF7841"/>
		<stop  offset="1" style="stop-color:#F0A10B"/>
	</linearGradient>
	<path class="st0" d="M28.8,79.3h367.9c10.4,0,18.9-8.5,18.9-18.9V25.2c0-10.4-8.5-18.9-18.9-18.9H28.8c-10.4,0-18.9,8.5-18.9,18.9
		v35.2C9.9,70.8,18.4,79.3,28.8,79.3z"/>
	<g>
		<g>
			<path class="st1" d="M288.4,46.8c0.1,2.6,0.1,5.2,0,7.8h42.5c5.6,0,10.2-4.5,10.2-10.2c0-5.6-4.5-10.2-10.2-10.2h-42.5V46.8z"/>
			<path class="st2" d="M322.8,46.7c-1.5,1.1-2.9,2-4.4,3.1c-0.5-0.7-0.8-1.4-1.4-2c1.6-1.2,3.1-2.2,4.8-3.4c-1-0.7-1.8-1.4-2.7-2
				c-0.5-0.4-1-0.8-1.5-1.1c-0.4-0.3-0.5-0.5-0.2-0.8c0.3-0.4,0.5-0.7,0.6-1.1c0.3-0.5,0.5-0.5,0.9-0.3c1.2,0.8,2.2,1.6,3.4,2.4
				c0.1,0.1,0.3,0.2,0.5,0.3c0-1.8,0-3.5,0-5.3c0.8,0,1.5,0,2.3,0c0,1.7,0,3.4,0,5.3c1.5-1.1,2.9-2.1,4.4-3.1
				c0.5,0.8,0.8,1.5,1.2,2.3c-1.5,1.1-3.1,2.2-4.7,3.3c1.5,1.2,3.1,2.2,4.7,3.4c-0.5,0.7-0.8,1.4-1.3,2.2c-1.4-1-2.8-2-4.3-3.1
				c0,1,0,1.8,0,2.6c0,0.2,0,0.5,0,0.6c0,2-0.1,2.2-2.3,1.7C322.8,50.2,322.8,48.5,322.8,46.7z"/>
			<path class="st2" d="M304.7,44.4c1.6,1.2,3.1,2.2,4.7,3.4c-0.5,0.7-0.8,1.4-1.3,2.2c-1.4-1-2.8-2-4.3-3.1c0,0.3-0.1,0.5-0.1,0.7
				c0,1.3,0,2.4,0,3.7c0,0.5-0.2,0.7-0.7,0.6c-0.5-0.1-1,0-1.5,0c0-1.7,0-3.4,0-5.2c-1.5,1.1-3,2-4.4,3.1c-0.5-0.7-0.8-1.4-1.4-2
				c1.5-1.2,3.2-2.2,4.8-3.4c-1.6-1.2-3.2-2.3-4.7-3.4c0.5-0.7,0.8-1.4,1.2-2.2c1.5,1.1,2.9,2,4.4,3.2c0-1.8,0-3.6,0-5.3
				c0.7,0,1.4,0,1.9,0c0.5,0,0.5,0.3,0.5,0.5c0,1.4,0,2.7,0,4.1c0,0.3,0,0.5,0,0.8c1.5-1.1,2.9-2,4.4-3.1c0.4,0.7,0.7,1.4,1,2.1
				c0.1,0.1-0.2,0.5-0.4,0.5c-1.2,0.8-2.4,1.7-3.6,2.4C305.2,44,305,44.1,304.7,44.4z"/>
		</g>
		<g>
			<path class="st1" d="M137.2,41.8c-0.1-2.6-0.1-5.2,0-7.8l-42.5,0c-5.6,0-10.2,4.5-10.2,10.2c0,5.6,4.5,10.2,10.2,10.2l42.5,0
				V41.8z"/>
			<path class="st2" d="M102.8,41.9c1.5-1.1,2.9-2,4.4-3.1c0.5,0.7,0.8,1.4,1.4,2c-1.6,1.2-3.1,2.2-4.8,3.4c1,0.7,1.8,1.4,2.7,2
				c0.5,0.4,1,0.8,1.5,1.1c0.4,0.3,0.5,0.5,0.2,0.8c-0.3,0.4-0.5,0.7-0.6,1.1c-0.3,0.5-0.5,0.5-0.9,0.3c-1.2-0.8-2.2-1.6-3.4-2.4
				c-0.1-0.1-0.3-0.2-0.5-0.3c0,1.8,0,3.5,0,5.3c-0.8,0-1.5,0-2.3,0c0-1.7,0-3.4,0-5.3c-1.5,1.1-2.9,2.1-4.4,3.1
				c-0.5-0.8-0.8-1.5-1.2-2.3c1.5-1.1,3.1-2.2,4.7-3.3c-1.5-1.2-3.1-2.2-4.7-3.4c0.5-0.7,0.8-1.4,1.3-2.2c1.4,1,2.8,2,4.3,3.1
				c0-1,0-1.8,0-2.6c0-0.2,0-0.5,0-0.6c0-2,0.1-2.2,2.3-1.7C102.8,38.4,102.8,40.1,102.8,41.9z"/>
			<path class="st2" d="M120.9,44.2c-1.6-1.2-3.1-2.2-4.7-3.4c0.5-0.7,0.8-1.4,1.3-2.2c1.4,1,2.8,2,4.3,3.1c0-0.3,0.1-0.5,0.1-0.7
				c0-1.3,0-2.4,0-3.7c0-0.5,0.2-0.7,0.7-0.6c0.5,0.1,1,0,1.5,0c0,1.7,0,3.4,0,5.2c1.5-1.1,3-2,4.4-3.1c0.5,0.7,0.8,1.4,1.4,2
				c-1.5,1.2-3.2,2.2-4.8,3.4c1.6,1.2,3.2,2.3,4.7,3.4c-0.5,0.7-0.8,1.4-1.2,2.2c-1.5-1.1-2.9-2-4.4-3.2c0,1.8,0,3.6,0,5.3
				c-0.7,0-1.4,0-1.9,0c-0.5,0-0.5-0.3-0.5-0.5c0-1.4,0-2.7,0-4.1c0-0.3,0-0.5,0-0.8c-1.5,1.1-2.9,2-4.4,3.1c-0.4-0.7-0.7-1.4-1-2.1
				c-0.1-0.1,0.2-0.5,0.4-0.5c1.2-0.8,2.4-1.7,3.6-2.4C120.4,44.6,120.6,44.5,120.9,44.2z"/>
		</g>
		<g>
			<g>
				<path class="st2" d="M278.3,34.3c-0.9-3.5-3.6-5.3-7.1-5.9c-4.8-0.7-9.6-0.2-14.4-0.4c-0.9,0-0.8,0.5-0.8,1.1c0,9.5,0,19,0,28.5
					c0,0.4-0.3,0.9,0.4,0.9c0.5,0,0.3-0.5,0.3-0.8c0.2-1.5,2.4-2.7,3.4-1.7c1.2,1.1,2.5,1.5,3.9,2.5c0-3.8,0-7.5,0-11.1
					c0.1,0,0.2-0.1,0.4-0.1c0.2,0.3,0.4,0.5,0.5,0.8c1.4,2.3,2.8,4.5,4.3,6.7c0.2,0.4,0.4,0.7,0.8,0.7s0.3-0.5,0.4-0.8
					c0.1-0.4-0.3-1.1,0.3-1.1c0.7,0,0.3,0.7,0.5,1.2c0,0.2,0.1,0.3,0.1,0.5c0.4-0.1,0.2-0.7,0.9-0.5c-0.8,1.4,0.7,1.5,1.3,2.5
					c0-0.6,0-1.1,0-1.5c0-0.4,0-0.7,0.5-0.7s1-0.3,1.4,0.2c0.8,0.8,1.5,1.1,2.4,0.9c0.8-0.2,1.2-1.3,0.7-1.8
					c-2.1-2.7-4.2-5.4-6.3-8.2c1.3-0.5,2.4-0.8,3.4-1.5C278.9,41.9,279.3,38.3,278.3,34.3z M267.6,41.5c-3,1-3.5,0.5-3.5-2.4
					c0-0.4,0-0.6,0-1c0-0.6,0-1.2,0-1.8c0-2.3,0.2-2.4,2.4-2c1.4,0.3,2.7,0.5,3.4,1.9C271.2,38.3,270.2,40.7,267.6,41.5z"/>
				<path class="st2" d="M174.9,34.3c-1-3.5-3.6-5.3-7.1-5.9c-4.8-0.7-9.6-0.2-14.4-0.3c-1.1,0-0.7,0.8-0.7,1.3c0,9.3,0,18.8,0,28.1
					c0,0.5-0.3,1,0.4,1.3c0.5-0.1,0.3-0.5,0.4-0.6c0.2-1.7,2.1-2.9,3.4-1.8c1.2,1.1,2.6,1.6,4.2,2.7c0-4,0-7.6,0-11.3
					c1.7,2.3,3.2,4.6,4.6,7c0.3,0.5,0.5,1.2,1.1,1.1c0.8-0.1,0.3-0.9,0.5-1.4c0.1-0.3,0-0.5,0.4-0.7c0.5,0.6,0.2,1.4,0.4,2
					c0.5,0.2,0.1-1,0.9-0.6c-0.4,1.2,0.4,1.6,1.3,2c0.2-0.5-0.4-1.3,0.3-1.6c0.5-0.3,1.4-0.4,1.5,0.1c0.4,0.6,1.2,0.6,1.3,0.9
					c0.6,1.4,1.2-0.8,1.7,0.1c-0.3-0.7,1.1-1.1,0.2-2.1c-2.2-2.5-4.1-5.2-6.3-8c1.5-0.5,2.7-0.9,3.7-1.9
					C175.4,41.5,175.9,38.1,174.9,34.3z M163.6,41.7c-2.8,0.5-2.8,0.5-2.8-2.4c0-0.5,0-0.9,0-1.4c0-0.5,0-1.1,0-1.6
					c0-2.4,0.2-2.6,2.6-2.1c1.5,0.4,3,0.8,3.4,2.6C167.5,39.2,166.1,41.2,163.6,41.7z"/>
				<path class="st2" d="M293.9,52.7c-0.6,0-1.2,0-1.8,0c-4.3,0-4.3,0-4.1-4.3c0-0.9,0.4-1.1,1.2-1.1c1.3,0.1,2.5,0,3.8,0
					c2.9,0,2.9,0,2.9-3c0-3.8,0-3.8-3.7-3.8c-4.3,0-4.3,0-4.2-4.3c0-0.9,0.3-1.2,1.2-1.1c2,0.1,4,0,6,0c0.9,0,1.3-0.2,1.3-1.2
					c-0.1-1.4-0.1-2.9,0-4.3c0.1-1.2-0.4-1.4-1.4-1.4c-4.4,0.1-8.9,0.1-13.3,0c-1.3,0-1.5,0.4-1.5,1.6c0.1,9.1,0,18.1,0,27.3
					c0,0.3,0,0.5,0,0.8c0,0.5,0.2,0.8,0.8,0.8c0.5,0,0.9-0.1,0.8-0.7c-0.1-1.7,1.4-1.4,1.9-1c0.8,0.5,1,0.4,1.6-0.2
					c0.8-0.8,1.9-0.3,2.1,0.9c0,0.5-0.1,1,0.5,1c1.3,0,2.3-1.4,3.6-0.6c0-0.1,0.1-0.1,0.1-0.2c-0.2-1.1,0.5-1.1,1.3-1.1
					c0.4,0,0.6-0.2,0.6-0.6c0-0.6-0.1-1.3,0.9-1.4c1-0.2,1.6,0.1,2.1,1.1C296.7,52.7,296.7,52.7,293.9,52.7z"/>
				<path class="st2" d="M209.5,52.5c-1.7,0.2-3.5,0-5.3,0.1c-0.8,0-1.2-0.2-1.2-1.1c-0.2-4.3-0.2-4.3,4.1-4.3c0.2,0,0.5,0,0.6,0
					c3.2,0,3.2,0,3.2-3.2c0-3.6,0-3.6-3.7-3.6c-4.3,0-4.3,0-4.3-4.3c0-1.1,0.5-1.3,1.4-1.3c2,0.1,4,0,6,0c0.7,0,1-0.2,0.9-0.9
					c-0.1-1.4-0.1-3,0-4.4c0.1-1.1-0.3-1.4-1.4-1.4c-4.4,0.1-9,0.1-13.4,0c-1.2,0-1.4,0.4-1.4,1.4c0.1,6.8,0,13.6,0,20.4
					c0,2.4,0,4.9,0,7.3c0,0.5-0.2,1.2,0.7,1.2c0.6,0,1-0.1,1-0.9c0-1.5,1.6-0.9,1.7-0.7c0.6,1.1,1.2,0.3,1.4-0.1
					c0.6-0.7,1.4-0.4,2-0.4s0.4,0.7,0.5,1.1c0,1.4,1.3,1.1,1.5,0.6c0.5-0.7,1.3-0.6,1.7-0.5c1.5,0.5,0.9-0.9,1.2-1.4
					c0.5-0.6,1.4,0.9,1.4-0.5c0-0.6-0.1-1.3,0.9-1.2c0.8,0.1,1.8-0.3,1.7,1.3c0.2-0.1,0.3-0.2,0.5-0.3c0-0.5-0.1-0.8,0-1.3
					C211.6,52.9,211,52.4,209.5,52.5z"/>
				<path class="st2" d="M191.2,52.5c-1.9,0.2-3.8,0.1-5.6,0c-0.5,0-1.2,0.2-1.2-0.5c0-1.5-0.5-3.3,0.2-4.5c0.5-0.8,2.1-0.2,3.2-0.3
					c0.5,0,1,0,1.4,0c3.1,0,3.1,0,3.1-3c0-3.8,0-3.8-3.8-3.8c-4.2,0-4.1,0-4.1-4.2c0-1.2,0.4-1.4,1.5-1.4c1.8,0.1,3.6-0.1,5.4,0.1
					c1.2,0.1,1.5-0.4,1.4-1.4c-0.1-1.4-0.1-2.6,0-4c0.1-1-0.3-1.4-1.3-1.3c-4.5,0.1-9.1,0.1-13.6,0c-1.2,0-1.4,0.5-1.4,1.4
					c0,9.1,0,18.4,0,27.5c0,0.2,0,0.5,0,0.6c0,0.5,0.2,0.7,0.6,0.7s0.9,0.1,0.9-0.6c0-1.9,1.4-1.2,2-0.9c0.6,0.4,0.9,0.2,1.3-0.1
					c1.3-0.9,2-0.5,2.3,0.8c0,0.3,0,0.7,0.3,0.7c1.4-0.3,2.8-0.4,4-1.1c0.4-0.3,0.7-0.8,1.4-0.8c0.4,0,0.7-0.1,0.6-0.5
					c-0.1-0.9,0.3-1.4,1.1-1.4c0.9-0.1,1.4,0.4,1.9,1.2c0-0.5-0.1-0.9,0-1.3C193.2,52.9,192.7,52.4,191.2,52.5z"/>
				<path class="st2" d="M236.8,29.1c0-0.8-0.3-1-1-1c-5.2,0-10.3,0-15.5,0c-0.8,0-1.1,0.3-1.1,1.1c0,7.4,0,14.9,0,22.3
					c0,0.7,0.1,1,0.9,1.2c0.9,0.2,2.1,0.5,2.1,1.8c0,0.8-0.2,1.7,1.2,1.5c0.6-0.1,0.5,0.6,0.5,1c0.1,0.9-0.2,1.8,0.2,2.8
					c1-1.5,1.4-1.5,2.2-0.3c1.1-2.8,0.8-5.7,0.8-8.6c0-3.5,0-3.5,3.5-3.5c1.6,0,3.9,0.7,4.7-0.3c0.8-1,0.2-3.2,0.3-4.8
					c0.1-1.1-0.2-1.6-1.4-1.4c-1.1,0.1-2.2,0-3.4,0c-4,0-4,0-3.8-4.1c0-0.9,0.3-1.1,1.2-1.1c2.4,0.1,4.9,0,7.3,0
					c0.8,0,1.1-0.2,1.1-1C236.8,32.6,236.8,30.8,236.8,29.1z"/>
				<path class="st2" d="M151.4,29.2c0-0.8-0.2-1.2-1.1-1.2c-5.2,0.1-10.3,0-15.5,0c-0.7,0-1.1,0.1-1.1,1c0,7.5,0,15,0,22.6
					c0,0.3-0.2,0.7,0.4,0.7c2.1,0.1,2.8,1.4,2.6,3.4c1.9-0.5,2-0.5,2,1.3c0,0.7-0.2,1.5,0.3,2.6c0.7-2,1.4-1.3,2.1,0
					c0.3-2.4,0.8-4.4,0.6-6.6c-0.1-1.5,0.1-3.1,0-4.6c0-0.9,0.3-1.3,1.2-1.3c1.9,0.1,3.8-0.1,5.6,0.1c1.4,0.1,2-0.3,1.8-1.8
					c-0.2-1.5,0.7-3.7-0.4-4.6c-0.9-0.8-3-0.3-4.5-0.3c-4,0-3.9,0-3.8-4c0-1,0.4-1.2,1.3-1.2c2.4,0.1,4.6,0,7,0
					c0.9,0,1.4-0.1,1.4-1.3C151.3,32.5,151.3,30.8,151.4,29.2z"/>
				<path class="st2" d="M251.2,46.6c-0.4-0.7-1-0.4-1.5-0.5c0-0.6-0.1-1.2-0.1-1.8c0-5.3-0.1-10.5-0.1-15.7
					c0.1-0.7,0.2-1.5-0.5-2.1c0-0.2-0.1-0.5-0.1-0.6c0.3-1-0.1-1.9-0.6-2.6v-0.1c-0.6-1-0.9-0.4-1.3,0.2c-0.5,0.5-1,1-1.4,1.5
					c-0.1,0.1-0.2,0.3-0.3,0.4l0,0c-0.1,0.2-0.2,0.3-0.3,0.5c0,0.1,0,0.2-0.1,0.2c-0.9,0.3-1,1.1-1.3,1.8c-0.8,1.8-0.6,3.8-0.7,5.7
					c-0.1,1.4,0.2,2.4,1.3,3.2c-0.1,0.1-0.3,0.2-0.4,0.4c-0.4,0.2-0.9,0.3-0.7,0.9c0.2,0.5,0.5,0.5,1,0.3c0.7-0.4,0.3,0.4,0.5,0.5
					c-0.1,0.1-0.3,0.2-0.4,0.3c-0.3,0-0.5,0.1-0.6,0.5c0,0.1-0.1,0.2-0.2,0.3c-0.2,0.3-0.2,0.5,0.2,0.6c0.3,0.1,0.5-0.1,0.6-0.4l0,0
					c0.4,0.3,0.4,0.7,0.5,1.2l0,0c-0.4,0-0.5,0.1-0.6,0.5c0,0.1-0.1,0.1-0.2,0.2c-0.8,0.9-0.8,0.9,0.2,1.1c0.5,0.1,0.5,0.4,0.5,0.6
					c-0.1,0.1-0.3,0.2-0.4,0.3c-0.1,0.1-0.3,0.2-0.4,0.3l0,0c-0.7,0.2-0.9,0.6-0.4,1.2c0.2,0.3,1-0.5,0.9,0.4
					c-0.1,0.5-0.7,0.7-1.4,0.8c-0.5,0-1.3-0.3-1.5,0.5l0,0c-0.1,0.1-0.3,0.2-0.4,0.2c0.1,0.1,0.2,0.1,0.3,0.2c0,0.2,0,0.5,0,0.6
					c-0.2,0.3-0.2,0.5,0.2,0.6c0.3,0.4,0.6,0.6,0.9,1c0,0.3,0.1,0.5,0.5,0.5l0,0c0,2.4-0.1,4.8-0.1,7.2c0,0.6,0.1,1.1,0.8,1.2
					c-0.1-0.2-0.2-0.4-0.3-0.6c0.1,0.2,0.1,0.5,0.3,0.6c0.1,0.3,0.1,0.5,0.2,0.7c0.5,0,0.7-0.2,0.7-0.7c0-0.5,0.1-1.1,0.7-1
					c0.7,0.1,0.5,0.8,0.5,1.4c0,0.2-0.1,0.3-0.1,0.5c0,0.5,0,1,0.1,1.4c0.5,0.7,0.1,1.5,0.4,2.3c0.2-0.1,0.3-0.2,0.5-0.4
					c0-0.2,0-0.5,0-0.6c0-0.6,0-1.3,0.1-1.9c0.5-0.2,1.4,0.8,1.8-0.5c0.3-0.4,0.6-0.6,0.9-1c0-0.1,0-0.2,0.1-0.3
					c0-2.5,0.1-5.1,0.1-7.6c0.5-0.2,0.5-0.6,0.5-1.1l0,0c0.1-0.1,0.2-0.3,0.4-0.4c0.1-0.1,0.2-0.2,0.3-0.3c0.2,0,0.4-0.2,0.4-0.4
					c0.1-0.1,0.2-0.2,0.3-0.4c0.2,0,0.4,0,0.2-0.3C251.5,47.5,251.6,46.9,251.2,46.6z"/>
			</g>
		</g>
	</g>
</g>
</svg>
