<?xml version="1.0" encoding="utf-8"?>
<!-- Generator: Adobe Illustrator 25.0.1, SVG Export Plug-In . SVG Version: 6.00 Build 0)  -->
<svg version="1.1" id="Layer_1" xmlns="http://www.w3.org/2000/svg" xmlns:xlink="http://www.w3.org/1999/xlink" x="0px" y="0px"
	 viewBox="0 0 425.2 85" style="enable-background:new 0 0 425.2 85;" xml:space="preserve">
<style type="text/css">
	.st0{fill:url(#SVGID_1_);}
	.st1{fill:#FFFFFF;}
</style>
<g>
	<linearGradient id="SVGID_1_" gradientUnits="userSpaceOnUse" x1="42.7899" y1="129.4382" x2="404.2974" y2="-54.8164">
		<stop  offset="0" style="stop-color:#EF7841"/>
		<stop  offset="1" style="stop-color:#F0A10B"/>
	</linearGradient>
	<path class="st0" d="M28.8,79.3h367.9c10.4,0,18.9-8.5,18.9-18.9V25.2c0-10.4-8.5-18.9-18.9-18.9H28.8c-10.4,0-18.9,8.5-18.9,18.9
		v35.2C9.9,70.8,18.4,79.3,28.8,79.3z"/>
	<g>
		<g>
			<path class="st1" d="M116.8,42.7c-3.6-1.7-6.8-1.6-10.1,0.7c-0.1-1-0.1-1.6-0.1-2.3c0-6.4,0-12.8,0-19.2c0-4.3,1.9-6.2,6.3-6.2
				c13.5,0,27,0,40.4,0c4.4,0,6.2,1.8,6.2,6.2c0,13.4,0,26.8,0,40.2c0,4.2-1.9,6.1-6.2,6.2c-13.5,0-27.1,0-40.6,0
				c-5.8,0-6.7-4.3-6-8.4c0.3-1.7,1.7-2,3.3-2c7.2,0,14.4,0,21.7,0c3.7,0,7.5,0,11.2,0c3.9-0.1,6.1-2.2,6.2-6
				c0.1-6.6,0.1-13.2,0-19.8c0-3.7-2.1-6-5.8-6c-6.8-0.1-13.6-0.1-20.5,0c-3.5,0.1-5.6,2.2-5.8,5.8c-0.1,2.6-0.1,5.3-0.1,7.9
				C116.9,40.6,116.8,41.4,116.8,42.7z"/>
			<path class="st1" d="M133,34.2c1,0,2.1-0.1,3.1,0c2.5,0.3,4.5,2.1,4.6,4.6c0.1,2.1,0.1,4.2,0,6.2c-0.1,2.5-2.1,4.4-4.6,4.6
				c-2.1,0.1-4.2,0.1-6.2,0c-2.7-0.2-4.6-2.2-4.7-4.9c-0.1-1.8-0.1-3.6,0-5.4c0.1-3,2-5,5.1-5.2C131.2,34.2,132.1,34.2,133,34.2
				L133,34.2z"/>
			<path class="st1" d="M112.1,55.1c-3.1,0-5.6-2.4-5.6-5.6c0.1-3.1,2.5-5.5,5.7-5.4c3,0.1,5.4,2.4,5.4,5.4
				C117.6,52.7,115.2,55.1,112.1,55.1z"/>
		</g>
		<g>
			<path class="st1" d="M194.1,50.1V54h-6.7v-8.2c0-0.4-0.1-0.8-0.2-1.2c-0.2-0.4-0.4-0.7-0.6-1s-0.6-0.5-1-0.7s-0.8-0.2-1.2-0.2
				s-0.8,0.1-1.2,0.2s-0.7,0.4-1,0.7s-0.5,0.6-0.6,1c-0.2,0.4-0.2,0.8-0.2,1.2V49c0,0.3,0.1,0.6,0.3,0.8s0.5,0.3,0.8,0.3h2.3V54
				h-2.3c-0.7,0-1.3-0.1-2-0.4s-1.1-0.6-1.6-1.1c-0.5-0.5-0.8-1-1.1-1.6c-0.3-0.6-0.4-1.3-0.4-2v-3.1c0-1,0.2-1.9,0.5-2.7
				c0.4-0.9,0.9-1.6,1.5-2.2s1.4-1.1,2.2-1.5c0.8-0.4,1.7-0.6,2.7-0.6c0.9,0,1.8,0.2,2.7,0.6c0.8,0.4,1.6,0.9,2.2,1.5
				c0.6,0.6,1.1,1.4,1.5,2.2c0.4,0.8,0.5,1.7,0.5,2.7v4.3H194.1z M180.1,35.4c0-0.3,0.1-0.5,0.2-0.8c0.1-0.2,0.2-0.4,0.4-0.6
				c0.2-0.2,0.4-0.3,0.6-0.4c0.2-0.1,0.5-0.2,0.8-0.2c0.3,0,0.5,0.1,0.8,0.2c0.2,0.1,0.4,0.2,0.6,0.4c0.2,0.2,0.3,0.4,0.4,0.6
				c0.1,0.2,0.2,0.5,0.2,0.8c0,0.3-0.1,0.5-0.2,0.8c-0.1,0.2-0.2,0.4-0.4,0.6c-0.2,0.2-0.4,0.3-0.6,0.4c-0.2,0.1-0.5,0.2-0.8,0.2
				c-0.3,0-0.5-0.1-0.8-0.2c-0.2-0.1-0.4-0.2-0.6-0.4c-0.2-0.2-0.3-0.4-0.4-0.6C180.1,35.9,180.1,35.7,180.1,35.4z M184.7,35.4
				c0-0.3,0.1-0.5,0.2-0.8c0.1-0.2,0.2-0.4,0.4-0.6c0.2-0.2,0.4-0.3,0.6-0.4s0.5-0.2,0.8-0.2s0.5,0.1,0.8,0.2
				c0.2,0.1,0.4,0.2,0.6,0.4c0.2,0.2,0.3,0.4,0.4,0.6c0.1,0.2,0.2,0.5,0.2,0.8c0,0.3-0.1,0.5-0.2,0.8c-0.1,0.2-0.2,0.4-0.4,0.6
				c-0.2,0.2-0.4,0.3-0.6,0.4c-0.2,0.1-0.5,0.2-0.8,0.2s-0.5-0.1-0.8-0.2c-0.2-0.1-0.4-0.2-0.6-0.4c-0.2-0.2-0.3-0.4-0.4-0.6
				C184.8,35.9,184.7,35.7,184.7,35.4z"/>
			<path class="st1" d="M192.8,57.5c0-0.3,0.1-0.5,0.2-0.8c0.1-0.2,0.2-0.4,0.4-0.6s0.4-0.3,0.6-0.4s0.5-0.2,0.8-0.2
				c0.3,0,0.5,0.1,0.8,0.2c0.2,0.1,0.4,0.2,0.6,0.4s0.3,0.4,0.4,0.6c0.1,0.2,0.2,0.5,0.2,0.8s-0.1,0.5-0.2,0.8
				c-0.1,0.2-0.2,0.4-0.4,0.6c-0.2,0.2-0.4,0.3-0.6,0.4c-0.2,0.1-0.5,0.2-0.8,0.2c-0.3,0-0.5-0.1-0.8-0.2s-0.4-0.2-0.6-0.4
				c-0.2-0.2-0.3-0.4-0.4-0.6S192.8,57.8,192.8,57.5z M201.5,38.8v10.1c0,0.7-0.1,1.4-0.4,2s-0.6,1.2-1.1,1.6
				c-0.5,0.5-1,0.8-1.6,1.1s-1.3,0.4-2,0.4h-3.6v-3.9h3.6c0.3,0,0.6-0.1,0.8-0.3c0.2-0.2,0.3-0.5,0.3-0.8V38.8H201.5z M197.5,57.5
				c0-0.3,0.1-0.5,0.2-0.8c0.1-0.2,0.2-0.4,0.4-0.6c0.2-0.2,0.4-0.3,0.6-0.4s0.5-0.2,0.8-0.2s0.5,0.1,0.8,0.2s0.4,0.2,0.6,0.4
				c0.2,0.2,0.3,0.4,0.4,0.6c0.1,0.2,0.2,0.5,0.2,0.8s-0.1,0.5-0.2,0.8c-0.1,0.2-0.2,0.4-0.4,0.6c-0.2,0.2-0.4,0.3-0.6,0.4
				s-0.5,0.2-0.8,0.2s-0.5-0.1-0.8-0.2s-0.4-0.2-0.6-0.4c-0.2-0.2-0.3-0.4-0.4-0.6C197.6,58,197.5,57.8,197.5,57.5z"/>
			<path class="st1" d="M205.5,38.8c1.9,0,3.5,0.2,4.8,0.5c1.3,0.3,2.4,0.8,3.3,1.4c0.8,0.6,1.5,1.3,1.9,2.2c0.4,0.9,0.6,1.9,0.6,3
				v4.2h2.8V54h-14.1v-3.9h7.4v-4.2c0-0.5-0.1-1-0.4-1.4s-0.6-0.7-1.2-1s-1.2-0.5-2.1-0.6c-0.8-0.1-1.8-0.2-3-0.2V38.8z"/>
			<path class="st1" d="M220.4,47.7c0-0.6,0.1-1.2,0.3-1.7c0.2-0.5,0.4-1,0.8-1.5c0.3-0.4,0.7-0.8,1.1-1.1c0.4-0.3,0.9-0.5,1.5-0.7
				c0.3-0.6,0.8-1.1,1.3-1.6c0.5-0.5,1.2-0.9,1.8-1.2c0.7-0.3,1.4-0.6,2.1-0.8c0.7-0.2,1.5-0.3,2.2-0.3c0.9,0,1.8,0.1,2.7,0.4
				c0.9,0.3,1.6,0.7,2.3,1.3c0.7,0.6,1.2,1.3,1.6,2.2c0.4,0.9,0.6,2,0.6,3.3v3c0,0.7-0.1,1.3-0.4,2c-0.3,0.6-0.6,1.1-1.1,1.6
				c-0.5,0.5-1,0.8-1.6,1.1c-0.6,0.3-1.3,0.4-2,0.4h-16v-3.9h2.8V47.7z M224.3,50.1h2.3v-2.4c0-0.2,0-0.4-0.1-0.5
				c-0.1-0.2-0.1-0.3-0.2-0.4c-0.1-0.1-0.2-0.2-0.4-0.3c-0.1-0.1-0.3-0.1-0.5-0.1c-0.3,0-0.6,0.1-0.8,0.4c-0.2,0.3-0.3,0.6-0.3,1
				V50.1z M230.5,50.1h3.1c0.3,0,0.6-0.1,0.9-0.3s0.4-0.5,0.4-0.8v-3c0-0.6-0.1-1.1-0.3-1.5c-0.2-0.4-0.4-0.7-0.7-1
				c-0.3-0.3-0.6-0.5-1-0.6s-0.8-0.2-1.2-0.2c-0.5,0-1.1,0.1-1.6,0.2c-0.5,0.1-1,0.3-1.4,0.6c0.6,0.5,1.1,1.1,1.5,1.8
				c0.4,0.7,0.6,1.5,0.5,2.3V50.1z"/>
			<path class="st1" d="M250.7,41.4v11c0,0.4,0.1,0.8,0.2,1.2c0.2,0.4,0.4,0.7,0.7,1c0.3,0.3,0.6,0.5,1,0.7c0.4,0.2,0.8,0.2,1.2,0.2
				h5.4c0.6,0,1.1-0.1,1.5-0.4c0.5-0.3,0.8-0.6,1.1-1.1h-4.5c-0.7,0-1.3-0.1-2-0.4s-1.2-0.6-1.6-1.1c-0.5-0.5-0.8-1-1.1-1.6
				s-0.4-1.3-0.4-2v-3.1c0-1,0.2-1.9,0.5-2.7s0.9-1.6,1.5-2.2c0.6-0.6,1.4-1.1,2.2-1.5c0.8-0.4,1.7-0.6,2.7-0.6
				c0.9,0,1.8,0.2,2.7,0.6c0.8,0.4,1.6,0.9,2.2,1.5c0.6,0.6,1.1,1.4,1.5,2.2c0.4,0.8,0.5,1.7,0.5,2.7v4.3h2.8V54h-3
				c-0.2,0.8-0.5,1.5-0.9,2.1s-0.9,1.2-1.5,1.7s-1.3,0.9-2,1.2c-0.7,0.3-1.5,0.4-2.3,0.4h-5.4c-1,0-1.9-0.2-2.7-0.6
				s-1.6-0.9-2.2-1.5s-1.1-1.4-1.5-2.2s-0.6-1.8-0.6-2.7v-11H250.7z M254.9,35.4c0-0.3,0.1-0.5,0.2-0.8c0.1-0.2,0.2-0.4,0.4-0.6
				c0.2-0.2,0.4-0.3,0.6-0.4s0.5-0.2,0.8-0.2s0.5,0.1,0.8,0.2s0.4,0.2,0.6,0.4c0.2,0.2,0.3,0.4,0.4,0.6c0.1,0.2,0.2,0.5,0.2,0.8
				c0,0.3-0.1,0.5-0.2,0.8c-0.1,0.2-0.2,0.4-0.4,0.6c-0.2,0.2-0.4,0.3-0.6,0.4c-0.2,0.1-0.5,0.2-0.8,0.2s-0.5-0.1-0.8-0.2
				c-0.2-0.1-0.4-0.2-0.6-0.4c-0.2-0.2-0.3-0.4-0.4-0.6C255,35.9,254.9,35.7,254.9,35.4z M262.3,50.1v-4.3c0-0.4-0.1-0.8-0.2-1.2
				c-0.2-0.4-0.4-0.7-0.6-1s-0.6-0.5-1-0.7s-0.8-0.2-1.2-0.2c-0.4,0-0.8,0.1-1.2,0.2s-0.7,0.4-1,0.7s-0.5,0.6-0.6,1
				c-0.2,0.4-0.2,0.8-0.2,1.2V49c0,0.3,0.1,0.6,0.3,0.8s0.5,0.3,0.8,0.3H262.3z M259.6,35.4c0-0.3,0.1-0.5,0.2-0.8
				c0.1-0.2,0.2-0.4,0.4-0.6c0.2-0.2,0.4-0.3,0.6-0.4c0.2-0.1,0.5-0.2,0.8-0.2s0.5,0.1,0.8,0.2s0.4,0.2,0.6,0.4
				c0.2,0.2,0.3,0.4,0.4,0.6c0.1,0.2,0.2,0.5,0.2,0.8c0,0.3-0.1,0.5-0.2,0.8c-0.1,0.2-0.2,0.4-0.4,0.6c-0.2,0.2-0.4,0.3-0.6,0.4
				c-0.2,0.1-0.5,0.2-0.8,0.2s-0.5-0.1-0.8-0.2c-0.2-0.1-0.4-0.2-0.6-0.4c-0.2-0.2-0.3-0.4-0.4-0.6
				C259.7,35.9,259.6,35.7,259.6,35.4z"/>
			<path class="st1" d="M267.7,57.5c0-0.3,0.1-0.5,0.2-0.8c0.1-0.2,0.2-0.4,0.4-0.6s0.4-0.3,0.6-0.4s0.5-0.2,0.8-0.2
				c0.3,0,0.5,0.1,0.8,0.2c0.2,0.1,0.4,0.2,0.6,0.4s0.3,0.4,0.4,0.6c0.1,0.2,0.2,0.5,0.2,0.8s-0.1,0.5-0.2,0.8
				c-0.1,0.2-0.2,0.4-0.4,0.6c-0.2,0.2-0.4,0.3-0.6,0.4c-0.2,0.1-0.5,0.2-0.8,0.2c-0.3,0-0.5-0.1-0.8-0.2s-0.4-0.2-0.6-0.4
				c-0.2-0.2-0.3-0.4-0.4-0.6S267.7,57.8,267.7,57.5z M276.4,38.8v11.3h2.8V54h-11.4v-3.9h4.7V38.8H276.4z M272.4,57.5
				c0-0.3,0.1-0.5,0.2-0.8c0.1-0.2,0.2-0.4,0.4-0.6c0.2-0.2,0.4-0.3,0.6-0.4s0.5-0.2,0.8-0.2s0.5,0.1,0.8,0.2s0.4,0.2,0.6,0.4
				c0.2,0.2,0.3,0.4,0.4,0.6c0.1,0.2,0.2,0.5,0.2,0.8s-0.1,0.5-0.2,0.8c-0.1,0.2-0.2,0.4-0.4,0.6c-0.2,0.2-0.4,0.3-0.6,0.4
				s-0.5,0.2-0.8,0.2s-0.5-0.1-0.8-0.2s-0.4-0.2-0.6-0.4c-0.2-0.2-0.3-0.4-0.4-0.6C272.5,58,272.4,57.8,272.4,57.5z"/>
			<path class="st1" d="M286.5,38.8v11.3h2.8V54h-11.4v-3.9h4.7V38.8H286.5z M281.5,57.4c0-0.3,0.1-0.5,0.2-0.8
				c0.1-0.2,0.2-0.4,0.4-0.6s0.4-0.3,0.6-0.4s0.5-0.2,0.8-0.2s0.5,0.1,0.8,0.2s0.4,0.2,0.6,0.4c0.2,0.2,0.3,0.4,0.4,0.6
				c0.1,0.2,0.2,0.5,0.2,0.8s-0.1,0.5-0.2,0.8c-0.1,0.2-0.2,0.4-0.4,0.6c-0.2,0.2-0.4,0.3-0.6,0.4c-0.2,0.1-0.5,0.2-0.8,0.2
				s-0.5-0.1-0.8-0.2c-0.2-0.1-0.4-0.2-0.6-0.4c-0.2-0.2-0.3-0.4-0.4-0.6C281.6,58,281.5,57.7,281.5,57.4z"/>
			<path class="st1" d="M294.8,33.4v7.3c0.9-0.6,1.9-1,2.9-1.4c1-0.3,2.1-0.5,3.1-0.5c0.9,0,1.7,0.1,2.5,0.4
				c0.8,0.3,1.5,0.7,2.1,1.2c0.6,0.6,1.1,1.3,1.4,2.2c0.3,0.9,0.5,2,0.5,3.3v4.2h2.8V54h-22v-3.9h2.8V33.4H294.8z M300.8,42.7
				c-0.4,0-0.9,0-1.4,0.1c-0.5,0.1-0.9,0.2-1.4,0.4c-0.4,0.2-0.9,0.4-1.3,0.6c-0.4,0.2-0.7,0.5-1,0.8c-0.3,0.3-0.5,0.6-0.7,0.9
				c-0.2,0.3-0.3,0.6-0.3,0.9v3.7h8.6v-4.2c0-0.6-0.1-1.1-0.2-1.5c-0.1-0.4-0.3-0.7-0.6-1c-0.2-0.3-0.5-0.4-0.8-0.6
				C301.5,42.8,301.2,42.7,300.8,42.7z"/>
			<path class="st1" d="M317.5,38.8v10.1c0,0.7-0.1,1.4-0.4,2s-0.6,1.2-1.1,1.6c-0.5,0.5-1,0.8-1.6,1.1c-0.6,0.3-1.3,0.4-2,0.4h-3.6
				v-3.9h3.6c0.3,0,0.6-0.1,0.8-0.3c0.2-0.2,0.3-0.5,0.3-0.8V38.8H317.5z M308.9,35.4c0-0.3,0.1-0.5,0.2-0.8
				c0.1-0.2,0.2-0.4,0.4-0.6c0.2-0.2,0.4-0.3,0.6-0.4s0.5-0.2,0.8-0.2s0.5,0.1,0.8,0.2s0.4,0.2,0.6,0.4c0.2,0.2,0.3,0.4,0.4,0.6
				c0.1,0.2,0.2,0.5,0.2,0.8c0,0.3-0.1,0.5-0.2,0.8c-0.1,0.2-0.2,0.4-0.4,0.6c-0.2,0.2-0.4,0.3-0.6,0.4c-0.2,0.1-0.5,0.2-0.8,0.2
				s-0.5-0.1-0.8-0.2c-0.2-0.1-0.4-0.2-0.6-0.4c-0.2-0.2-0.3-0.4-0.4-0.6C308.9,35.9,308.9,35.7,308.9,35.4z M313.6,35.4
				c0-0.3,0.1-0.5,0.2-0.8c0.1-0.2,0.2-0.4,0.4-0.6c0.2-0.2,0.4-0.3,0.6-0.4c0.2-0.1,0.5-0.2,0.8-0.2c0.3,0,0.5,0.1,0.8,0.2
				c0.2,0.1,0.4,0.2,0.6,0.4c0.2,0.2,0.3,0.4,0.4,0.6c0.1,0.2,0.2,0.5,0.2,0.8c0,0.3-0.1,0.5-0.2,0.8c-0.1,0.2-0.2,0.4-0.4,0.6
				c-0.2,0.2-0.4,0.3-0.6,0.4c-0.2,0.1-0.5,0.2-0.8,0.2c-0.3,0-0.5-0.1-0.8-0.2c-0.2-0.1-0.4-0.2-0.6-0.4c-0.2-0.2-0.3-0.4-0.4-0.6
				C313.6,35.9,313.6,35.7,313.6,35.4z"/>
		</g>
	</g>
</g>
</svg>
