<?xml version="1.0" encoding="utf-8"?>
<!-- Generator: Adobe Illustrator 25.0.1, SVG Export Plug-In . SVG Version: 6.00 Build 0)  -->
<svg version="1.1" id="Layer_1" xmlns="http://www.w3.org/2000/svg" xmlns:xlink="http://www.w3.org/1999/xlink" x="0px" y="0px"
	 viewBox="0 0 425.2 85" style="enable-background:new 0 0 425.2 85;" xml:space="preserve">
<style type="text/css">
	.st0{fill:url(#SVGID_1_);}
	.st1{fill:#FFFFFF;}
</style>
<g>
	<linearGradient id="SVGID_1_" gradientUnits="userSpaceOnUse" x1="42.2107" y1="129.5954" x2="403.7182" y2="-54.6592">
		<stop  offset="0" style="stop-color:#EF7841"/>
		<stop  offset="1" style="stop-color:#F0A10B"/>
	</linearGradient>
	<path class="st0" d="M28.2,79.4h367.9c10.4,0,18.9-8.5,18.9-18.9V25.4c0-10.4-8.5-18.9-18.9-18.9H28.2c-10.4,0-18.9,8.5-18.9,18.9
		v35.2C9.3,71,17.8,79.4,28.2,79.4z"/>
	<g>
		<g>
			<path class="st1" d="M166.4,25c0-2.4,0.1-4.6,0-6.8c-0.1-2.8,0.8-3.9,3.7-3.9c8.8,0.1,17.7,0.2,26.5,0.3c2.8,0,5.7,0,8.5,0
				c4.8,0,9.6,0,14.3,0c7.3,0,14.7-0.2,22-0.1c4.5,0,9.1,0.3,13.6,0.5c1.7,0.1,2.6,1.3,2.6,3.6c0,1.8,0.1,3.5,0.1,5.3
				c0,1,0.3,1.2,1.4,1.1c0.9-0.1,2.6,0,2.7,0.4c0.5,1.3,0.5,2.8,0.5,4.1c0,0.3-1,0.8-1.6,0.9c-0.9,0.2-1.8,0-2.7,0
				c0,8.3,0,16.5,0,24.9c1,0,1.9,0,2.8,0c1.3,0,1.8,0.7,1.8,1.9c0,0.1,0,0.2,0,0.3c0.2,3.8-1.2,3.5-4.2,3.2
				c-0.1,0.5-0.1,0.9-0.1,1.4c0,1.9,0.1,3.9,0,5.8c-0.1,2.1-1,3-3.2,3.1c-3.1,0.1-6.3,0.1-9.4,0.1c-5.1,0-10.2,0.1-15.4-0.1
				c-4.2-0.2-8.4,0.3-12.6,0.2c-4.3-0.2-8.7-0.2-13-0.1c-7.5,0.1-15,0.3-22.5,0.3c-4.2,0-8.4-0.2-12.6-0.3c-2.2-0.1-3.2-1.2-3.2-3.4
				c0-2.1,0-4.3,0-6.6c-0.8,0-1.5,0-2.2,0c-1.6,0-2.1-0.5-2.1-2c0-0.2,0-0.3,0-0.5c0-3.1,0-3,3.2-3.4c0.4-0.1,1-0.6,1-0.9
				c0.1-7.8,0.1-15.6,0.1-23.3c0-0.1-0.1-0.2,0-0.1c-1.5-0.4-3-0.5-4-1.3c-0.6-0.4-0.3-2-0.3-3.1C162.2,25,163.2,24.6,166.4,25z
				 M252.1,65.8c0-15.3,0-30.3,0-45.6c-26.8,0-53.3,0-80.1,0c0.3,15,0.1,30.2,0.1,45.6C199,65.8,225.6,65.8,252.1,65.8z"/>
			<path class="st1" d="M227.6,42c1.1,0.9,1.5,2.4,1.5,4c-0.2,3.6,0,7.3-0.1,11c0,1.9-1.1,3.1-3.2,3.2c-3.3,0.1-6.7,0-10.4,0
				c0-4.7,0-9.4,0-14.2c0-0.7-0.3-1.3-0.5-1.9c-0.4-1.7-0.9-3.4,0.4-4.9c0.2-0.2,0.3-0.5,0.3-0.8c-0.1-3.9-0.1-7.8-0.3-11.5
				c-0.1-1.2,0.3-1.5,1.5-1.5c3.2,0.1,6.4,0,9.6,0.1c1.7,0,2.4,0.7,2.5,2.4c0.1,3.5,0.1,7.1-0.1,10.6
				C228.7,39.6,228.1,40.6,227.6,42z M223.5,44.8c-2.8-0.5-2.8-0.4-2.9,1.9c-0.1,2.7-0.1,5.3-0.3,8c0,1,0.5,1.2,1.3,1.1
				c0.6-0.1,1.8,0.7,1.8-0.8C223.5,51.6,223.5,48.2,223.5,44.8z M223.4,34.5C223.5,34.5,223.5,34.5,223.4,34.5c0-1.2,0.1-2.3,0-3.5
				c-0.1-0.3-0.7-0.9-1-0.9c-0.6,0-1.6,0.4-1.6,0.7c-0.2,2.6-0.2,5.3,0,7.9c0,0.3,1.2,0.7,1.9,0.8c0.2,0,0.7-0.8,0.8-1.2
				C223.5,37.1,223.4,35.8,223.4,34.5z"/>
			<path class="st1" d="M205.6,55.7c0.1-0.5,0.3-1.1,0.3-1.6c0-7.8,0-15.8,0-23.6c0-0.9,0-1.9,0-2.9c0-1.3,0.6-1.9,2-1.9
				c0.3,0,0.8,0.1,1.1,0.1c2.1,0.1,2.4,0.3,2.4,2.4c0,8.3,0,16.5-0.1,24.7c0,1.4,0,2.9-0.1,4.2c-0.1,2.2-1.1,3.1-3.3,3.1
				c-2.6,0-5.2,0-7.8,0.1c-2.7,0.1-3.8-0.8-3.8-3.5c0-8.3,0.2-16.7,0.2-24.9c0-1.7,0.1-3.5,0-5.1c0-0.9,0.1-1.3,1.3-1.3
				c4.2,0.3,4.1,0.3,4.2,4.5c0,4.6,0.2,9.2,0.1,13.8c0,3.4-0.2,6.7-0.3,10c0,1.1,0,1.9,1.5,1.4C204,55.1,204.7,55.5,205.6,55.7z"/>
			<path class="st1" d="M242,34c-0.1-0.8-0.3-1.3-0.2-1.9c0.2-1.7-0.4-2.2-2.1-2c-1.4,0.1-1.7,0.3-1.7,1.8c0.2,6.7,0.2,13.3,0.3,20
				c0,1.2,0,2.3,0,3.6c0.6,0.1,1.4,0.1,2.1,0.3c0.9,0.1,1.3-0.3,1.3-1.2c-0.1-3-0.2-6.1-0.3-9.1c0-0.3,0-0.7-0.1-0.8
				c-2-1.4-0.9-3.3-0.9-5.3c1.9,0,3.7-0.1,5.5,0.1c0.3,0,0.9,1,0.9,1.5c0.1,4,0,7.8,0,11.8c0,1.4,0,2.9,0,4.2c0,2.4-1.2,3.5-3.5,3.5
				c-2.4,0-4.9,0-7.3-0.1c-1.9,0-3.2-1.1-3.2-3c-0.1-4,0-7.8,0-11.8c0-4.1-0.1-8.3-0.1-12.5c0-1.7,0-3.5,0.2-5.1
				c0.2-1.6,1.3-2.5,2.9-2.5c2.7,0,5.3-0.1,8,0c2.2,0.1,2.9,0.9,2.8,3c-0.1,1.4-0.1,2.9,0,4.2c0,1-0.4,1.3-1.3,1.3
				C244,33.9,243,34,242,34z"/>
			<path class="st1" d="M184,46.3c0.1,1.5,0.2,2.7,0.2,3.9c0.1,2.8,0.1,5.6,0.1,8.4c0,1.3-0.5,1.9-2,1.9c-3.7,0.1-3.9,0-3.9-3.7
				c0-3.4,0.2-6.7,0.2-10c0-0.2,0-0.4-0.1-0.6c-1.5-1.8-0.9-3.5-0.3-5.4c0.1-0.3,0.2-0.6,0.2-0.9c0.2-1.9,0.5-3.7,0.5-5.6
				c0-1.3-0.3-2.7-0.4-4c-0.1-1.3-0.1-2.5-0.1-3.8c0-0.8,0.3-1.2,1.3-1.2c3.4,0.1,7,0.1,10.4,0.2c2,0,2.6,0.6,2.6,2.5
				c0,5.1,0,10.2,0,15.2c0,1.9-0.8,2.7-2.8,2.9C188.1,46.4,186.2,46.3,184,46.3z M187,33.7L187,33.7c0-0.7-0.2-1.4,0-2
				c0.4-1.5-0.7-1.3-1.5-1.3c-0.9-0.1-1.4,0.2-1.3,1.3c0.1,2.9-0.2,5.7-0.2,8.6c0,0.4,0.5,1.2,0.9,1.3c0.8,0.1,1.6-0.2,2.3-0.5
				c0.2-0.1-0.1-1-0.2-1.5c0-0.2,0-0.3,0-0.5C187,37.2,187,35.5,187,33.7z"/>
		</g>
	</g>
</g>
</svg>
