<?xml version="1.0" encoding="utf-8"?>
<!-- Generator: Adobe Illustrator 25.0.1, SVG Export Plug-In . SVG Version: 6.00 Build 0)  -->
<svg version="1.1" id="Layer_1" xmlns="http://www.w3.org/2000/svg" xmlns:xlink="http://www.w3.org/1999/xlink" x="0px" y="0px"
	 viewBox="0 0 425.2 85" style="enable-background:new 0 0 425.2 85;" xml:space="preserve">
<style type="text/css">
	.st0{fill:url(#SVGID_1_);}
	.st1{fill:#FFFFFF;}
	.st2{fill:none;stroke:#FFFFFF;stroke-width:2.8346;stroke-miterlimit:10;}
</style>
<g>
	<linearGradient id="SVGID_1_" gradientUnits="userSpaceOnUse" x1="42.7899" y1="129.4382" x2="404.2974" y2="-54.8164">
		<stop  offset="0" style="stop-color:#EF7841"/>
		<stop  offset="1" style="stop-color:#F0A10B"/>
	</linearGradient>
	<path class="st0" d="M28.8,79.3h367.9c10.4,0,18.9-8.5,18.9-18.9V25.2c0-10.4-8.5-18.9-18.9-18.9H28.8c-10.4,0-18.9,8.5-18.9,18.9
		v35.2C9.9,70.8,18.4,79.3,28.8,79.3z"/>
	<g>
		<g>
			<g>
				<path class="st1" d="M166.3,24.9c0-2.4,0.1-4.6,0-6.8c-0.1-2.8,0.8-3.9,3.7-3.9c8.8,0.1,17.7,0.2,26.5,0.3c2.8,0,5.7,0,8.5,0
					c4.8,0,9.6,0,14.3,0c7.3,0,14.7-0.2,22-0.1c4.5,0,9.1,0.3,13.6,0.5c1.7,0.1,2.6,1.3,2.6,3.6c0,1.8,0.1,3.5,0.1,5.3
					c0,1,0.3,1.2,1.4,1.1c0.9-0.1,2.6,0,2.7,0.4c0.5,1.3,0.5,2.8,0.5,4.1c0,0.3-1,0.8-1.6,0.9c-0.9,0.2-1.8,0-2.7,0
					c0,8.3,0,16.5,0,24.9c1,0,1.9,0,2.8,0c1.3,0,1.8,0.7,1.8,1.9c0,0.1,0,0.2,0,0.3c0.2,3.8-1.2,3.5-4.2,3.2
					c-0.1,0.5-0.1,0.9-0.1,1.4c0,1.9,0.1,3.9,0,5.8c-0.1,2.1-1,3-3.2,3.1c-3.1,0.1-6.3,0.1-9.4,0.1c-5.1,0-10.2,0.1-15.4-0.1
					c-4.2-0.2-8.4,0.3-12.6,0.2c-4.3-0.2-8.7-0.2-13-0.1c-7.5,0.1-15,0.3-22.5,0.3c-4.2,0-8.4-0.2-12.6-0.3
					c-2.2-0.1-3.2-1.2-3.2-3.4c0-2.1,0-4.3,0-6.6c-0.8,0-1.5,0-2.2,0c-1.6,0-2.1-0.5-2.1-2c0-0.2,0-0.3,0-0.5c0-3.1,0-3,3.2-3.4
					c0.4-0.1,1-0.6,1-0.9c0.1-7.8,0.1-15.6,0.1-23.3c0-0.1-0.1-0.2,0-0.1c-1.5-0.4-3-0.5-4-1.3c-0.6-0.4-0.3-2-0.3-3.1
					C162.2,24.8,163.1,24.5,166.3,24.9z M252,65.7c0-15.3,0-30.3,0-45.6c-26.8,0-53.3,0-80.1,0c0.3,15,0.1,30.2,0.1,45.6
					C198.9,65.7,225.5,65.7,252,65.7z"/>
				<path class="st1" d="M227.6,41.8c1.1,0.9,1.5,2.4,1.5,4c-0.2,3.6,0,7.3-0.1,11c0,1.9-1.1,3.1-3.2,3.2c-3.3,0.1-6.7,0-10.4,0
					c0-4.7,0-9.4,0-14.2c0-0.7-0.3-1.3-0.5-1.9c-0.4-1.7-0.9-3.4,0.4-4.9c0.2-0.2,0.3-0.5,0.3-0.8c-0.1-3.9-0.1-7.8-0.3-11.5
					c-0.1-1.2,0.3-1.5,1.5-1.5c3.2,0.1,6.4,0,9.6,0.1c1.7,0,2.4,0.7,2.5,2.4c0.1,3.5,0.1,7.1-0.1,10.6
					C228.6,39.5,228,40.5,227.6,41.8z M223.4,44.6c-2.8-0.5-2.8-0.4-2.9,1.9c-0.1,2.7-0.1,5.3-0.3,8c0,1,0.5,1.2,1.3,1.1
					c0.6-0.1,1.8,0.7,1.8-0.8C223.4,51.4,223.4,48.1,223.4,44.6z M223.4,34.3C223.4,34.3,223.4,34.3,223.4,34.3c0-1.2,0.1-2.3,0-3.5
					c-0.1-0.3-0.7-0.9-1-0.9c-0.6,0-1.6,0.4-1.6,0.7c-0.2,2.6-0.2,5.3,0,7.9c0,0.3,1.2,0.7,1.9,0.8c0.2,0,0.7-0.8,0.8-1.2
					C223.4,36.9,223.4,35.7,223.4,34.3z"/>
				<path class="st1" d="M205.5,55.6c0.1-0.5,0.3-1.1,0.3-1.6c0-7.8,0-15.8,0-23.6c0-0.9,0-1.9,0-2.9c0-1.3,0.6-1.9,2-1.9
					c0.3,0,0.8,0.1,1.1,0.1c2.1,0.1,2.4,0.3,2.4,2.4c0,8.3,0,16.5-0.1,24.7c0,1.4,0,2.9-0.1,4.2c-0.1,2.2-1.1,3.1-3.3,3.1
					c-2.6,0-5.2,0-7.8,0.1c-2.7,0.1-3.8-0.8-3.8-3.5c0-8.3,0.2-16.7,0.2-24.9c0-1.7,0.1-3.5,0-5.1c0-0.9,0.1-1.3,1.3-1.3
					c4.2,0.3,4.1,0.3,4.2,4.5c0,4.6,0.2,9.2,0.1,13.8c0,3.4-0.2,6.7-0.3,10c0,1.1,0,1.9,1.5,1.4C204,55,204.7,55.3,205.5,55.6z"/>
				<path class="st1" d="M241.9,33.8c-0.1-0.8-0.3-1.3-0.2-1.9c0.2-1.7-0.4-2.2-2.1-2c-1.4,0.1-1.7,0.3-1.7,1.8
					c0.2,6.7,0.2,13.3,0.3,20c0,1.2,0,2.3,0,3.6c0.6,0.1,1.4,0.1,2.1,0.3c0.9,0.1,1.3-0.3,1.3-1.2c-0.1-3-0.2-6.1-0.3-9.1
					c0-0.3,0-0.7-0.1-0.8c-2-1.4-0.9-3.3-0.9-5.3c1.9,0,3.7-0.1,5.5,0.1c0.3,0,0.9,1,0.9,1.5c0.1,4,0,7.8,0,11.8c0,1.4,0,2.9,0,4.2
					c0,2.4-1.2,3.5-3.5,3.5c-2.4,0-4.9,0-7.3-0.1c-1.9,0-3.2-1.1-3.2-3c-0.1-4,0-7.8,0-11.8c0-4.1-0.1-8.3-0.1-12.5
					c0-1.7,0-3.5,0.2-5.1c0.2-1.6,1.3-2.5,2.9-2.5c2.7,0,5.3-0.1,8,0c2.2,0.1,2.9,0.9,2.8,3c-0.1,1.4-0.1,2.9,0,4.2
					c0,1-0.4,1.3-1.3,1.3C244,33.7,242.9,33.8,241.9,33.8z"/>
				<path class="st1" d="M184,46.1c0.1,1.5,0.2,2.7,0.2,3.9c0.1,2.8,0.1,5.6,0.1,8.4c0,1.3-0.5,1.9-2,1.9c-3.7,0.1-3.9,0-3.9-3.7
					c0-3.4,0.2-6.7,0.2-10c0-0.2,0-0.4-0.1-0.6c-1.5-1.8-0.9-3.5-0.3-5.4c0.1-0.3,0.2-0.6,0.2-0.9c0.2-1.9,0.5-3.7,0.5-5.6
					c0-1.3-0.3-2.7-0.4-4c-0.1-1.3-0.1-2.5-0.1-3.8c0-0.8,0.3-1.2,1.3-1.2c3.4,0.1,7,0.1,10.4,0.2c2,0,2.6,0.6,2.6,2.5
					c0,5.1,0,10.2,0,15.2c0,1.9-0.8,2.7-2.8,2.9C188,46.2,186.1,46.1,184,46.1z M187,33.6L187,33.6c0-0.7-0.2-1.4,0-2
					c0.4-1.5-0.7-1.3-1.5-1.3c-0.9-0.1-1.4,0.2-1.3,1.3c0.1,2.9-0.2,5.7-0.2,8.6c0,0.4,0.5,1.2,0.9,1.3c0.8,0.1,1.6-0.2,2.3-0.5
					c0.2-0.1-0.1-1-0.2-1.5c0-0.2,0-0.3,0-0.5C187,37,187,35.3,187,33.6z"/>
			</g>
		</g>
		<g>
			<path class="st2" d="M168.2,40c-0.1-2.9-0.1-5.7,0-8.6h-46.9c-6.2,0-11.3,5-11.3,11.3c0,6.2,5,11.3,11.3,11.3h46.9V40z"/>
			<path class="st1" d="M130.3,40c1.7-1.2,3.2-2.2,4.9-3.4c0.5,0.8,0.9,1.5,1.5,2.2c-1.8,1.3-3.4,2.4-5.3,3.7c1.1,0.8,2,1.5,3,2.2
				c0.6,0.4,1.1,0.9,1.7,1.2c0.4,0.3,0.5,0.5,0.2,0.9s-0.5,0.8-0.7,1.2c-0.3,0.5-0.5,0.6-1,0.3c-1.3-0.9-2.4-1.8-3.7-2.6
				c-0.1-0.1-0.3-0.2-0.6-0.3c0,2,0,3.9,0,5.8c-0.9,0-1.7,0-2.5,0c0-1.9,0-3.8,0-5.9c-1.7,1.2-3.2,2.3-4.9,3.4
				c-0.5-0.9-0.9-1.7-1.3-2.5c1.7-1.2,3.4-2.4,5.2-3.6c-1.7-1.3-3.4-2.4-5.2-3.7c0.5-0.8,0.9-1.5,1.4-2.4c1.6,1.1,3.1,2.2,4.8,3.4
				c0-1.1,0-2,0-2.9c0-0.2,0-0.5,0-0.7c0-2.2,0.1-2.4,2.5-1.9C130.3,36.2,130.3,38.1,130.3,40z"/>
			<path class="st1" d="M150.2,42.6c-1.8-1.3-3.4-2.4-5.2-3.7c0.5-0.8,0.9-1.5,1.4-2.4c1.6,1.1,3.1,2.2,4.7,3.4
				c0-0.3,0.1-0.5,0.1-0.8c0-1.4,0-2.7,0-4.1c0-0.6,0.2-0.8,0.8-0.7c0.5,0.1,1.1,0,1.7,0c0,1.9,0,3.7,0,5.7c1.7-1.2,3.3-2.2,4.9-3.4
				c0.5,0.8,0.9,1.5,1.5,2.2c-1.7,1.3-3.5,2.4-5.3,3.8c1.8,1.3,3.5,2.5,5.2,3.8c-0.5,0.8-0.9,1.6-1.3,2.4c-1.7-1.2-3.2-2.2-4.9-3.5
				c0,2,0,4,0,5.9c-0.8,0-1.5,0-2.1,0c-0.5,0-0.5-0.3-0.5-0.6c0-1.5,0-3,0-4.5c0-0.3,0-0.5,0-0.9c-1.7,1.2-3.2,2.2-4.9,3.4
				c-0.4-0.8-0.8-1.5-1.1-2.3c-0.1-0.1,0.2-0.5,0.4-0.6c1.3-0.9,2.6-1.9,4-2.7C149.7,43,149.9,42.9,150.2,42.6z"/>
		</g>
		<g>
			<path class="st2" d="M257.4,45.4c0.1,2.9,0.1,5.7,0,8.6h46.9c6.2,0,11.3-5,11.3-11.3c0-6.2-5-11.3-11.3-11.3h-46.9V45.4z"/>
			<path class="st1" d="M295.3,45.4c-1.7,1.2-3.2,2.2-4.9,3.4c-0.5-0.8-0.9-1.5-1.5-2.2c1.8-1.3,3.4-2.4,5.3-3.7
				c-1.1-0.8-2-1.5-3-2.2c-0.6-0.4-1.1-0.9-1.7-1.2c-0.4-0.3-0.5-0.5-0.2-0.9c0.3-0.4,0.5-0.8,0.7-1.2c0.3-0.5,0.5-0.6,1-0.3
				c1.3,0.9,2.4,1.8,3.7,2.6c0.1,0.1,0.3,0.2,0.6,0.3c0-2,0-3.9,0-5.8c0.9,0,1.7,0,2.5,0c0,1.9,0,3.8,0,5.9c1.7-1.2,3.2-2.3,4.9-3.4
				c0.5,0.9,0.9,1.7,1.3,2.5c-1.7,1.2-3.4,2.4-5.2,3.6c1.7,1.3,3.4,2.4,5.2,3.7c-0.5,0.8-0.9,1.5-1.4,2.4c-1.6-1.1-3.1-2.2-4.8-3.4
				c0,1.1,0,2,0,2.9c0,0.2,0,0.5,0,0.7c0,2.2-0.1,2.4-2.5,1.9C295.3,49.2,295.3,47.3,295.3,45.4z"/>
			<path class="st1" d="M275.4,42.8c1.8,1.3,3.4,2.4,5.2,3.7c-0.5,0.8-0.9,1.5-1.4,2.4c-1.6-1.1-3.1-2.2-4.7-3.4
				c0,0.3-0.1,0.5-0.1,0.8c0,1.4,0,2.7,0,4.1c0,0.6-0.2,0.8-0.8,0.7c-0.5-0.1-1.1,0-1.7,0c0-1.9,0-3.7,0-5.7
				c-1.7,1.2-3.3,2.2-4.9,3.4c-0.5-0.8-0.9-1.5-1.5-2.2c1.7-1.3,3.5-2.4,5.3-3.8c-1.8-1.3-3.5-2.5-5.2-3.8c0.5-0.8,0.9-1.6,1.3-2.4
				c1.7,1.2,3.2,2.2,4.9,3.5c0-2,0-4,0-5.9c0.8,0,1.5,0,2.1,0c0.5,0,0.5,0.3,0.5,0.6c0,1.5,0,3,0,4.5c0,0.3,0,0.5,0,0.9
				c1.7-1.2,3.2-2.2,4.9-3.4c0.4,0.8,0.8,1.5,1.1,2.3c0.1,0.1-0.2,0.5-0.4,0.6c-1.3,0.9-2.6,1.9-4,2.7
				C275.9,42.4,275.7,42.5,275.4,42.8z"/>
		</g>
	</g>
</g>
</svg>
