<?xml version="1.0" encoding="utf-8"?>
<!-- Generator: Adobe Illustrator 25.0.1, SVG Export Plug-In . SVG Version: 6.00 Build 0)  -->
<svg version="1.1" id="Layer_1" xmlns="http://www.w3.org/2000/svg" xmlns:xlink="http://www.w3.org/1999/xlink" x="0px" y="0px"
	 viewBox="0 0 425.2 85" style="enable-background:new 0 0 425.2 85;" xml:space="preserve">
<style type="text/css">
	.st0{fill:url(#SVGID_1_);}
	.st1{fill:#FFFFFF;}
</style>
<g>
	<linearGradient id="SVGID_1_" gradientUnits="userSpaceOnUse" x1="42.7899" y1="129.4382" x2="404.2974" y2="-54.8164">
		<stop  offset="0" style="stop-color:#EF7841"/>
		<stop  offset="1" style="stop-color:#F0A10B"/>
	</linearGradient>
	<path class="st0" d="M28.8,79.3h367.9c10.4,0,18.9-8.5,18.9-18.9V25.2c0-10.4-8.5-18.9-18.9-18.9H28.8c-10.4,0-18.9,8.5-18.9,18.9
		v35.2C9.9,70.8,18.4,79.3,28.8,79.3z"/>
	<g>
		<path class="st1" d="M146.3,35c0-6,0-12,0-17.9c0-0.5,0.1-0.5,0.6-0.5c2.7,0,5.4,0,8,0c0.7,0,0.7,0,0.7,0.7c0.1,2.2,0.8,4.2,2,6
			c2.3,3.4,5.6,5.3,9.8,5.5c0.5,0,0.6,0.2,0.6,0.6c0,2.6,0,5.2,0,7.8c0,0.5-0.1,0.6-0.6,0.5c-3.3-0.1-6.4-0.9-9.3-2.7
			c-0.7-0.4-1.5-0.9-2.1-1.4c-0.3-0.2-0.4,0-0.4,0.2c0,0.2,0,0.4,0,0.6c0,5.9,0,11.8,0,17.7c0,1.8-0.2,3.6-0.8,5.3
			c-0.7,2-1.6,3.8-2.9,5.4c-1.7,2.1-3.8,3.7-6.3,4.8c-3.5,1.5-7.1,1.8-10.8,0.9c-0.9-0.2-1.8-0.4-2.6-0.8c-0.9-0.4-1.8-0.9-2.7-1.5
			c-1.2-0.8-2.2-1.7-3.2-2.8c-1.6-1.7-2.8-3.7-3.5-5.9c-0.7-2.1-1-4.3-0.9-6.6c0.2-3.1,1.2-5.9,3-8.4c2-2.8,4.6-4.9,7.9-6.1
			c2.6-0.9,5.2-1.2,7.9-0.9c0.3,0,0.3,0.1,0.3,0.4c0,2.9,0,5.8,0,8.7c0,0.3,0,0.3-0.4,0.3c-3.9-0.9-7.6,0.9-9.1,4.7
			c-1.2,3.1-0.1,6.6,2.5,8.6c2.4,1.8,6.1,2,8.5,0.3c1.8-1.1,2.8-2.7,3.3-4.7c0.1-0.7,0.2-1.3,0.2-1.9
			C146.3,46.3,146.3,40.7,146.3,35z"/>
		<g>
			<path class="st1" d="M288.3,40.4c1.6-1.6,3.2-3.1,4.8-4.7c0.9-1.1,1.9-1.5,3.2-1.3c2.1,0.1,4.3,0,6.8,0c-0.9,0.9-1.5,1.6-2.1,2.3
				c-1.9,2-3.9,4-5.9,6c-0.7,0.7-0.7,1.2-0.1,1.9c2.5,3.5,5.1,7.1,7.6,10.7c0.4,0.5,1.2,1.2,0.9,1.9c-0.3,0.7-1.2,0.1-2,0.3
				c-0.9,0-1.9-0.1-2.8,0c-1.9,0.3-3.1-0.4-4.1-2c-1.2-1.9-2.5-3.6-3.7-5.5c-0.4-0.5-0.8-1.5-1.5-1.2c-0.8,0.4-1.6,1.1-1.6,2.1
				c0,1.7,0,3.5,0,5.1c0,0.9-0.3,1.5-1.3,1.3c-1.6-0.1-3.2,0-4.7,0c-0.8,0-1.2-0.3-1.2-1.2c0-8.7,0-17.5,0-26.1
				c0-1.2,0.3-1.6,1.5-1.5c1.5,0.1,2.9,0,4.4,0c1.1,0,1.3,0.4,1.3,1.3c0,3.2,0,6.4,0,9.7C287.9,39.7,287.8,40.1,288.3,40.4z"/>
			<path class="st1" d="M213.7,40.8c1.9-1.7,3.6-3.3,5.1-5.1c0.7-0.8,1.5-1.3,2.7-1.3c1.9,0.1,3.7,0,5.7,0c0.4,0,0.8-0.1,0.9,0.3
				s-0.3,0.7-0.5,0.9c-2.3,2.3-4.4,4.5-6.7,6.8c-0.8,0.8-0.8,1.3-0.1,2.3c2.8,3.7,5.5,7.5,8.1,11.2c0.3,0.3,0.7,0.7,0.4,1.1
				s-0.8,0.3-1.1,0.3c-1.9,0-3.6,0-5.5,0c-0.7,0-0.9-0.3-1.2-0.7c-1.6-2.3-3.2-4.5-4.9-6.8c-0.4-0.5-0.7-1.6-1.3-1.3
				c-0.8,0.4-1.7,1.1-1.7,2.3c0,1.6-0.1,3.3,0,4.9c0,1.2-0.4,1.6-1.5,1.5c-1.3-0.1-2.7-0.1-4,0c-1.3,0.1-1.6-0.4-1.6-1.7
				c0-8.3,0-16.4,0-24.7c0-2.9-0.4-2.5,2.5-2.5c1.1,0,2.3,0,3.3,0c1.1,0,1.3,0.3,1.3,1.3c-0.1,3.2-0.1,6.4-0.1,9.7
				C213.6,39.7,213.6,40.1,213.7,40.8z"/>
			<path class="st1" d="M276.6,45.5c0,6.8-5.2,12.1-11.7,12.3c-6.9,0.1-12.5-5.3-12.5-12.3c0-6.5,5.5-12,11.9-12
				C271.4,33.3,276.6,38.5,276.6,45.5z M264.5,39.7c-3.5,0.1-6,2.7-5.9,6.1c0.1,3.3,2.8,5.7,6.1,5.7c3.3-0.1,5.9-2.8,5.7-6.3
				C270.3,42.1,267.5,39.6,264.5,39.7z"/>
			<path class="st1" d="M180.4,45.9c0-3.2-0.1-6.4,0-9.7c0-1.5-0.4-1.9-1.9-1.7c-1.3,0.1-2.7,0-4,0c-0.8,0-1.2-0.3-1.2-1.1
				c0-1.3,0-2.7,0-4c0-0.7,0.3-0.9,0.9-0.9c6.5,0,13.1,0,19.7,0c0.9,0,1.1,0.3,0.7,1.1c-0.5,1.3-0.9,2.5-1.3,3.9
				c-0.3,0.9-0.7,1.1-1.5,1.1c-1.2,0-2.3,0.1-3.5,0.1c-1.2,0-0.9,0.5-0.9,1.2c0,6.5,0,13.1,0,19.5c0,1.9,0,1.9-1.9,1.9
				c-1.3,0-2.8,0-4.1,0c-0.9,0-1.3-0.3-1.3-1.3C180.4,52.5,180.4,49.2,180.4,45.9L180.4,45.9z"/>
			<path class="st1" d="M238.1,45.7c0-3.3,0-6.8,0-10.1c0-0.9-0.3-1.2-1.2-1.2c-1.5,0-3.1,0-4.5,0c-0.9,0-1.2-0.3-1.2-1.2
				c0-1.2,0.1-2.4,0-3.6c-0.1-1.1,0.3-1.3,1.3-1.3c5.7,0,11.3,0,17.1,0c0.9,0,1.7,0,2.7,0c0.5,0,0.7,0.3,0.5,0.8
				c-0.5,1.5-1.1,2.9-1.5,4.3c-0.3,0.8-0.7,0.9-1.3,0.9c-1.1,0-2.1,0.1-3.2,0c-1.2-0.1-1.5,0.4-1.5,1.5c0,6.5,0,13.2,0,19.7
				c0,1.2-0.3,1.6-1.6,1.5c-1.5-0.1-2.9-0.1-4.4,0c-0.9,0-1.3-0.3-1.2-1.2C238.1,52.5,238.1,49.1,238.1,45.7z"/>
			<path class="st1" d="M196.4,47.5c0-2.8,0-5.6,0-8.4c0-0.9,0.3-1.3,1.3-1.3c1.6,0,3.2,0,4.7,0c0.7,0,1.1,0.1,1.1,0.9
				c0,5.9,0,11.6,0,17.5c0,0.8-0.3,1.1-1.1,1.1c-1.6,0-3.2,0-4.8,0c-0.9,0-1.2-0.3-1.2-1.2C196.5,53.2,196.4,50.4,196.4,47.5z"/>
			<path class="st1" d="M199.8,35.1c-2.3,0-3.5-1.2-3.6-3.7c0-1.9,1.5-3.5,3.2-3.5c2.3,0,4,1.5,4,3.6
				C203.6,33.6,202.1,35.1,199.8,35.1z"/>
		</g>
	</g>
</g>
</svg>
