<?xml version="1.0" encoding="utf-8"?>
<!-- Generator: Adobe Illustrator 25.0.1, SVG Export Plug-In . SVG Version: 6.00 Build 0)  -->
<svg version="1.1" id="Layer_1" xmlns="http://www.w3.org/2000/svg" xmlns:xlink="http://www.w3.org/1999/xlink" x="0px" y="0px"
	 viewBox="0 0 425.2 85" style="enable-background:new 0 0 425.2 85;" xml:space="preserve">
<style type="text/css">
	.st0{fill:url(#SVGID_1_);}
	.st1{fill:#FFFFFF;}
</style>
<g>
	<linearGradient id="SVGID_1_" gradientUnits="userSpaceOnUse" x1="42.7899" y1="129.4382" x2="404.2974" y2="-54.8164">
		<stop  offset="0" style="stop-color:#EF7841"/>
		<stop  offset="1" style="stop-color:#F0A10B"/>
	</linearGradient>
	<path class="st0" d="M28.8,79.3h367.9c10.4,0,18.9-8.5,18.9-18.9V25.2c0-10.4-8.5-18.9-18.9-18.9H28.8c-10.4,0-18.9,8.5-18.9,18.9
		v35.2C9.9,70.8,18.4,79.3,28.8,79.3z"/>
	<g>
		<g>
			<path class="st1" d="M142.4,18.4c-1.6,0.1-3.4,0.1-5,0.5c-9.6,2-16.4,7.1-19.4,16.7c-1.8,5.4-1.1,10.6,2.2,15.4
				c2.4,3.5,5.8,5.8,10.1,6.3c7.4,0.9,13.9-3.5,15.6-10.8c0.9-4,0.4-7.9-2-11.3c-1.8-2.4-4.2-3.8-6.9-4.7c-0.7-0.3-1.3-0.4-2-0.5
				c-0.4-0.1-0.5-0.3-0.5-0.7c0.1-3.2,1.5-5.9,3.9-8.1c1.2-1.1,2.7-1.9,4.3-2.3c0.3,0,0.7,0,0.9,0.1c5,2.6,8.8,6.2,11.5,11
				c2,3.6,3.1,7.7,3.2,11.9c0.1,7-2,13.1-6.6,18.3c-3.9,4.4-8.9,7.4-14.7,8.5c-8.2,1.6-15.8-0.3-22.2-5.7c-5.3-4.3-8.4-9.8-9.3-16.4
				c-1.2-8.4,1.2-15.8,7-22.1c3.8-4,8.5-6.6,14-7.8c5.4-1.1,10.6-0.5,15.8,1.6C142.4,18.4,142.4,18.4,142.4,18.4z"/>
			<path class="st1" d="M221.5,34.3c0-2.6,0-5,0-7.4c1.6,0,3.4,0,5,0c0,8.9,0,17.8,0,26.8c-0.4,0-0.8,0-1.1,0c-0.9,0-2,0-3,0
				c-0.4,0-0.5-0.1-0.5-0.5c0-0.3-0.1-0.5-0.1-0.8c-0.1,0.1-0.3,0.1-0.4,0.3c-2.4,2.3-6.5,1.8-8.6,0c-1.9-1.6-2.8-3.6-3.4-5.9
				c-0.5-3-0.3-5.8,1.2-8.5c1.8-3.1,4.9-4.7,8.5-4.3c0.4,0,0.8,0.1,1.2,0.1C220.7,34.2,221.1,34.2,221.5,34.3z M221.5,43.5
				c0-1.2,0-2.6,0-3.8c0-1.1,0-1.1-1.1-1.5c-2.7-0.7-4.9,0.3-5.9,2.8c-0.8,2.2-0.8,4.3,0.3,6.5c1.2,2.4,3.8,3.1,5.9,1.5
				c0.5-0.4,0.8-0.8,0.8-1.5C221.5,46.1,221.5,44.8,221.5,43.5z"/>
			<path class="st1" d="M320.4,45.2c-4.3,0-8.5,0-12.7,0c-0.1,2,1.2,3.9,3.4,4.3c2.4,0.5,4.7,0,6.7-1.3c0.1,0,0.1-0.1,0.3-0.3
				c0.4,1.3,0.9,2.7,1.3,4c-0.8,0.7-1.9,1.1-2.8,1.3c-2.2,0.5-4.3,0.8-6.6,0.4c-3.5-0.7-5.8-2.7-6.7-6.1c-0.9-3.4-0.8-6.7,0.9-9.8
				c1.3-2.3,3.4-3.6,5.9-4c2.4-0.4,4.6,0,6.6,1.3c1.9,1.3,2.7,3.2,3.1,5.4C320.3,42.1,320.3,43.6,320.4,45.2z M315.1,41.6
				c0.1-1.9-1.5-3.8-3.2-3.8c-2.2,0-3.9,1.8-3.9,3.8C310.3,41.6,312.7,41.6,315.1,41.6z"/>
			<path class="st1" d="M287.2,35.5c1.2-0.5,2.3-1.1,3.5-1.5c2.2-0.5,4.2-0.4,6.2,0.8c1.6,1.1,2.3,2.7,2.7,4.6
				c0.1,0.9,0.3,1.8,0.3,2.7c0,3.6,0,7.4,0,11c0,0.1,0,0.3,0,0.4c-1.6,0-3.2,0-5,0c0-0.3,0-0.5,0-0.7c0-3.4,0-6.9,0-10.2
				c0-0.9-0.1-2-0.5-2.8c-0.9-1.8-3-2.3-4.7-1.3c-0.1,0.1-0.3,0.1-0.4,0.3c-1.2,0.7-1.8,1.5-1.6,3c0.1,3.8,0,7.5,0,11.3
				c0,0.3,0,0.4,0,0.7c-1.6,0-3.2,0-5,0c0-0.1,0-0.4,0-0.5c0-6.1,0-12,0-18.1c0-0.5,0.1-0.7,0.7-0.7c1.1,0,2.3,0,3.4,0
				c0.4,0,0.5,0.1,0.5,0.5C287.1,35.1,287.1,35.4,287.2,35.5z"/>
			<path class="st1" d="M245.5,53.6c-1.6,0-3.1,0-4.6,0c-0.1-0.4-0.1-0.8-0.3-1.3c-1.2,1.1-2.4,1.6-3.9,1.8
				c-3.4,0.4-6.3-1.6-7.1-4.6c-0.7-2.8,0.7-5.7,3.5-6.9c1.9-0.8,3.9-1.2,5.9-1.3c0.4,0,0.9-0.1,1.3-0.1c0.4-2-0.9-3.4-3.1-3.2
				c-1.3,0-2.7,0.5-3.8,1.2c-0.3,0.1-0.5,0.4-0.9,0.5c-0.5-1.1-0.9-2.2-1.5-3.2c-0.1-0.4,0.1-0.5,0.3-0.7c1.1-0.8,2.4-1.3,3.8-1.6
				c1.9-0.5,3.8-0.5,5.7-0.1c2.6,0.7,4,2.4,4.6,5c0.1,0.8,0.1,1.5,0.1,2.3c0,3.8,0,7.7,0,11.5C245.5,53.2,245.5,53.3,245.5,53.6z
				 M240.5,44.5c-0.4,0-0.8,0-1.2,0.1c-1.1,0.3-2.3,0.4-3.4,0.7c-1.1,0.3-1.8,1.5-1.6,2.6c0,0.9,0.7,1.6,1.8,1.9
				c1.6,0.3,3-0.1,4.2-1.2c0.1-0.1,0.1-0.3,0.1-0.4C240.5,47.1,240.5,45.9,240.5,44.5z"/>
			<path class="st1" d="M260.7,43.9c0-2,0.5-3.9,1.5-5.5c1.5-2.6,3.6-4,6.6-4.3c3.1-0.4,5.8,0.4,7.9,2.7c1.3,1.5,2.2,3.2,2.4,5.3
				c0.5,3,0,5.7-1.6,8.2c-1.8,2.8-4.4,4-7.7,4c-4.7,0-7.9-3.2-8.8-7.5C260.8,45.6,260.8,44.8,260.7,43.9z M265.7,44
				c0,1.2,0.3,2.6,0.9,3.8c1.5,2.4,4.6,2.7,6.3,0.5c1.6-2,1.9-6.2,0.4-8.4c-1.9-2.8-5.5-2.6-7,0.5C265.8,41.6,265.7,42.6,265.7,44z"
				/>
			<path class="st1" d="M188.1,44.3c0.1-3.4,0.9-5.9,3.1-8.1c1.9-1.9,4.3-2.6,7-2.3c2.8,0.1,5.1,1.5,6.7,3.9c1.5,2.3,2,4.9,1.8,7.5
				c-0.3,2-0.8,3.8-2,5.4c-1.9,2.4-4.3,3.5-7.3,3.4c-4.9,0-7.9-3.4-8.9-7.7C188.2,45.6,188.1,44.7,188.1,44.3z M192.9,43.7
				c0,1.9,0.4,3.4,1.2,4.4c1.5,2,4.6,2.2,6.2,0.1c1.8-2.2,1.9-6.3,0.3-8.5c-1.6-2.4-5-2.4-6.6,0C193.2,41,193.1,42.4,192.9,43.7z"/>
			<path class="st1" d="M250.5,34.3c0.1-1.2,0.1-2.4,0.4-3.5c0.5-2.6,2.4-4.2,5.1-4.3c1.8-0.1,3.6,0,5.4,0.8
				c-0.1,1.3-0.4,2.7-0.5,4.2c-0.1,0-0.4-0.1-0.5-0.1c-0.8-0.1-1.8-0.3-2.6-0.4c-1.2,0-2,0.9-2.2,2c0,0.4,0,0.9,0,1.5
				c1.3,0,2.7,0,4,0c0,1.3,0,2.7,0,4c-1.3,0-2.7,0-4,0c0,2.6,0,5.1,0,7.7c0,2.6,0,5.1,0,7.7c-1.6,0-3.4,0-5,0c0-2.6,0-5.1,0-7.7
				c0-2.6,0-5.1,0-7.7c-0.8,0-1.6,0-2.6,0c0-1.3,0-2.7,0-4C249,34.3,249.8,34.3,250.5,34.3z"/>
			<path class="st1" d="M187.7,34.3c-0.7,1.8-1.3,3.4-2,5c-1.9,4.7-3.8,9.3-5.7,14c-0.1,0.4-0.3,0.4-0.7,0.4c-1.1,0-2.2,0-3.2,0
				c-0.5,0-0.7-0.1-0.9-0.5c-2-4.9-4-9.6-6.1-14.3c-0.5-1.5-1.2-2.8-1.9-4.4c0.3,0,0.4,0,0.7,0c1.3,0,2.8,0,4.2,0
				c0.4,0,0.5,0.1,0.7,0.5c1.5,3.8,3,7.5,4.4,11.5c0.1,0.3,0.1,0.4,0.4,0.8c0.4-0.9,0.7-1.8,0.9-2.6c1.2-3.2,2.4-6.3,3.6-9.6
				c0.1-0.4,0.4-0.5,0.8-0.5C184.6,34.3,186.1,34.3,187.7,34.3z"/>
		</g>
	</g>
</g>
</svg>
