<?xml version="1.0" encoding="utf-8"?>
<!-- Generator: Adobe Illustrator 25.0.1, SVG Export Plug-In . SVG Version: 6.00 Build 0)  -->
<svg version="1.1" id="Layer_1" xmlns="http://www.w3.org/2000/svg" xmlns:xlink="http://www.w3.org/1999/xlink" x="0px" y="0px"
	 viewBox="0 0 202.6 202" style="enable-background:new 0 0 202.6 202;" xml:space="preserve">
<style type="text/css">
	.st0{fill:#EE7841;}
	.st1{fill:#FFFFFF;}
	.st2{font-family:'AdobeArabic-Regular';}
	.st3{font-size:202.8229px;}
	.st4{font-size:153.6897px;}
</style>
<path class="st0" d="M115.3,184.1h-28c-35.4,0-64.1-28.7-64.1-64.1V81.9c0-35.4,28.7-64.1,64.1-64.1h28c35.4,0,64.1,28.7,64.1,64.1
	v38.2C179.3,155.5,150.7,184.1,115.3,184.1z"/>
<path d="M-1121.5,460.8c2-2.6,3.3-5.1,5.3-6.7c1.4-1.1,4.4-1.9,5.5-1.1c1.5,1,2.2,3.6,2.7,5.7c0.1,0.3-2.6,1.8-4.1,2
	C-1115.3,461-1118.7,460.8-1121.5,460.8z"/>
<path d="M-1112,343.6c-1.6,0-3.3,0.5-4.6-0.1c-1.4-0.6-2.8-2-3.4-3.4c-0.3-0.8,0.8-3.1,1.5-3.2c3-0.4,6.2-0.6,9.2-0.2
	c0.7,0.1,1.7,3,1.4,4.2c-0.4,1.5-2.2,2.6-3.3,3.9C-1111.5,344.3-1111.8,343.9-1112,343.6z"/>
<path d="M-1121.5,474.8c3,0,6.3-0.3,9.5,0.1c1.6,0.2,4.2,1.9,4.1,2.7c-0.2,1.8-1.4,4.4-2.8,5c-1.4,0.6-4-0.7-5.5-1.8
	C-1118.1,479.4-1119.4,477.2-1121.5,474.8z"/>
<path d="M-1108.1,484.6c-4.8,5.1-4.8,6.6-0.1,10.9c-4.1-1.3-8.3-2.7-12.4-4.1c-0.1,0,0.3-2.6,0.9-2.8
	C-1115.9,487-1111.9,485.9-1108.1,484.6z"/>
<path d="M-1108,314.9c-1.7-2.4-2.6-3.7-3.6-5.2c-0.4,0.6-0.6,1-0.9,1.2c-1.5,1.3-3,2.6-4.6,3.9c-1-1.7-3.2-4.3-2.7-4.9
	c1.3-1.6,3.8-3.6,5.6-3.4C-1110.8,307-1108.3,309.4-1108,314.9z"/>
<path d="M-1108,325.9c-1.8-2.5-2.7-3.7-4-5.5c-0.4,1.4-0.3,2.4-0.8,2.8c-1.2,1.1-2.9,2.8-4,2.6c-1.3-0.3-3-2.3-3.1-3.6
	c-0.1-1.4,1.3-3.4,2.6-4.1C-1113.6,315.9-1109.3,319.2-1108,325.9z"/>
<path d="M-1112.7,394.1c1.5-1.2,3.1-2.4,4.6-3.5c0.3,0.2,0.5,0.4,0.8,0.6c-1.2,1.5-2.3,3-3.6,4.7c1.1,0.5,2.2,1,3.3,1.5
	c-0.1,0.3-0.1,0.6-0.2,0.9c-4.7,0-9.3,0-14,0c-0.1-0.4-0.1-0.8-0.2-1.1c2.5-0.3,5-0.6,8-1c-1.2-1.4-2.2-2.6-3.2-3.8
	c0.1-0.2,0.3-0.5,0.4-0.7C-1115.4,392.4-1114.1,393.2-1112.7,394.1z"/>
<path d="M-1112.4,440.8c0.5,3.6,0.8,5.2,1,6.8c0.3,0.1,0.7,0.2,1,0.2c0.5-1.5,1.1-3,1.6-4.5c0.4,0.1,0.8,0.1,1.2,0.2
	c-0.4,1.8-0.2,4.3-1.3,5.1c-1.4,1-4,1.3-5.8,0.8c-1.1-0.4-2.4-3-2.1-4.3C-1116.6,443.7-1114.5,442.7-1112.4,440.8z"/>
<path d="M-1119.8,428.6c0.4,1.5,0.9,3,1.4,4.6c4-0.7,3.8-8.8,9.2-4.9c1.4,1,1.2,4.1,1.8,6.2c-0.5,0.1-1.1,0.3-1.6,0.4
	c-0.3-1.8-0.6-3.6-0.9-5.6c-4.3,0.4-4.1,8.6-9.5,4.9c-1.2-0.8-1.3-3.4-1.8-5.2C-1120.9,428.8-1120.4,428.7-1119.8,428.6z"/>
<path d="M-1110.6,369.4c0.2,1.1,0.4,2.2,0.7,3.9c-2.1-0.4-4.9-0.5-7.2-1.6c-1-0.5-1.7-3.2-1.3-4.5c0.5-1.4,2.1-2,3.8-0.1
	c1,1.1,3.5,0.8,5.4,1.1C-1109.6,368.7-1110.1,369-1110.6,369.4z"/>
<path d="M-1108.7,283.3c-0.8-1.6-1.7-3.2-2.5-4.8c-1.3,1.5-2.6,3-4.6,5.1c-3.5,0.1-5.5-1.7-3.7-7.3c0.8,2.3,1.4,3.7,2,5.5
	c3.1-1.4,3.2-8.4,8.1-4.5c1.4,1.1,1.3,4,1.9,6.1C-1107.9,283.3-1108.3,283.3-1108.7,283.3z"/>
<path d="M-1115.4,353.6c-5.3-1.2-5.3-1.2-4.1-7.3c0.5,1.6,0.7,2.4,1,3.2c0.3,0.7,0.6,1.4,1,2.3c3.1-1.4,2.9-7.9,7.7-4.8
	c1.5,1,1.7,3.9,2.6,6c-0.4,0.1-0.8,0.3-1.2,0.4c-1.1-1.7-2.2-3.3-3.4-5C-1112.8,350.1-1113.9,351.6-1115.4,353.6z"/>
<path d="M-1118.9,294.2c-2.1-5.6-1.5-6.5,3.6-6.6c0.6,0,1.2-0.5,1.8-0.4c1.6,0.1,4-0.2,4.6,0.6c1,1.5,0.8,3.7,0.3,5.7
	c-0.9-1.7-1.8-3.3-2.7-5c-1.2,0.9-2.4,1.8-3.6,2.8c-0.3-0.4-0.9-1.4-2.3-3.5C-1117.9,290.4-1118.3,292-1118.9,294.2z"/>
<path d="M-1114.7,301.6c-0.6-0.8-1.3-1.7-2.6-3.6c-0.7,2.5-1.1,4.1-1.5,5.7c-2.3-4.7-1.4-6.3,3.3-6.2c0.6,0,1.2-0.2,1.8-0.2
	c1.6,0,4.1-0.5,4.7,0.3c1.1,1.6,1.1,3.9,0.4,6.1c-0.8-1.7-1.6-3.5-2.3-5.2C-1112.2,299.4-1113.3,300.4-1114.7,301.6z"/>
<path d="M-1108.7,363.5c-0.7-1.7-1.4-3.3-2.1-5c-1.2,1-2.5,2-3.8,3c-0.5-0.8-1.2-1.7-2.6-3.8c-0.7,2.6-1.1,4.2-1.5,5.7
	c-0.4,0-0.8,0-1.2,0c0.2-1.8,0-5,0.7-5.3c3-1,6.4-1.8,9.4-1.2c1.2,0.2,1.8,4,2.7,6.1C-1107.7,363.3-1108.2,363.4-1108.7,363.5z"/>
<path d="M-1113.4,419.8c-1.2-1.8-3.5-3.6-3.4-5.4c0.1-1.4,2.9-3.8,4.4-3.8c1.6,0,4.4,2.4,4.5,3.8c0.1,1.7-2.1,3.6-3.3,5.4
	C-1112,419.8-1112.7,419.8-1113.4,419.8z M-1107.9,414.9c-2.2-1.4-3.3-2.7-4.4-2.6c-1.1,0.1-2,1.5-3,2.4c0.9,0.8,1.7,2.2,2.6,2.3
	C-1111.6,417.1-1110.3,416-1107.9,414.9z"/>
<path d="M-1106.9,468.6c-1.8,1.1-3.8,3.4-5.4,3.2c-1.8-0.2-3.2-2.7-4.8-4.2c1.5-1.4,2.9-3.9,4.5-4c1.8-0.1,3.8,1.8,5.7,2.9
	C-1107,467.1-1106.9,467.9-1106.9,468.6z M-1107.9,467.5c-2.4-1.2-3.6-2.2-4.7-2.2c-0.9,0.1-1.8,1.4-2.7,2.2c1,0.9,1.9,2.3,3,2.4
	C-1111.3,470.1-1110.2,468.8-1107.9,467.5z"/>
<path d="M-1121.5,382.2c5.8,0,11.5,0,17.3,0c0,0.3,0,0.6,0,0.8c-5.7,0-11.5,0-17.2,0C-1121.5,382.8-1121.5,382.5-1121.5,382.2z"/>
<path d="M-1108.1,421.9c-0.9,3-7.7,4.2-11.7,1.3c1.1-0.9,2.2-1.7,2.3-1.8C-1113.9,421.6-1111.1,421.8-1108.1,421.9z"/>
<path d="M-1118.1,403.6c1.9,0.8,3.8,2.4,5.6,2.3c1.5-0.2,2.8-2.4,5.2-4.7c-0.8,2.4-0.9,4.6-2,5.6c-1.1,1-3.9,1.5-4.9,0.8
	c-1.6-1.2-2.4-3.5-3.5-5.4C-1117.8,402.6-1118,403.1-1118.1,403.6z"/>
<path d="M-1119.2,332.4c-0.2-0.4-0.6-1.4-1.1-2.9c4.4,0,8.4,0,12.4,0c0.1,0.3,0.1,0.7,0.2,1
	C-1111.3,331.1-1114.9,331.7-1119.2,332.4z"/>
<path class="st1" d="M-1107.9,414.9c-2.4,1.1-3.6,2.2-4.8,2.1c-0.9-0.1-1.8-1.5-2.6-2.3c1-0.9,2-2.3,3-2.4
	C-1111.3,412.2-1110.1,413.5-1107.9,414.9z"/>
<path class="st1" d="M-1107.9,467.5c-2.3,1.3-3.4,2.6-4.5,2.5c-1.1-0.1-2-1.5-3-2.4c0.9-0.8,1.8-2.2,2.7-2.2
	C-1111.5,465.3-1110.3,466.4-1107.9,467.5z"/>
<text transform="matrix(0.9345 -0.3559 0.3559 0.9345 44.8163 169.4213)" class="st1 st2 st3">!</text>
<text transform="matrix(0.9937 0.1122 -0.1122 0.9937 65.0724 117.9546)" class="st1 st2 st4">!</text>
</svg>
