<?xml version="1.0" encoding="utf-8"?>
<!-- Generator: Adobe Illustrator 25.0.1, SVG Export Plug-In . SVG Version: 6.00 Build 0)  -->
<svg version="1.1" id="Layer_1" xmlns="http://www.w3.org/2000/svg" xmlns:xlink="http://www.w3.org/1999/xlink" x="0px" y="0px"
	 viewBox="0 0 202.6 202" style="enable-background:new 0 0 202.6 202;" xml:space="preserve">
<style type="text/css">
	.st0{fill:#EE7841;}
	.st1{fill:#FFFFFF;}
	.st2{fill:none;}
</style>
<path class="st0" d="M115.3,184.1h-28c-35.4,0-64.1-28.7-64.1-64.1V81.9c0-35.4,28.7-64.1,64.1-64.1h28c35.4,0,64.1,28.7,64.1,64.1
	v38.2C179.3,155.5,150.7,184.1,115.3,184.1z"/>
<g>
	<path class="st1" d="M702.5,144.9c-0.7,2.1-1.1,4.3-1.1,6.7c0,11.3,9.2,20.5,20.5,20.5c11.3,0,20.5-9.2,20.5-20.5
		c0-8.1-4.7-15.2-11.6-18.5c-2.7-1.3-5.7-2-8.9-2C712.9,131.1,705.3,136.9,702.5,144.9z"/>
	<path class="st2" d="M701,149.4c0-2.3,0.4-4.6,1.1-6.7c2.8-8.1,10.4-13.8,19.4-13.8c3.2,0,6.2,0.7,8.9,2c3.2,1.5,5.9,3.8,7.9,6.7
		l13.5-13.5l-20.8-20.8c0,0,0,0,0,0c0,8.8,0,17.6,0,26.3c-2.9-1.4-6.1-2.2-9.5-2.2c-9.6,0-17.7,6.2-20.6,14.7c0-8,0-16,0-24.1
		c0-0.3,0-0.5,0-0.8c-0.1-2.5-1.2-4.5-3.2-6c-1.4-1-2.9-1.4-4.6-1.4c-4.9,0-9.7,0-14.6,0c-0.2,0-0.4,0-0.6,0
		c-3.1,0.2-5.3,1.8-6.6,4.6c-0.5,1-0.6,2.1-0.6,3.2c0,12.3,0,24.5,0,36.8c0,0.2,0,0.4,0,0.6c-6.5,0-13.1,0-19.6,0l34.7,34.7
		l23.9-23.9C704.4,162.5,701,156.3,701,149.4z M697.3,155.3h-23v-36.4c0-3.1,2.5-5.7,5.7-5.7h11.7c3.1,0,5.7,2.5,5.7,5.7V155.3z"/>
	<path class="st2" d="M640.6,140.3c0-12.3,0-24.6,0-36.8l-20.7,20.7l20.7,20.7C640.6,143.3,640.6,141.8,640.6,140.3z"/>
	<path class="st1" d="M691.6,113.3H680c-3.1,0-5.7,2.5-5.7,5.7v36.4h23v-36.4C697.3,115.8,694.8,113.3,691.6,113.3z"/>
	<path class="st1" d="M670.7,154.7c0-12.4,0-24.7,0-37.1c0-1,0.2-2,0.6-2.9c1.3-2.8,3.5-4.4,6.6-4.6c0.2,0,0.4,0,0.6,0
		c4.9,0,9.7,0,14.6,0c1.7,0,3.3,0.5,4.7,1.5c2,1.5,3,3.5,3.1,5.9c0,0.3,0,0.5,0,0.8c0,8,0,16,0,24.1c2.9-8.6,11.1-14.7,20.6-14.7
		c3.4,0,6.6,0.8,9.5,2.2c0-8.8,0-17.6,0-26.3c0,0,0,0,0,0l-40.1-40.1c-2.8-2.8-7.2-2.8-10,0l-40.2,40.2c0,12.3,0,24.6,0,36.8
		c0,1.5,0,3,0,4.5l0,0.3c0,5.7,4.6,10.2,10.2,10.2h0.3c6.5,0,13.1,0,19.6,0C670.7,155.1,670.7,154.9,670.7,154.7z"/>
	<path class="st1" d="M731.8,72.4c0-8.3,0-16.5,0-24.8c0-2.3-0.8-4.2-2.4-5.8c-1.3-1.2-2.8-1.9-4.6-2c-0.2,0-0.4,0-0.5,0
		c-2.5,0-5,0-7.5,0c-3.6,0-6.6,2.5-7.3,5.8c-0.1,0.6-0.2,1.2-0.2,1.7c0,1.1,0,2.2,0,3.3C709.3,50.6,731.4,72.1,731.8,72.4z"/>
	<path class="st1" d="M744.4,90.4c-0.9-1.1-1.9-2.2-2.9-3.2c-3.4-3.4-6.8-6.8-10.2-10.1c-0.3-0.3-31.1-31-34.8-34.8
		c-1.5-1.5-3-3.1-4.6-4.5c-0.7-0.6-1.4-1.3-2.1-1.7c-2.7-1.7-5.5-1.7-8.2,0c-0.7,0.5-1.4,1-2.1,1.7c-3.3,3.2-6.5,6.4-9.8,9.7
		c-13.3,13.3-26.6,26.6-39.9,39.9c-0.9,0.9-1.7,1.8-2.5,2.7c-0.9,1.1-1.5,2.3-1.8,3.7c0,0.2-0.1,0.3-0.2,0.5v1.8
		c0.1,0.2,0.2,0.4,0.2,0.6c0.6,3.3,3.3,5.8,6.7,6c0.5,0,1,0,1.5,0c0.6,0,1.3,0,1.9,0l45.1-45.1c2.8-2.8,7.2-2.8,10,0l45.1,45.1
		c0.8,0,1.6,0,2.3,0c1.3,0,2.5-0.2,3.6-0.8c2.2-1.1,3.6-2.9,4-5.3C746.2,94.3,745.9,92.2,744.4,90.4z"/>
</g>
<g>
	<path class="st1" d="M39.6,79.5c0-0.6,0-1.1,0-1.7c0.8-1.6,2.2-1.8,3.7-1.6c6.6,1,13.2,0.8,19.8-0.4c5.8-1,11.4-2.8,16.9-5
		c5.4-2.1,10.7-4.4,16-6.7c5.5-2.3,11-4.5,16.8-5.9c3.2-0.8,6.4-1.7,9.7-1.9c4.9-0.3,9.8-0.2,14.6-0.1c4.2,0.1,7.2,2.5,8.9,6.3
		c2.5,5.5,4.7,11.1,7.1,16.7c2.5,6,5.1,12.1,7.6,18.1c0.7,1.8,1.5,3.5,2.1,5.3c0.6,1.8-0.4,3-2.3,3.1c-0.5,0-1.1,0-1.6-0.1
		c-0.9-0.1-1.7-0.2-2.6-0.3c-7.8-0.8-15.5,0.1-23.1,2.2c-5.3,1.4-10.4,3.4-15.4,5.5c-7.4,3.1-14.6,6.4-22.2,9
		c-4.5,1.5-9,2.7-13.7,3.4c-5.8,0.9-11.7,1-17.5,0.1c-3.7-0.6-6.3-2.7-7.8-6c-2.8-6.4-5.4-12.8-8.1-19.2c-2.4-5.7-4.8-11.3-7.2-17
		C40.7,82,40.1,80.7,39.6,79.5z M102,110.2c0.8,0,1.7,0,2.5-0.1c4.2-0.8,7.8-2.7,10.6-5.8c3.7-4.1,5.6-9,5.1-14.5
		c-0.6-6.2-3.6-11.1-8.8-14.7c-4.2-2.9-8.9-4-13.9-3.1c-3.5,0.6-6.4,2.3-9,4.6c-3.1,2.9-5.2,6.4-5.9,10.6c-0.9,5,0.1,9.7,2.9,14
		C89.5,107,95,109.9,102,110.2z"/>
	<path class="st1" d="M39.6,97.8c0.7-1.3,1.8-1.7,3.2-1.6c0.7,0,1,0.3,1.3,0.9c1.3,3.1,2.6,6.1,3.8,9.2c2.5,5.9,4.9,11.8,7.4,17.6
		c0.9,2,1.5,4.1,3,5.8c2,2.2,4.4,3.4,7.3,3.7c3.9,0.4,7.9,0.6,11.8,0.2c5.2-0.4,10.3-1.4,15.2-3.1c5.1-1.8,10.1-3.7,15.1-5.7
		c5.8-2.3,11.5-4.8,17.4-7.1c6.7-2.6,13.5-4.3,20.7-4.9c4.3-0.3,8.5-0.3,12.8,0.4c0.3,0,0.7,0.3,0.8,0.6c1.1,2.6,2.2,5.2,3.3,7.8
		c0.3,0.7,0.4,1.6,0.3,2.4c0,0.9-0.7,1.5-1.5,1.6c-1.1,0.1-2.2,0.1-3.3,0c-5.4-0.7-10.9-0.6-16.3,0.2c-7,1-13.6,3.1-20.1,5.7
		c-5.9,2.4-11.7,4.9-17.6,7.4c-5.9,2.4-11.9,4.6-18.2,5.9c-2.1,0.4-4.3,0.7-6.4,1.1c-4.6,0-9.2,0-13.7,0c-0.4-0.1-0.8-0.2-1.2-0.3
		c-3.8-0.6-6.4-2.7-7.9-6.1c-2.3-5.2-4.4-10.4-6.6-15.6c-2.2-5.3-4.5-10.6-6.8-15.9c-1.2-2.8-2.4-5.6-3.6-8.4
		C39.6,98.9,39.6,98.3,39.6,97.8z"/>
	<g>
		<path class="st1" d="M156.7,130c-3.3,0-6.5,0.2-9.8,0.6c-7.7,1-15.1,3.1-22.3,5.7c-6.5,2.4-13,4.9-19.6,7.4
			c-6.6,2.4-13.2,4.6-20.2,5.9c-2.4,0.4-4.7,0.7-7.1,1.1H62.5c-0.5-0.1-0.9-0.2-1.4-0.3c-0.6-0.1-1.2-0.2-1.8-0.4
			c1.5,1.5,3.4,2.5,5.8,2.9c0.4,0.1,0.8,0.2,1.2,0.3h13.7c2.1-0.4,4.3-0.7,6.4-1.1c6.3-1.3,12.3-3.5,18.2-5.9
			c5.9-2.4,11.7-5,17.6-7.4c6.5-2.6,13.2-4.7,20.1-5.7c4.7-0.7,9.4-0.8,14-0.4C156.4,131.8,156.5,130.9,156.7,130z"/>
		<path class="st1" d="M163.6,130.3c-1.2-0.1-2.3-0.2-3.5-0.2c0,0,0,0,0,0c0,0,0,0,0,0.1c0,0,0,0,0,0.1c-0.1,0.1-0.1,0.2-0.2,0.4
			c0,0,0,0.1,0,0.1c-0.1,0.2-0.1,0.3-0.1,0.5c0,0,0,0.1,0,0.1c0,0.2,0,0.3,0,0.5c0,0.1,0,0.1,0,0.2c0.1,0.3,0.1,0.6,0.2,0.9
			c0,0,0,0.1,0,0.1c0,0,0,0,0,0c0.7,0,1.5,0,2.2,0c0.9-0.1,1.5-0.7,1.5-1.6C163.6,131,163.6,130.7,163.6,130.3z"/>
	</g>
	<path class="st1" d="M101.9,93.7c-1.6,0-3.2,0.1-4.8,0c-6.1-0.5-7.2-6.8-4.8-10.1c0.5-0.7,1-1.4,1.6-1.9c0.6-0.6,0.7-1.1,0.4-1.8
		c-1.1-2.2-0.6-2.2,1.3-3c0.3-0.1,0.6-0.3,0.9-0.4c0.6-0.2,1-0.1,1.3,0.5c0.9,1.8,0.9,1.8,2.9,1.3c0.8-0.2,1.7-0.3,2.5-0.4
		c0.6-0.1,0.9,0.2,1,0.8c0.2,1.1,0.4,2.2,0.6,3.2c0.1,0.7-0.2,1-1,1.1c-1.5,0.3-3,0.6-4.5,1.1c-0.6,0.2-1.1,0.7-1.5,1.1
		c-0.7,0.8-0.5,1.7,0.6,1.9c1.1,0.2,2.2,0.3,3.3,0.2c2-0.2,3.9-0.2,5.8,0.6c3.2,1.3,4.8,5.2,3.6,8.4c-0.6,1.4-1.4,2.6-2.6,3.6
		c-0.7,0.6-0.8,1.2-0.4,2c1,2.2,1,2.2-1.2,3.3c-0.3,0.1-0.5,0.3-0.8,0.3c-0.6,0.1-1.1,0.1-1.4-0.6c-0.9-2.1-0.9-2.1-3.2-1.5
		c-1,0.2-2.1,0.3-3.2,0.4c-0.6,0.1-1.1-0.3-1.2-0.9c-0.2-1.1-0.4-2.2-0.6-3.3c-0.1-0.7,0.2-1,0.9-1.1c1.7-0.3,3.4-0.5,5.1-1
		c0.7-0.2,1.5-0.7,2.1-1.3c0.9-0.8,0.6-2-0.5-2.3c-0.7-0.2-1.4-0.2-2.2-0.3C101.9,93.6,101.9,93.7,101.9,93.7z"/>
</g>
<polygon class="st0" points="94.9,112 64.3,120.2 50.7,83.8 78.6,77.4 78.2,76.4 48.9,83.3 63.3,121.8 95.3,113 "/>
<polygon class="st0" points="111.9,69.4 140.5,61.6 156.1,97.5 128.2,103.9 128.6,105 158,98 141.6,60 111.5,68.3 "/>
<path class="st0" d="M77.7,97c0.1-0.2,0.2-0.4,0.4-0.5l-8.4-3.8c-0.4-0.2-0.8,0-1,0.3l-4.2,7.4c0.4,0.2,0.7,0.4,1,0.7l3.5-6.2
	c0.2-0.3,0.6-0.5,1-0.3l7.3,3.3C77.5,97.5,77.6,97.2,77.7,97z"/>
<path class="st0" d="M133.7,87c0.2,0.1,0.4,0.2,0.5,0.4l0.8-1.9c1.8-4,0.3-8.8-3.6-11l-1.2-0.7c-0.2,0.4-0.4,0.7-0.7,1l0,0
	c3.8,2.2,5.4,7,3.5,11l-0.4,0.8C133.1,86.7,133.4,86.8,133.7,87z"/>
</svg>
