<?xml version="1.0" encoding="utf-8"?>
<!-- Generator: Adobe Illustrator 25.0.1, SVG Export Plug-In . SVG Version: 6.00 Build 0)  -->
<svg version="1.1" id="Layer_1" xmlns="http://www.w3.org/2000/svg" xmlns:xlink="http://www.w3.org/1999/xlink" x="0px" y="0px"
	 viewBox="0 0 202.6 202" style="enable-background:new 0 0 202.6 202;" xml:space="preserve">
<style type="text/css">
	.st0{fill:#EE7841;}
	.st1{fill:#FFFFFF;}
	.st2{fill:none;}
</style>
<image style="overflow:visible;" width="60" height="65" xlink:href="25B3B034.jpg"  transform="matrix(1 0 0 1 -89.5 50.8898)">
</image>
<path class="st0" d="M115.3,184.1h-28c-35.4,0-64.1-28.7-64.1-64.1V81.9c0-35.4,28.7-64.1,64.1-64.1h28c35.4,0,64.1,28.7,64.1,64.1
	v38.2C179.3,155.5,150.7,184.1,115.3,184.1z"/>
<g>
	<path class="st1" d="M112.3,144.9c-0.7,2.1-1.1,4.3-1.1,6.7c0,11.3,9.2,20.5,20.5,20.5s20.5-9.2,20.5-20.5
		c0-8.1-4.7-15.2-11.6-18.5c-2.7-1.3-5.7-2-8.9-2C122.7,131.1,115,136.9,112.3,144.9z"/>
	<path class="st2" d="M110.7,149.4c0-2.3,0.4-4.6,1.1-6.7c2.8-8.1,10.4-13.8,19.4-13.8c3.2,0,6.2,0.7,8.9,2c3.2,1.5,5.9,3.8,7.9,6.7
		l13.5-13.5l-20.8-20.8c0,0,0,0,0,0c0,8.8,0,17.6,0,26.3c-2.9-1.4-6.1-2.2-9.5-2.2c-9.6,0-17.7,6.2-20.6,14.7c0-8,0-16,0-24.1
		c0-0.3,0-0.5,0-0.8c-0.1-2.5-1.2-4.5-3.2-6c-1.4-1-2.9-1.4-4.6-1.4c-4.9,0-9.7,0-14.6,0c-0.2,0-0.4,0-0.6,0
		c-3.1,0.2-5.3,1.8-6.6,4.6c-0.5,1-0.6,2.1-0.6,3.2c0,12.3,0,24.5,0,36.8c0,0.2,0,0.4,0,0.6c-6.5,0-13.1,0-19.6,0L95.6,190
		l23.9-23.9C114.2,162.5,110.7,156.3,110.7,149.4z M107.1,155.3h-23v-36.4c0-3.1,2.5-5.7,5.7-5.7h11.7c3.1,0,5.7,2.5,5.7,5.7V155.3z
		"/>
	<path class="st2" d="M50.3,140.3c0-12.3,0-24.6,0-36.8l-20.7,20.7l20.7,20.7C50.3,143.3,50.3,141.8,50.3,140.3z"/>
	<path class="st1" d="M101.4,113.3H89.7c-3.1,0-5.7,2.5-5.7,5.7v36.4h23v-36.4C107.1,115.8,104.5,113.3,101.4,113.3z"/>
	<path class="st1" d="M80.5,154.7c0-12.4,0-24.7,0-37.1c0-1,0.2-2,0.6-2.9c1.3-2.8,3.5-4.4,6.6-4.6c0.2,0,0.4,0,0.6,0
		c4.9,0,9.7,0,14.6,0c1.7,0,3.3,0.5,4.7,1.5c2,1.5,3,3.5,3.1,5.9c0,0.3,0,0.5,0,0.8c0,8,0,16,0,24.1c2.9-8.6,11.1-14.7,20.6-14.7
		c3.4,0,6.6,0.8,9.5,2.2c0-8.8,0-17.6,0-26.3c0,0,0,0,0,0l-40.1-40.1c-2.8-2.8-7.2-2.8-10,0l-40.2,40.2c0,12.3,0,24.6,0,36.8
		c0,1.5,0,3,0,4.5l0,0.3c0,5.7,4.6,10.2,10.2,10.2h0.3c6.5,0,13.1,0,19.6,0C80.5,155.1,80.5,154.9,80.5,154.7z"/>
	<path class="st1" d="M141.5,72.4c0-8.3,0-16.5,0-24.8c0-2.3-0.8-4.2-2.4-5.8c-1.3-1.2-2.8-1.9-4.6-2c-0.2,0-0.4,0-0.5,0
		c-2.5,0-5,0-7.5,0c-3.6,0-6.6,2.5-7.3,5.8c-0.1,0.6-0.2,1.2-0.2,1.7c0,1.1,0,2.2,0,3.3C119,50.6,141.1,72.1,141.5,72.4z"/>
	<path class="st1" d="M154.2,90.4c-0.9-1.1-1.9-2.2-2.9-3.2c-3.4-3.4-6.8-6.8-10.2-10.1c-0.3-0.3-31.1-31-34.8-34.8
		c-1.5-1.5-3-3.1-4.6-4.5c-0.7-0.6-1.4-1.3-2.1-1.7c-2.7-1.7-5.5-1.7-8.2,0c-0.7,0.5-1.4,1-2.1,1.7c-3.3,3.2-6.5,6.4-9.8,9.7
		C66.3,60.7,53,74,39.7,87.3c-0.9,0.9-1.7,1.8-2.5,2.7c-0.9,1.1-1.5,2.3-1.8,3.7c0,0.2-0.1,0.3-0.2,0.5v1.8c0.1,0.2,0.2,0.4,0.2,0.6
		c0.6,3.3,3.3,5.8,6.7,6c0.5,0,1,0,1.5,0c0.6,0,1.3,0,1.9,0l45.1-45.1c2.8-2.8,7.2-2.8,10,0l45.1,45.1c0.8,0,1.6,0,2.3,0
		c1.3,0,2.5-0.2,3.6-0.8c2.2-1.1,3.6-2.9,4-5.3C156,94.3,155.6,92.2,154.2,90.4z"/>
</g>
</svg>
