<?xml version="1.0" encoding="utf-8"?>
<!-- Generator: Adobe Illustrator 25.0.1, SVG Export Plug-In . SVG Version: 6.00 Build 0)  -->
<svg version="1.1" id="Layer_1" xmlns="http://www.w3.org/2000/svg" xmlns:xlink="http://www.w3.org/1999/xlink" x="0px" y="0px"
	 viewBox="0 0 202 202" style="enable-background:new 0 0 202 202;" xml:space="preserve">
<style type="text/css">
	.st0{fill:#F17658;}
</style>
<path class="st0" d="M134.8,84.3c-0.4,9.9-3,19.1-8.5,27.4c-0.8,1.3-0.8,2,0.3,3.1c12.6,12.5,25.1,25.1,37.7,37.6
	c1.7,1.7,3.3,3.5,3.5,6.1c0.3,3.6-1.4,6.9-4.5,8.4c-3.3,1.6-6.9,1.2-9.6-1.4c-3.4-3.2-6.7-6.6-10-9.9c-9.7-9.7-19.4-19.3-29-29.1
	c-1-1.1-1.7-1.1-2.9-0.3c-30.8,19.8-71,2-77-34c-4.7-28.4,16.4-55.4,45-57.8c25.5-2.1,48.1,14.5,53.5,39.3
	C134.1,77.1,134.3,80.7,134.8,84.3z M84.3,117.7c18.6,0,33.4-14.9,33.4-33.5c0-18.4-14.9-33.3-33.4-33.3c-18.5,0-33.3,15-33.3,33.6
	C51,102.7,66,117.7,84.3,117.7z"/>
</svg>
