<svg id="Layer_1" data-name="Layer 1" xmlns="http://www.w3.org/2000/svg" viewBox="0 0 202 202"><defs><style>.cls-1{fill:#ef7841;}.cls-2{fill:#b55130;}.cls-3{fill:#f0e6cb;}</style></defs><rect class="cls-1" width="202" height="202" rx="24.5"/><path class="cls-2" d="M374.78,406.44c-7.38-3.85-14.77-7.05-21.21-12.64-.16,0-2.45.61-2.62.6-12.27,0-22-2.39-32.75-7-9.48,4.1-18.83,3.58-29.54,3.18-1.29,0-2.58,0-3.85-.09a65.24,65.24,0,0,1-6.44,2.21,67.5,67.5,0,0,1-13.14,5.85,67.54,67.54,0,0,1-8.65,3.82,67.49,67.49,0,0,1-23,12.8c-1.72.9-3.47,1.72-5.23,2.47,1.69,3.25-8.89,11.4-7.23,14.66,14.76,29,66.14,86.07,68.87,89.17H374.5A24.5,24.5,0,0,0,399,497V474.36C398.46,472.86,375.24,411.88,374.78,406.44Z" transform="translate(-197 -319.5)"/><path class="cls-3" d="M375.33,403.36c.39,4.11,1,7.95,1,11.8a92.33,92.33,0,0,1-.9,14.3c-.22,1.46-2.18,3.2-3.72,3.78-2.51.95-5.34,1.05-8.43,1.57,0-1.33-.07-2.17,0-3A15.11,15.11,0,0,0,349,414.88c-8.49-.53-15.77,6.48-15.83,15.25,0,5.78,0,5.79-5.73,5.75l-62.52-.46H261a29.8,29.8,0,0,1,0-3.18c.73-6.35-1.62-11.38-6.86-14.83a15.11,15.11,0,0,0-23.26,14.29c.33,3.09-.4,3.88-3.28,3-1.27-.39-2.6-.52-3.89-.84-2.55-.62-3.54-2.09-3.21-4.87a20.23,20.23,0,0,0-.43-6.84c-1-4.58-.16-7.41,3.85-9.89,8-4.94,17.09-6.41,26.22-7.7a22,22,0,0,0,7.47-2.28c20.64-11.38,42.63-16.07,66.17-14.61,16,1,30.84,5.54,45.06,12.59C371.05,401.36,373.26,402.37,375.33,403.36ZM266.06,405.2c2,.16,3.09.36,4.16.32,15.16-.6,30.32-1.09,45.46-1.9,9.73-.51,19.43-1.42,29.13-2.34,2.24-.22,4.4-1.21,6.6-1.84V398a30.47,30.47,0,0,0-4.56-2.07c-18.95-5.29-38.12-6.74-57.44-2.46A51.16,51.16,0,0,0,266.06,405.2ZM374,405l-8.31,5,.38,1.08h8.39C374.33,409.37,374.21,407.77,374,405Zm-139.48,6.34c-5.29-.64-9.63.81-11.2,3.54C227.47,415.73,230.65,414.76,234.52,411.37Zm74.53-2.26-.13-1.24L295.64,409l.12,1.19Z" transform="translate(-197 -319.5)"/><path class="cls-3" d="M232.71,429.77a13.13,13.13,0,1,1,13.16,13.37A13.12,13.12,0,0,1,232.71,429.77Zm7.24,5.51,3.42-4.43-5.53-.78Zm4.39-7.38-1.12-5.48-4.15,3.34Zm7.9-2.95-4.7-2.64v5.21Zm1.51,4.15-5.17,1.52,3.88,3.53Zm-7.56,3.37-2.41,4.72h5Z" transform="translate(-197 -319.5)"/><path class="cls-3" d="M348.36,416.59a13.17,13.17,0,1,1-13.2,12.91A13.07,13.07,0,0,1,348.36,416.59Zm-8.21,13.28,2.37,5.13,3.27-4.26Zm6.57-2-1.05-5.64-4.05,3.37Zm3.27-.43,4.56-2.64L350,422.16Zm-1.52,4.92-2.34,5,5.25-.27Zm7.73-3.24L351,430.41l4,3.54Z" transform="translate(-197 -319.5)"/></svg>