<svg id="Layer_1" data-name="Layer 1" xmlns="http://www.w3.org/2000/svg" viewBox="0 0 202.58 202"><defs><style>.cls-1{fill:#ef7841;}.cls-2{fill:#b55130;}.cls-3{fill:#f0e6cb;}</style></defs><rect class="cls-1" width="202" height="202" rx="24.5"/><path class="cls-2" d="M351.77,378.72c-12.27,0-103.75,14.76-105.93,20.5-2.82,1.48-6.5,56.33-4.84,59.6,14.76,29,46.55,59.58,49.28,62.68h84.51a24.5,24.5,0,0,0,24.5-24.5V474.36C398.75,472.86,351.94,378.73,351.77,378.72Z" transform="translate(-196.71 -319.5)"/><path class="cls-3" d="M294.69,397.63h49.44c3.57,0,4.39.83,4.39,4.45q0,27.69,0,55.39c0,2.95-1,4-3.88,4H245c-3.21,0-4.1-.91-4.1-4.16q0-27.9,0-55.79c0-2.95.94-3.89,4-3.9Zm-.07,59.83q17.17,0,34.37,0c2.4,0,3.09-.82,2.83-3.2-.7-6.18,3.46-10.07,9.66-9,1.93.32,3.07-.48,3.07-2.39q.06-13.23,0-26.46c0-1.93-1.14-2.81-3-2.51-6.4,1.05-10.48-2.79-9.71-9.12.26-2.12-.46-3-2.58-3.08-2.77-.05-5.54,0-8.3,0H260.9c-2.89,0-3.56.67-3.32,3.15.63,6.42-3.38,10.14-9.75,9.06-1.77-.3-3,.54-3,2.35q-.08,13.32,0,26.65c0,1.89,1.25,2.75,3.08,2.38,5.85-1.18,10.29,2.76,9.71,8.62-.3,3,.23,3.61,3.37,3.61Q277.81,457.48,294.62,457.46Z" transform="translate(-196.71 -319.5)"/><path class="cls-3" d="M261.78,393.32l11.11-1.95,52.66-9.09c7.66-1.32,15.32-2.68,23-4,2.91-.49,4,.38,4.5,3.28q4.51,26.13,9,52.27c.11.63.24,1.26.32,1.9.26,2-.56,3.31-2.49,3.7-2.32.48-4.68.8-7.25,1.23V401.78c0-5.38-2.83-8.21-8.2-8.21l-81.3,0h-1.34Z" transform="translate(-196.71 -319.5)"/><path class="cls-3" d="M260.52,389.12q8.12-2.75,16.22-5.49l63.2-21.28c3.25-1.09,4.35-.57,5.47,2.72,1,3,2,5.94,3,9.08l-87.88,15.19Z" transform="translate(-196.71 -319.5)"/><path class="cls-3" d="M294.73,409.46a20.11,20.11,0,1,1-20.15,20A20,20,0,0,1,294.73,409.46Zm1.83,11.25.53-.08c.22.52.47,1,.66,1.56.39,1.07,1.08,2.06,2.23,1.44a3.16,3.16,0,0,0,1.35-2.38c0-2.22-1.56-3.51-3.41-4.54-.63-.35-1-1.1-1.59-1.6s-1.07-1-1.6-1-1.11.61-1.57,1.06-.58,1.13-1,1.4c-5.17,3-5.33,8.33-.32,11.73.48.33,1.14.87,1.17,1.34.12,2.27,0,4.54,0,6.82l-.57.2a14.42,14.42,0,0,1-1.87-2.52c-.54-1.18-1.12-2.16-2.54-1.68s-1.68,1.81-1.21,3.19a7.26,7.26,0,0,0,4.65,4.55c.87.33,1.63.54,1.67,1.77,0,.41,1,1.12,1.45,1.11s1.23-.6,1.75-1,1-1.38,1.68-1.69a7.16,7.16,0,0,0,4.52-6c.43-3.73-1.64-5.86-4.55-7.56-.55-.32-1.32-.85-1.38-1.35A41.07,41.07,0,0,1,296.56,420.71Z" transform="translate(-196.71 -319.5)"/><path class="cls-3" d="M296.63,436.58V431l.52-.32c.57.92,1.45,1.78,1.62,2.77C299,434.82,298.19,435.91,296.63,436.58Z" transform="translate(-196.71 -319.5)"/></svg>