<?xml version="1.0" encoding="utf-8"?>
<!-- Generator: Adobe Illustrator 25.0.1, SVG Export Plug-In . SVG Version: 6.00 Build 0)  -->
<svg version="1.1" id="Layer_1" xmlns="http://www.w3.org/2000/svg" xmlns:xlink="http://www.w3.org/1999/xlink" x="0px" y="0px"
	 viewBox="0 0 202.6 202" style="enable-background:new 0 0 202.6 202;" xml:space="preserve">
<style type="text/css">
	.st0{fill:#EF7841;}
	.st1{fill:#B55130;}
	.st2{fill:none;stroke:#F0E6CB;stroke-width:2.8346;stroke-miterlimit:10;}
	.st3{fill:#F0E6CB;}
</style>
<path class="st0" d="M24.5,0h153C191,0,202,11,202,24.5v153c0,13.5-11,24.5-24.5,24.5h-153C11,202,0,191,0,177.5v-153
	C0,11,11,0,24.5,0z"/>
<path class="st1" d="M56.1,103.3l-7.8,2.4L0,151.3c0.4,8.6-1.3,20.8,0.4,31.1C2.1,192.4,12,202,24.5,202h153
	c6.5-0.1,30.7-0.9,25.1-50.7l-53-48.5L56.1,103.3z"/>
<g>
	<path class="st2" d="M145.3,125.3H59.6c-6.3,0-11.3-5.1-11.3-11.3l0,0c0-6.3,5.1-11.3,11.3-11.3h85.8c6.3,0,11.3,5.1,11.3,11.3l0,0
		C156.7,120.3,151.6,125.3,145.3,125.3z"/>
	<path class="st3" d="M118.6,117.7c-0.5,0.8-0.9,1.5-1.3,2.4c-1.7-1.2-3.2-2.3-5-3.5c0,2,0,4,0,5.9c-0.7,0-1.5,0.1-2.1,0
		c-0.1,0-0.3-0.4-0.3-0.6c0-1.5,0-2.8,0-4.3c0-0.3,0-0.5,0-1c-1.7,1.2-3.2,2.2-4.9,3.4c-0.4-0.8-0.8-1.5-1.1-2.2
		c-0.1-0.1,0.2-0.5,0.4-0.6c1.3-0.9,2.6-1.8,3.9-2.7c0.3-0.1,0.5-0.3,0.8-0.5c-1.8-1.3-3.4-2.4-5.2-3.7c0.5-0.8,0.9-1.5,1.4-2.4
		c1.6,1.1,3,2.2,4.8,3.4c0-0.7,0-1.3,0-1.9c0-1,0-2,0-3c0-0.5,0.2-0.7,0.7-0.7c0.6,0,1.2,0,1.9,0c0,1.9,0,3.7,0,5.7
		c1.7-1.2,3.2-2.2,4.9-3.4c0.5,0.7,0.9,1.5,1.5,2.2c-1.8,1.3-3.4,2.4-5.3,3.8C115.2,115.2,116.9,116.4,118.6,117.7z"/>
	<path class="st3" d="M127.3,116.6c-1.7,1.2-3.2,2.2-4.8,3.4c-0.4-0.8-0.8-1.5-1.1-2.2c-0.1-0.1,0.2-0.5,0.3-0.6
		c1.3-0.9,2.6-1.9,4-2.8c0.2-0.1,0.4-0.3,0.7-0.5c-1.7-1.3-3.4-2.4-5.2-3.7c0.5-0.8,0.9-1.5,1.4-2.4c1.6,1.1,3,2.2,4.7,3.4
		c0-1.2,0-2.2,0-3.2c0-0.6,0-1.2,0-1.8c0-0.4,0.1-0.7,0.6-0.6h0.1c1.9-0.1,1.9-0.1,1.9,1.8c0,1.3,0,2.4,0,3.9
		c0.9-0.6,1.7-1.2,2.4-1.7s1.5-1.1,2.4-1.7c0.5,0.8,0.9,1.5,1.5,2.2c-1.8,1.3-3.4,2.4-5.3,3.7c1.8,1.3,3.5,2.5,5.2,3.8
		c-0.4,0.7-0.7,1.4-1.1,2c-0.2,0.4-0.5,0.3-0.7,0.1c-1.3-0.9-2.6-1.9-3.9-2.8c-0.1-0.1-0.3-0.2-0.5-0.3c0,2,0,3.9,0,5.9
		c-0.8,0-1.5,0-2.2,0c-0.1,0-0.3-0.4-0.3-0.6c0-1.5,0-2.9,0-4.4C127.3,117.4,127.3,117.1,127.3,116.6z"/>
	<path class="st3" d="M77.5,111.3c1.7-1.2,3.2-2.2,4.9-3.4c0.5,0.8,0.9,1.5,1.5,2.2c-1.8,1.3-3.4,2.4-5.3,3.7c1.1,0.8,2,1.5,3,2.2
		c0.6,0.4,1.1,0.9,1.7,1.2c0.4,0.3,0.5,0.5,0.2,0.9c-0.3,0.4-0.5,0.8-0.7,1.2c-0.3,0.5-0.5,0.6-1,0.3c-1.3-0.9-2.4-1.8-3.7-2.6
		c-0.1-0.1-0.3-0.2-0.6-0.3c0,2,0,3.9,0,5.8c-0.9,0-1.7,0-2.5,0c0-1.9,0-3.8,0-5.9c-1.7,1.2-3.2,2.3-4.9,3.4
		c-0.5-0.9-0.9-1.7-1.3-2.5c1.7-1.2,3.4-2.4,5.2-3.6c-1.7-1.3-3.4-2.4-5.2-3.7c0.5-0.8,0.9-1.5,1.4-2.4c1.6,1.1,3.1,2.2,4.8,3.4
		c0-1.1,0-2,0-2.9c0-0.2,0-0.5,0-0.7c0-2.2,0.1-2.4,2.5-1.9C77.5,107.5,77.5,109.4,77.5,111.3z"/>
	<path class="st3" d="M91.5,113.9c-1.8-1.3-3.4-2.4-5.2-3.7c0.5-0.8,0.9-1.5,1.4-2.4c1.6,1.1,3.1,2.2,4.7,3.4c0-0.3,0.1-0.5,0.1-0.8
		c0-1.4,0-2.7,0-4.1c0-0.6,0.2-0.8,0.8-0.7c0.5,0.1,1.1,0,1.7,0c0,1.9,0,3.7,0,5.7c1.7-1.2,3.3-2.2,4.9-3.4c0.5,0.8,0.9,1.5,1.5,2.2
		c-1.7,1.3-3.5,2.4-5.3,3.8c1.8,1.3,3.5,2.5,5.2,3.8c-0.5,0.8-0.9,1.6-1.3,2.4c-1.7-1.2-3.2-2.2-4.9-3.5c0,2,0,4,0,5.9
		c-0.8,0-1.5,0-2.1,0c-0.5,0-0.5-0.3-0.5-0.6c0-1.5,0-3,0-4.5c0-0.3,0-0.5,0-0.9c-1.7,1.2-3.2,2.2-4.9,3.4c-0.4-0.8-0.8-1.5-1.1-2.3
		c-0.1-0.1,0.2-0.5,0.4-0.6c1.3-0.9,2.6-1.9,4-2.7C91,114.3,91.2,114.2,91.5,113.9z"/>
</g>
<g>
	<path class="st3" d="M68.2,13.9v13.6h3.4v4.7H68c-0.2,1.1-0.6,2.1-1.2,2.9s-1.3,1.5-2.2,2.1c-0.8,0.5-1.8,0.9-2.8,1.2
		c-1,0.3-2,0.4-3.1,0.4c-1.2,0-2.3-0.2-3.5-0.5c-1.1-0.4-2.1-0.9-3-1.6c-0.9-0.7-1.6-1.6-2.1-2.6s-0.8-2.3-0.8-3.7V17.1h4.7v13.4
		c0,0.6,0.1,1.2,0.4,1.6s0.6,0.9,1.1,1.2c0.4,0.3,0.9,0.5,1.5,0.7c0.6,0.2,1.1,0.2,1.7,0.2c0.6,0,1.1-0.1,1.7-0.2
		c0.6-0.2,1.1-0.4,1.5-0.7s0.8-0.7,1.1-1.2s0.4-1,0.4-1.6V13.9H68.2z M56.4,9.8c0-0.3,0.1-0.6,0.2-0.9s0.3-0.5,0.5-0.8
		c0.2-0.2,0.5-0.4,0.8-0.5c0.3-0.1,0.6-0.2,0.9-0.2c0.3,0,0.6,0.1,0.9,0.2c0.3,0.1,0.5,0.3,0.8,0.5s0.4,0.5,0.5,0.8
		c0.1,0.3,0.2,0.6,0.2,0.9c0,0.3-0.1,0.6-0.2,0.9c-0.1,0.3-0.3,0.5-0.5,0.8c-0.2,0.2-0.5,0.4-0.8,0.5c-0.3,0.1-0.6,0.2-0.9,0.2
		c-0.3,0-0.6-0.1-0.9-0.2c-0.3-0.1-0.5-0.3-0.8-0.5c-0.2-0.2-0.4-0.5-0.5-0.8S56.4,10.1,56.4,9.8z"/>
	<path class="st3" d="M70.1,27.6h9v4.7h-9V27.6z"/>
	<path class="st3" d="M77.5,27.6h9v4.7h-9V27.6z"/>
	<path class="st3" d="M84.9,27.6h9v4.7h-9V27.6z"/>
	<path class="st3" d="M92.4,27.6h3.5c0-0.2-0.1-0.5-0.1-0.7c0-0.2,0-0.5,0-0.7v-3.8c0-1.2,0.2-2.2,0.6-3.3c0.4-1,1-1.9,1.8-2.7
		c0.8-0.8,1.6-1.4,2.6-1.8c1-0.4,2.1-0.7,3.2-0.7c1.1,0,2.2,0.2,3.2,0.7c1,0.5,1.9,1.1,2.6,1.9c0.8,0.8,1.3,1.7,1.8,2.7
		c0.4,1,0.6,2.1,0.6,3.2v3.8c0,0.3,0,0.5,0,0.7c0,0.2,0,0.5-0.1,0.7h3.5v4.7h-6c-0.8,0.7-1.6,1.3-2.6,1.7c-1,0.4-2,0.6-3.1,0.6
		c-2.3,0-4.2-0.8-5.7-2.3h-6V27.6z M104.1,18.7c-0.5,0-1,0.1-1.4,0.3c-0.4,0.2-0.8,0.5-1.1,0.8c-0.3,0.3-0.6,0.7-0.8,1.2
		c-0.2,0.5-0.3,0.9-0.3,1.5v3.8c0,0.5,0.1,1,0.3,1.5c0.2,0.5,0.4,0.9,0.8,1.2c0.3,0.3,0.7,0.6,1.1,0.8c0.4,0.2,0.9,0.3,1.4,0.3
		c0.5,0,1-0.1,1.4-0.3c0.4-0.2,0.8-0.5,1.1-0.8c0.3-0.3,0.6-0.7,0.8-1.2c0.2-0.4,0.3-0.9,0.3-1.4v-3.8c0-0.5-0.1-1-0.3-1.4
		c-0.2-0.4-0.4-0.8-0.8-1.2c-0.3-0.3-0.7-0.6-1.1-0.8C105,18.8,104.6,18.7,104.1,18.7z"/>
	<path class="st3" d="M114.2,27.6h9v4.7h-9V27.6z"/>
	<path class="st3" d="M121.6,27.6h9v4.7h-9V27.6z"/>
	<path class="st3" d="M132,16c0.4-0.2,0.9-0.4,1.5-0.6c0.6-0.2,1.3-0.5,2-0.7c0.7-0.2,1.4-0.4,2.2-0.5c0.8-0.1,1.5-0.2,2.2-0.2
		c1,0,2.1,0.1,3.1,0.4c1,0.3,1.9,0.7,2.7,1.3c0.8,0.6,1.4,1.5,1.9,2.6c0.5,1.1,0.7,2.5,0.7,4.2v3.7c0,0.8-0.2,1.6-0.5,2.4
		c-0.3,0.7-0.8,1.4-1.3,1.9c-0.6,0.5-1.2,1-2,1.3c-0.7,0.3-1.5,0.5-2.4,0.5h-13v-4.7h13c0.4,0,0.8-0.1,1-0.4c0.3-0.3,0.4-0.6,0.4-1
		v-3.7c0-0.8-0.1-1.4-0.3-1.9c-0.2-0.5-0.5-0.9-0.8-1.2c-0.3-0.3-0.7-0.5-1.2-0.6c-0.4-0.1-0.9-0.2-1.3-0.2c-0.5,0-1,0.1-1.6,0.2
		s-1.1,0.2-1.6,0.4c-0.5,0.2-1,0.3-1.5,0.5c-0.5,0.2-0.8,0.4-1.2,0.5L132,16z M137.5,9.8c0-0.3,0.1-0.6,0.2-0.9
		c0.1-0.3,0.3-0.5,0.5-0.8s0.5-0.4,0.8-0.5c0.3-0.1,0.6-0.2,0.9-0.2c0.3,0,0.6,0.1,0.9,0.2c0.3,0.1,0.5,0.3,0.7,0.5
		c0.2,0.2,0.4,0.5,0.5,0.8s0.2,0.6,0.2,0.9c0,0.3-0.1,0.6-0.2,0.9s-0.3,0.5-0.5,0.8c-0.2,0.2-0.5,0.4-0.7,0.5
		c-0.3,0.1-0.6,0.2-0.9,0.2c-0.3,0-0.6-0.1-0.9-0.2c-0.3-0.1-0.5-0.3-0.8-0.5c-0.2-0.2-0.4-0.5-0.5-0.8
		C137.6,10.4,137.5,10.1,137.5,9.8z"/>
	<path class="st3" d="M56.3,61.4c0.4-0.2,0.9-0.4,1.5-0.6c0.6-0.2,1.3-0.5,2-0.7c0.7-0.2,1.4-0.4,2.2-0.5c0.8-0.1,1.5-0.2,2.2-0.2
		c1,0,2.1,0.1,3.1,0.4c1,0.3,1.9,0.7,2.7,1.3s1.4,1.5,1.9,2.6c0.5,1.1,0.7,2.5,0.7,4.2V73h3.4v4.7H61.5c-0.2,0-0.4,0.1-0.5,0.3
		c-0.1,0.2-0.2,0.4-0.2,0.6c0,0.2,0.1,0.4,0.2,0.6c0.1,0.2,0.3,0.3,0.5,0.3h6.3v4.7h-6.3c-0.9,0-1.7-0.2-2.4-0.5
		c-0.7-0.3-1.2-0.8-1.7-1.3s-0.8-1.1-1-1.8c-0.2-0.7-0.3-1.4-0.3-2.1s0.1-1.4,0.3-2.1s0.6-1.3,1-1.8c0.5-0.5,1-1,1.7-1.3
		c0.7-0.3,1.5-0.5,2.4-0.5h6.2V68c0-0.8-0.1-1.4-0.3-1.9s-0.5-0.9-0.8-1.2c-0.3-0.3-0.7-0.5-1.2-0.6c-0.4-0.1-0.9-0.2-1.3-0.2
		c-0.5,0-1,0.1-1.6,0.2s-1.1,0.2-1.6,0.4c-0.5,0.2-1,0.3-1.5,0.5c-0.5,0.2-0.8,0.4-1.1,0.5L56.3,61.4z"/>
	<path class="st3" d="M74.4,73h9v4.7h-9V73z"/>
	<path class="st3" d="M81.8,73h9v4.7h-9V73z"/>
	<path class="st3" d="M89.2,73h9v4.7h-9V73z"/>
	<path class="st3" d="M107.1,59.4v12.2c0,0.9-0.2,1.6-0.5,2.4c-0.3,0.7-0.8,1.4-1.3,2c-0.6,0.6-1.2,1-2,1.3
		c-0.7,0.3-1.5,0.5-2.4,0.5h-4.3V73h4.3c0.4,0,0.7-0.1,1-0.4c0.3-0.3,0.4-0.6,0.4-1V59.4H107.1z M102.3,81.9c0-0.3,0.1-0.6,0.2-0.9
		c0.1-0.3,0.3-0.5,0.5-0.7c0.2-0.2,0.5-0.4,0.8-0.5c0.3-0.1,0.6-0.2,0.9-0.2s0.6,0.1,0.9,0.2c0.3,0.1,0.5,0.3,0.8,0.5
		s0.4,0.5,0.5,0.7c0.1,0.3,0.2,0.6,0.2,0.9c0,0.3-0.1,0.6-0.2,0.9c-0.1,0.3-0.3,0.5-0.5,0.8c-0.2,0.2-0.5,0.4-0.8,0.5
		c-0.3,0.1-0.6,0.2-0.9,0.2s-0.6-0.1-0.9-0.2c-0.3-0.1-0.5-0.3-0.8-0.5c-0.2-0.2-0.4-0.5-0.5-0.8C102.4,82.6,102.3,82.3,102.3,81.9z
		"/>
	<path class="st3" d="M119,59.4v15.8c0,0,0,0.2,0,0.5c0,0.3-0.1,0.8-0.2,1.3c-0.1,0.5-0.3,1.1-0.6,1.8s-0.7,1.3-1.3,2
		c-0.6,0.7-1.3,1.4-2.2,2.1s-2,1.3-3.3,1.8l-1.8-4.4c0.6-0.3,1.1-0.5,1.6-0.8c0.5-0.3,0.9-0.6,1.2-0.9c0.3-0.3,0.6-0.6,0.8-0.9
		c0.2-0.3,0.4-0.5,0.6-0.8c0.3-0.6,0.5-1.2,0.5-1.7v-16H119z"/>
	<path class="st3" d="M127.6,52.8v25h-4.7v-25H127.6z"/>
	<path class="st3" d="M133.9,79.6h5.9c0.7,0,1.3-0.2,1.9-0.5c0.6-0.3,1-0.8,1.3-1.4h-5.5c-0.8,0-1.6-0.2-2.4-0.5s-1.4-0.8-1.9-1.3
		c-0.6-0.5-1-1.2-1.3-1.9c-0.3-0.7-0.5-1.5-0.5-2.4v-3.7c0-1.2,0.2-2.3,0.7-3.3c0.4-1,1-1.9,1.8-2.7s1.6-1.4,2.7-1.8
		c1-0.5,2.1-0.7,3.2-0.7c1.2,0,2.2,0.2,3.3,0.7c1,0.5,1.9,1.1,2.7,1.9c0.8,0.8,1.4,1.7,1.8,2.7c0.4,1,0.7,2.1,0.7,3.2V76
		c0,1.1-0.2,2.2-0.7,3.2s-1,1.9-1.8,2.7s-1.6,1.4-2.7,1.8c-1,0.4-2.1,0.7-3.2,0.7h-5.9V79.6z M143.5,73v-5.2c0-0.5-0.1-1-0.3-1.4
		s-0.5-0.9-0.8-1.2s-0.7-0.6-1.2-0.8c-0.4-0.2-0.9-0.3-1.4-0.3c-0.5,0-1,0.1-1.4,0.3c-0.4,0.2-0.8,0.5-1.1,0.8
		c-0.3,0.3-0.6,0.8-0.8,1.2c-0.2,0.5-0.3,1-0.3,1.5v3.7c0,0.4,0.1,0.7,0.4,1c0.3,0.3,0.6,0.4,1,0.4H143.5z"/>
</g>
<g>
	<g>
		<path class="st3" d="M172.2,151.5c-1-3.9-4-5.9-7.8-6.5c-5.3-0.8-10.6-0.2-15.9-0.4c-1,0-0.9,0.6-0.9,1.2c0,10.5,0,21,0,31.5
			c0,0.4-0.3,1,0.4,1c0.5,0,0.3-0.5,0.3-0.9c0.2-1.7,2.6-3,3.8-1.9c1.3,1.2,2.8,1.7,4.3,2.8c0-4.2,0-8.3,0-12.3
			c0.1,0,0.2-0.1,0.4-0.1c0.2,0.3,0.4,0.6,0.6,0.9c1.6,2.5,3.1,5,4.7,7.4c0.2,0.4,0.4,0.8,0.9,0.8c0.5,0,0.3-0.5,0.4-0.9
			c0.1-0.4-0.3-1.2,0.3-1.2c0.8,0,0.3,0.8,0.5,1.3c0,0.2,0.1,0.3,0.1,0.5c0.4-0.1,0.2-0.8,1-0.6c-0.9,1.5,0.8,1.7,1.4,2.8
			c0-0.7,0-1.2,0-1.7c0-0.4,0-0.8,0.5-0.8c0.5,0,1.1-0.3,1.6,0.2c0.9,0.9,1.7,1.2,2.7,1c0.9-0.2,1.3-1.4,0.8-2c-2.3-3-4.6-6-6.9-9
			c1.4-0.5,2.7-0.9,3.7-1.7C172.8,159.9,173.3,155.9,172.2,151.5z M160.4,159.5c-3.3,1.1-3.9,0.6-3.9-2.7c0-0.4,0-0.7,0-1.1
			c0-0.7,0-1.3,0-2c0-2.5,0.2-2.7,2.7-2.2c1.5,0.3,3,0.6,3.8,2.1C164.3,156,163.2,158.6,160.4,159.5z"/>
		<path class="st3" d="M58,151.5c-1.1-3.9-4-5.9-7.8-6.5c-5.3-0.8-10.6-0.2-15.9-0.3c-1.2,0-0.8,0.9-0.8,1.4c0,10.3,0,20.7,0,31
			c0,0.5-0.3,1.1,0.4,1.4c0.5-0.1,0.3-0.5,0.4-0.7c0.2-1.9,2.3-3.2,3.7-2c1.3,1.2,2.9,1.8,4.6,3c0-4.4,0-8.4,0-12.5
			c1.9,2.5,3.5,5.1,5.1,7.7c0.3,0.5,0.6,1.3,1.2,1.2c0.9-0.1,0.3-1,0.5-1.5c0.1-0.3,0-0.6,0.4-0.8c0.6,0.7,0.2,1.5,0.4,2.2
			c0.6,0.2,0.1-1.1,1-0.7c-0.4,1.3,0.4,1.8,1.4,2.2c0.2-0.6-0.4-1.4,0.3-1.8c0.5-0.3,1.5-0.4,1.7,0.1c0.4,0.7,1.3,0.7,1.4,1
			c0.7,1.6,1.3-0.9,1.9,0.1c-0.3-0.8,1.2-1.2,0.2-2.3c-2.4-2.8-4.5-5.7-6.9-8.8c1.7-0.5,3-1,4.1-2.1C58.6,159.5,59.1,155.7,58,151.5
			z M45.5,159.7c-3.1,0.6-3.1,0.6-3.1-2.6c0-0.5,0-1,0-1.5c0-0.6,0-1.2,0-1.8c0-2.7,0.2-2.9,2.9-2.3c1.7,0.4,3.3,0.9,3.8,2.9
			C49.8,157,48.3,159.2,45.5,159.7z"/>
		<path class="st3" d="M189.4,171.8c-0.7,0-1.3,0-2,0c-4.7,0-4.7,0-4.5-4.8c0-1,0.4-1.2,1.3-1.2c1.4,0.1,2.8,0,4.2,0
			c3.2,0,3.2,0,3.2-3.3c0-4.2,0-4.2-4.1-4.2c-4.8,0-4.8,0-4.6-4.8c0-1,0.3-1.3,1.3-1.2c2.2,0.1,4.4,0,6.6,0c1,0,1.4-0.2,1.4-1.3
			c-0.1-1.6-0.1-3.2,0-4.8c0.1-1.3-0.4-1.5-1.6-1.5c-4.9,0.1-9.8,0.1-14.7,0c-1.4,0-1.7,0.4-1.7,1.8c0.1,10,0,20,0,30.1
			c0,0.3,0,0.6,0,0.9c0,0.6,0.2,0.9,0.9,0.9c0.6,0,1-0.1,0.9-0.8c-0.1-1.9,1.5-1.5,2.1-1.1c0.9,0.6,1.1,0.4,1.8-0.2
			c0.9-0.9,2.1-0.3,2.3,1c0,0.5-0.1,1.1,0.6,1.1c1.4,0,2.5-1.6,4-0.7c0-0.1,0.1-0.1,0.1-0.2c-0.2-1.2,0.6-1.2,1.4-1.2
			c0.4,0,0.7-0.2,0.7-0.7c0-0.7-0.1-1.4,1-1.6c1.1-0.2,1.8,0.1,2.3,1.2C192.5,171.8,192.5,171.8,189.4,171.8z"/>
		<path class="st3" d="M96.2,171.6c-1.9,0.2-3.9,0-5.9,0.1c-0.9,0-1.3-0.2-1.3-1.2c-0.2-4.8-0.2-4.8,4.5-4.8c0.2,0,0.5,0,0.7,0
			c3.5,0,3.5,0,3.5-3.5c0-4,0-4-4.1-4c-4.8,0-4.7,0-4.7-4.8c0-1.2,0.5-1.4,1.5-1.4c2.2,0.1,4.4,0,6.6,0c0.8,0,1.1-0.2,1-1
			c-0.1-1.6-0.1-3.3,0-4.9c0.1-1.2-0.3-1.5-1.5-1.5c-4.9,0.1-9.9,0.1-14.8,0c-1.3,0-1.6,0.4-1.6,1.6c0.1,7.5,0,15,0,22.5
			c0,2.7,0,5.4,0,8.1c0,0.6-0.2,1.3,0.8,1.3c0.7,0,1.1-0.1,1.1-1c0-1.7,1.8-1,1.9-0.8c0.7,1.2,1.3,0.3,1.6-0.1
			c0.7-0.8,1.5-0.4,2.2-0.4c0.7,0,0.4,0.8,0.5,1.2c0,1.6,1.4,1.2,1.7,0.7c0.6-0.8,1.4-0.7,1.9-0.6c1.7,0.5,1-1,1.3-1.5
			c0.5-0.7,1.6,1,1.6-0.6c0-0.7-0.1-1.4,1-1.3c0.9,0.1,2-0.3,1.9,1.4c0.2-0.1,0.3-0.2,0.5-0.3c0-0.5-0.1-0.9,0-1.4
			C98.5,172.1,97.9,171.5,96.2,171.6z"/>
		<path class="st3" d="M76,171.6c-2.1,0.2-4.2,0.1-6.2,0c-0.5,0-1.3,0.2-1.3-0.6c0-1.7-0.6-3.6,0.2-5c0.5-0.9,2.3-0.2,3.5-0.3
			c0.5,0,1.1,0,1.6,0c3.4,0,3.4,0,3.4-3.3c0-4.2,0-4.2-4.2-4.2c-4.6,0-4.5,0-4.5-4.6c0-1.3,0.4-1.6,1.7-1.6c2,0.1,4-0.1,6,0.1
			c1.3,0.1,1.7-0.4,1.6-1.6c-0.1-1.5-0.1-2.9,0-4.4c0.1-1.1-0.3-1.5-1.4-1.4c-5,0.1-10,0.1-15,0c-1.3,0-1.5,0.5-1.5,1.6
			c0,10.1,0,20.3,0,30.4c0,0.2,0,0.5,0,0.7c0,0.5,0.2,0.8,0.7,0.8c0.5,0,1,0.1,1-0.7c0-2.1,1.5-1.3,2.2-1c0.7,0.4,1,0.2,1.4-0.1
			c1.4-1,2.2-0.6,2.5,0.9c0,0.3,0,0.8,0.3,0.8c1.5-0.3,3.1-0.4,4.4-1.2c0.4-0.3,0.8-0.9,1.5-0.9c0.4,0,0.8-0.1,0.7-0.6
			c-0.1-1,0.3-1.5,1.2-1.6c1-0.1,1.6,0.4,2.1,1.3c0-0.5-0.1-1,0-1.4C78.2,172.1,77.7,171.5,76,171.6z"/>
		<path class="st3" d="M126.4,145.8c0-0.9-0.3-1.1-1.1-1.1c-5.7,0-11.4,0-17.1,0c-0.9,0-1.2,0.3-1.2,1.2c0,8.2,0,16.4,0,24.6
			c0,0.8,0.1,1.1,1,1.3c1,0.2,2.3,0.5,2.3,2c0,0.9-0.2,1.9,1.3,1.7c0.7-0.1,0.5,0.7,0.6,1.1c0.1,1-0.2,2,0.2,3.1
			c1.1-1.7,1.5-1.7,2.4-0.3c1.2-3.1,0.9-6.3,0.9-9.5c0-3.9,0-3.9,3.9-3.9c1.8,0,4.3,0.8,5.2-0.3c0.9-1.1,0.2-3.5,0.3-5.3
			c0.1-1.2-0.2-1.8-1.6-1.6c-1.2,0.1-2.4,0-3.7,0c-4.4,0-4.4,0-4.2-4.5c0-1,0.3-1.2,1.3-1.2c2.7,0.1,5.4,0,8.1,0
			c0.9,0,1.2-0.2,1.2-1.1C126.4,149.7,126.4,147.7,126.4,145.8z"/>
		<path class="st3" d="M32.1,145.9c0-0.9-0.2-1.3-1.2-1.3c-5.7,0.1-11.4,0-17.1,0c-0.8,0-1.2,0.1-1.2,1.1c0,8.3,0,16.6,0,24.9
			c0,0.3-0.2,0.8,0.4,0.8c2.3,0.1,3.1,1.5,2.9,3.7c2.1-0.6,2.2-0.5,2.2,1.4c0,0.8-0.2,1.7,0.3,2.9c0.8-2.2,1.5-1.4,2.3,0
			c0.3-2.6,0.9-4.9,0.7-7.3c-0.1-1.7,0.1-3.4,0-5.1c0-1,0.3-1.4,1.3-1.4c2.1,0.1,4.2-0.1,6.2,0.1c1.6,0.1,2.2-0.3,2-2
			c-0.2-1.7,0.8-4.1-0.4-5.1c-1-0.9-3.3-0.3-5-0.3c-4.4,0-4.3,0-4.2-4.4c0-1.1,0.4-1.3,1.4-1.3c2.6,0.1,5.1,0,7.7,0
			c1,0,1.6-0.1,1.5-1.4C32,149.6,32,147.7,32.1,145.9z"/>
		<path class="st3" d="M142.2,165.1c-0.4-0.8-1.1-0.4-1.7-0.6c0-0.7-0.1-1.3-0.1-2c0-5.8-0.1-11.6-0.1-17.3c0.1-0.8,0.2-1.7-0.6-2.3
			c0-0.2-0.1-0.5-0.1-0.7c0.3-1.1-0.1-2.1-0.7-2.9c0,0,0-0.1,0-0.1c-0.7-1.1-1-0.4-1.4,0.2c-0.5,0.6-1.1,1.1-1.6,1.7
			c-0.1,0.1-0.2,0.3-0.3,0.4c0,0,0,0,0,0c-0.1,0.2-0.2,0.3-0.3,0.5c0,0.1,0,0.2-0.1,0.2c-1,0.3-1.1,1.2-1.4,2
			c-0.9,2-0.7,4.2-0.8,6.3c-0.1,1.5,0.2,2.6,1.4,3.5c-0.1,0.1-0.3,0.2-0.4,0.4c-0.4,0.2-1,0.3-0.8,1c0.2,0.5,0.6,0.6,1.1,0.3
			c0.8-0.4,0.3,0.4,0.5,0.6c-0.1,0.1-0.3,0.2-0.4,0.3c-0.3,0-0.6,0.1-0.7,0.5c0,0.1-0.1,0.2-0.2,0.3c-0.2,0.3-0.2,0.6,0.2,0.7
			c0.3,0.1,0.6-0.1,0.7-0.4c0,0,0,0,0,0c0.4,0.3,0.4,0.8,0.5,1.3c0,0,0,0,0,0c-0.4,0-0.6,0.1-0.7,0.5c0,0.1-0.1,0.1-0.2,0.2
			c-0.9,1-0.9,1,0.2,1.2c0.5,0.1,0.5,0.4,0.6,0.7c-0.1,0.1-0.3,0.2-0.4,0.3c-0.1,0.1-0.3,0.2-0.4,0.3c0,0,0,0,0,0
			c-0.8,0.2-1,0.7-0.4,1.3c0.2,0.3,1.1-0.5,1,0.4c-0.1,0.6-0.8,0.8-1.5,0.9c-0.6,0-1.4-0.3-1.7,0.6c0,0,0,0,0,0
			c-0.1,0.1-0.3,0.2-0.4,0.2c0.1,0.1,0.2,0.1,0.3,0.2c0,0.2,0,0.5,0,0.7c-0.2,0.3-0.2,0.6,0.2,0.7c0.3,0.4,0.7,0.7,1,1.1
			c0,0.3,0.1,0.6,0.5,0.6c0,0,0,0,0,0c0,2.7-0.1,5.3-0.1,8c0,0.7,0.1,1.2,0.9,1.3c-0.1-0.2-0.2-0.4-0.3-0.7c0.1,0.2,0.1,0.5,0.3,0.7
			c0.1,0.3,0.1,0.5,0.2,0.8c0.5,0,0.8-0.2,0.8-0.8c0-0.5,0.1-1.2,0.8-1.1c0.8,0.1,0.6,0.9,0.6,1.5c0,0.2-0.1,0.3-0.1,0.5
			c0,0.5,0,1.1,0.1,1.6c0.5,0.8,0.1,1.7,0.4,2.5c0.2-0.1,0.3-0.2,0.5-0.4c0-0.2,0-0.5,0-0.7c0-0.7,0-1.4,0.1-2.1
			c0.6-0.2,1.6,0.9,2-0.5c0.3-0.4,0.7-0.7,1-1.1c0-0.1,0-0.2,0.1-0.3c0-2.8,0.1-5.6,0.1-8.4c0.6-0.2,0.6-0.7,0.5-1.2c0,0,0,0,0,0
			c0.1-0.1,0.2-0.3,0.4-0.4c0.1-0.1,0.2-0.2,0.3-0.3c0.2,0,0.4-0.2,0.4-0.4c0.1-0.1,0.2-0.2,0.3-0.4c0.2,0,0.4,0,0.2-0.3
			C142.6,166.1,142.7,165.5,142.2,165.1z"/>
	</g>
</g>
</svg>
