<?xml version="1.0" encoding="utf-8"?>
<!-- Generator: Adobe Illustrator 25.0.1, SVG Export Plug-In . SVG Version: 6.00 Build 0)  -->
<svg version="1.1" id="Layer_1" xmlns="http://www.w3.org/2000/svg" xmlns:xlink="http://www.w3.org/1999/xlink" x="0px" y="0px"
	 viewBox="0 0 202.6 202" style="enable-background:new 0 0 202.6 202;" xml:space="preserve">
<style type="text/css">
	.st0{fill:#EF7841;}
	.st1{fill:#F0E6CB;}
	.st2{fill:#B55130;}
</style>
<path class="st0" d="M24.5,0h153C191,0,202,11,202,24.5v153c0,13.5-11,24.5-24.5,24.5h-153C11,202,0,191,0,177.5v-153
	C0,11,11,0,24.5,0z"/>
<g>
	<path class="st1" d="M35.4,11.7c0.3-0.2,0.7-0.3,1.2-0.5s1-0.4,1.6-0.5c0.6-0.2,1.2-0.3,1.8-0.4s1.2-0.2,1.8-0.2
		c0.9,0,1.7,0.1,2.4,0.3c0.8,0.2,1.5,0.6,2.2,1.1c0.6,0.5,1.2,1.2,1.5,2.2c0.4,0.9,0.6,2.1,0.6,3.4v4h2.7v3.7H39.6
		c-0.2,0-0.3,0.1-0.4,0.2c-0.1,0.2-0.1,0.3-0.1,0.5s0,0.4,0.1,0.5c0.1,0.2,0.2,0.2,0.4,0.2h5v3.7h-5c-0.7,0-1.4-0.1-1.9-0.4
		s-1-0.6-1.4-1c-0.4-0.4-0.6-0.9-0.8-1.5c-0.2-0.6-0.3-1.1-0.3-1.7s0.1-1.1,0.3-1.7c0.2-0.5,0.5-1,0.8-1.5c0.4-0.4,0.8-0.8,1.4-1
		c0.5-0.3,1.2-0.4,1.9-0.4h5v-4c0-0.6-0.1-1.1-0.3-1.6c-0.2-0.5-0.4-0.7-0.7-1c-0.3-0.2-0.6-0.4-0.9-0.5c-0.4-0.1-0.7-0.1-1.1-0.1
		s-0.8,0-1.3,0.1c-0.5,0.1-0.9,0.2-1.3,0.3c-0.4,0.1-0.8,0.3-1.2,0.4c-0.4,0.2-0.7,0.3-0.9,0.4L35.4,11.7z"/>
	<path class="st1" d="M49.8,21H57v3.7h-7.2V21z"/>
	<path class="st1" d="M55.8,21h7.2v3.7h-7.2V21z"/>
	<path class="st1" d="M61.7,21h7.2v3.7h-7.2V21z"/>
	<path class="st1" d="M76,10.1v9.8c0,0.7-0.1,1.3-0.4,2c-0.3,0.6-0.6,1.1-1.1,1.6c-0.5,0.5-1,0.8-1.6,1.1c-0.6,0.3-1.3,0.4-1.9,0.4
		h-3.4v-3.7h3.4c0.3,0,0.6-0.1,0.8-0.3c0.2-0.2,0.3-0.5,0.3-0.8v-9.8H76V10.1z M72.1,28c0-0.3,0.1-0.5,0.2-0.8
		c0.1-0.2,0.2-0.4,0.4-0.6c0.2-0.2,0.4-0.3,0.6-0.4c0.2-0.1,0.5-0.2,0.8-0.2s0.5,0,0.8,0.2c0.2,0.1,0.4,0.2,0.6,0.4
		c0.2,0.2,0.3,0.4,0.4,0.6s0.2,0.5,0.2,0.8s-0.1,0.5-0.2,0.8c-0.1,0.2-0.2,0.4-0.4,0.6c-0.2,0.2-0.4,0.3-0.6,0.4
		c-0.2,0.1-0.5,0.2-0.8,0.2s-0.5-0.1-0.8-0.2c-0.2-0.1-0.4-0.2-0.6-0.4c-0.2-0.2-0.3-0.4-0.4-0.6C72.1,28.5,72.1,28.3,72.1,28z"/>
	<path class="st1" d="M85.5,10.1v12.6c0,0,0,0.2,0,0.4c0,0.3-0.1,0.6-0.2,1c-0.1,0.4-0.3,0.9-0.5,1.4c-0.2,0.5-0.6,1.1-1.1,1.7
		c-0.5,0.6-1.1,1.1-1.8,1.7s-1.6,1.1-2.6,1.5l-1.5-3.5c0.5-0.2,0.9-0.4,1.3-0.7c0.4-0.2,0.7-0.5,1-0.7c0.3-0.2,0.5-0.5,0.7-0.7
		c0.2-0.2,0.3-0.4,0.5-0.6c0.3-0.5,0.4-1,0.4-1.4V10L85.5,10.1L85.5,10.1z"/>
	<path class="st1" d="M92.3,4.8v19.9h-3.7V4.8H92.3z"/>
	<path class="st1" d="M97.4,26.3h4.7c0.6,0,1.1-0.1,1.5-0.4c0.5-0.3,0.8-0.6,1-1.1h-4.3c-0.7,0-1.3-0.1-1.9-0.4
		c-0.6-0.3-1.1-0.6-1.6-1.1c-0.5-0.5-0.8-1-1.1-1.6c-0.3-0.6-0.4-1.2-0.4-1.9V17c0-1,0.2-1.9,0.5-2.6c0.4-0.8,0.8-1.6,1.5-2.2
		c0.6-0.6,1.3-1.1,2.2-1.5c0.8-0.4,1.7-0.6,2.5-0.6s1.8,0.2,2.6,0.6c0.8,0.4,1.6,0.9,2.2,1.5s1.1,1.4,1.5,2.2
		c0.4,0.8,0.5,1.7,0.5,2.5v6.5c0,0.9-0.2,1.8-0.5,2.5c-0.4,0.8-0.8,1.6-1.5,2.2c-0.6,0.6-1.3,1.1-2.2,1.5c-0.8,0.4-1.7,0.5-2.5,0.5
		h-4.7C97.4,30,97.4,26.3,97.4,26.3z M105.1,21v-4.1c0-0.4-0.1-0.8-0.2-1.2c-0.2-0.4-0.4-0.7-0.6-1s-0.6-0.5-0.9-0.7
		c-0.3-0.2-0.7-0.2-1.2-0.2c-0.4,0-0.8,0.1-1.2,0.2c-0.4,0.1-0.7,0.4-0.9,0.7c-0.3,0.3-0.5,0.6-0.6,1c-0.2,0.4-0.2,0.8-0.2,1.2v2.9
		c0,0.3,0.1,0.6,0.3,0.8c0.2,0.2,0.5,0.3,0.8,0.3L105.1,21L105.1,21z"/>
	<path class="st1" d="M131.7,10.1V21h2.7v3.8h-2.9c-0.2,0.9-0.5,1.7-1,2.4c-0.5,0.7-1.1,1.2-1.8,1.7c-0.7,0.4-1.4,0.8-2.3,1
		c-0.8,0.2-1.7,0.3-2.4,0.3c-1,0-1.9-0.1-2.7-0.4c-0.9-0.3-1.7-0.7-2.4-1.3c-0.7-0.6-1.3-1.3-1.7-2.2c-0.4-0.9-0.7-1.9-0.7-2.9V12.6
		h3.7v10.6c0,0.5,0.1,0.9,0.3,1.3c0.2,0.4,0.5,0.7,0.9,1s0.8,0.4,1.2,0.6c0.5,0.1,0.9,0.2,1.4,0.2c0.5,0,0.9-0.1,1.4-0.2
		s0.9-0.3,1.2-0.6c0.4-0.3,0.6-0.6,0.9-1c0.2-0.4,0.3-0.8,0.3-1.3V10.1H131.7z M122.3,6.8c0-0.3,0.1-0.5,0.2-0.8
		c0.1-0.2,0.2-0.4,0.4-0.6c0.2-0.2,0.4-0.3,0.6-0.4c0.2-0.1,0.5-0.2,0.8-0.2s0.5,0.1,0.8,0.2c0.2,0.1,0.4,0.2,0.6,0.4
		c0.2,0.2,0.3,0.4,0.4,0.6c0.1,0.2,0.2,0.5,0.2,0.8s-0.1,0.5-0.2,0.8c-0.1,0.2-0.2,0.4-0.4,0.6c-0.2,0.2-0.4,0.3-0.6,0.4
		c-0.2,0.1-0.5,0.2-0.8,0.2s-0.5-0.1-0.8-0.2c-0.2-0.1-0.4-0.2-0.6-0.4c-0.2-0.2-0.3-0.4-0.4-0.6C122.4,7.3,122.3,7,122.3,6.8z"/>
	<path class="st1" d="M133.3,21h2.8c0-0.2,0-0.4-0.1-0.6c0-0.2,0-0.4,0-0.6v-3c0-0.9,0.2-1.8,0.5-2.6s0.8-1.6,1.4-2.2
		c0.6-0.6,1.3-1.1,2.1-1.5c0.8-0.4,1.7-0.5,2.5-0.5s1.8,0.2,2.5,0.6c0.8,0.4,1.5,0.9,2.2,1.5c0.6,0.6,1.1,1.4,1.4,2.2
		c0.4,0.8,0.5,1.7,0.5,2.5v3c0,0.2,0,0.4,0,0.6c0,0.2,0,0.4-0.1,0.6h2.8v3.7h-4.7c-0.6,0.6-1.3,1.1-2.1,1.4
		c-0.8,0.3-1.6,0.5-2.4,0.5c-1.9,0-3.3-0.6-4.5-1.9h-4.8V21z M142.6,13.8c-0.4,0-0.8,0.1-1.1,0.2c-0.3,0.1-0.7,0.4-0.9,0.6
		c-0.3,0.3-0.5,0.6-0.6,1c-0.2,0.4-0.2,0.8-0.2,1.2v3c0,0.4,0.1,0.8,0.2,1.2c0.2,0.4,0.4,0.7,0.6,1c0.3,0.3,0.6,0.5,0.9,0.6
		c0.4,0.2,0.7,0.2,1.1,0.2c0.4,0,0.8-0.1,1.1-0.2c0.4-0.2,0.7-0.4,0.9-0.7c0.3-0.3,0.5-0.6,0.6-1c0.2-0.4,0.2-0.7,0.2-1.2v-3
		c0-0.4-0.1-0.8-0.2-1.2c-0.2-0.4-0.4-0.7-0.6-1c-0.3-0.3-0.6-0.5-0.9-0.7C143.4,13.6,143,13.8,142.6,13.8z"/>
	<path class="st1" d="M150.7,21h7.2v3.7h-7.2V21z"/>
	<path class="st1" d="M159,11.7c0.3-0.2,0.7-0.3,1.2-0.5c0.5-0.2,1-0.4,1.6-0.5c0.6-0.2,1.2-0.3,1.8-0.4s1.2-0.2,1.8-0.2
		c0.9,0,1.7,0.1,2.4,0.3c0.8,0.2,1.5,0.6,2.2,1.1s1.2,1.2,1.5,2.2s0.6,2.1,0.6,3.4V20c0,0.7-0.1,1.3-0.4,1.9
		c-0.3,0.6-0.6,1.1-1.1,1.6c-0.5,0.5-1,0.8-1.6,1.1c-0.6,0.3-1.3,0.4-2,0.4h-10.4v-3.7h10.4c0.3,0,0.6-0.1,0.8-0.3
		c0.2-0.2,0.3-0.5,0.3-0.8v-2.9c0-0.6-0.1-1.1-0.3-1.6c-0.2-0.5-0.4-0.7-0.7-1s-0.6-0.4-0.9-0.5c-0.3-0.1-0.7-0.1-1.1-0.1
		c-0.4,0-0.8,0-1.3,0.1c-0.5,0.1-0.9,0.2-1.3,0.3c-0.4,0.1-0.8,0.3-1.2,0.4c-0.4,0.2-0.7,0.3-0.9,0.4L159,11.7z M163.4,6.8
		c0-0.3,0.1-0.5,0.2-0.8c0.1-0.2,0.2-0.4,0.4-0.6c0.2-0.2,0.4-0.3,0.6-0.4c0.2-0.1,0.5-0.2,0.8-0.2s0.5,0.1,0.8,0.2
		c0.2,0.1,0.4,0.2,0.6,0.4c0.2,0.2,0.3,0.4,0.4,0.6c0.1,0.2,0.2,0.5,0.2,0.8s-0.1,0.5-0.2,0.8c-0.1,0.2-0.2,0.4-0.4,0.6
		c-0.2,0.2-0.4,0.3-0.6,0.4c-0.2,0.1-0.5,0.2-0.8,0.2s-0.5-0.1-0.8-0.2c-0.2-0.1-0.4-0.2-0.6-0.4c-0.2-0.2-0.3-0.4-0.4-0.6
		C163.4,7.3,163.4,7,163.4,6.8z"/>
	<path class="st1" d="M42.4,41.1v7.1c0.9-0.6,1.8-1,2.8-1.4c1-0.3,2-0.5,2.9-0.5c0.9,0,1.7,0.1,2.4,0.4c0.8,0.3,1.5,0.7,2,1.2
		c0.6,0.6,1.1,1.3,1.4,2.2c0.3,0.9,0.5,2,0.5,3.2v2.9c0,0.7-0.1,1.3-0.4,1.9c-0.3,0.6-0.6,1.1-1.1,1.6c-0.5,0.5-1,0.8-1.6,1.1
		s-1.3,0.4-2,0.4H36.5v-3.7h2.2V41.2L42.4,41.1L42.4,41.1z M48.1,50.1c-0.4,0-0.9,0-1.4,0.1c-0.5,0.1-0.9,0.2-1.4,0.4
		c-0.5,0.2-0.8,0.4-1.2,0.6c-0.4,0.2-0.7,0.5-1,0.8s-0.5,0.6-0.7,0.9c-0.2,0.3-0.2,0.6-0.2,0.9v3.5h7.2c0.3,0,0.6-0.1,0.8-0.3
		c0.2-0.2,0.3-0.5,0.3-0.8v-2.9c0-0.6-0.1-1.1-0.2-1.5c-0.1-0.4-0.3-0.7-0.6-1c-0.2-0.3-0.5-0.4-0.8-0.6
		C48.8,50.2,48.5,50.1,48.1,50.1z"/>
	<path class="st1" d="M61.4,41.1v15.1c0,0.3,0.1,0.6,0.3,0.8c0.2,0.2,0.5,0.3,0.8,0.3h1.9V61h-1.9c-0.7,0-1.3-0.1-2-0.4
		c-0.6-0.3-1.1-0.6-1.6-1.1c-0.5-0.5-0.8-1-1.1-1.6c-0.3-0.6-0.4-1.3-0.4-1.9V41L61.4,41.1L61.4,41.1z"/>
	<path class="st1" d="M63,57.2h7.2V61H63V57.2z"/>
	<path class="st1" d="M69,57.2h7.2V61H69V57.2z"/>
	<path class="st1" d="M74.9,57.2H82V61h-7.2V57.2z"/>
	<path class="st1" d="M80.9,57.2H88V61h-7.2V57.2z"/>
	<path class="st1" d="M86.7,57.2h7.2V61h-7.2V57.2z"/>
	<path class="st1" d="M92.7,57.2h7.2V61h-7.2V57.2z"/>
	<path class="st1" d="M98.7,57.2h7.2V61h-7.2V57.2z"/>
	<path class="st1" d="M104.6,57.2h7.2V61h-7.2V57.2z"/>
	<path class="st1" d="M110.6,57.2h7.2V61h-7.2V57.2z"/>
	<path class="st1" d="M116.4,57.2h7.2V61h-7.2V57.2z"/>
	<path class="st1" d="M122.4,61v-3.7h2.7V53c0-1,0.2-1.9,0.5-2.6c0.4-0.8,0.8-1.5,1.4-2.1s1.3-1.1,2.1-1.4c0.8-0.3,1.7-0.5,2.5-0.5
		c0.9,0,1.8,0.2,2.5,0.5s1.5,0.8,2.1,1.4c0.6,0.6,1.1,1.3,1.5,2.1c0.4,0.8,0.5,1.7,0.5,2.5v4.4h2.7V61L122.4,61L122.4,61z M127.6,43
		c0-0.3,0.1-0.5,0.2-0.8c0.1-0.2,0.2-0.4,0.4-0.6c0.2-0.2,0.4-0.3,0.6-0.4c0.2-0.1,0.5-0.2,0.8-0.2s0.5,0.1,0.8,0.2s0.4,0.2,0.6,0.4
		c0.2,0.2,0.3,0.4,0.4,0.6c0.1,0.2,0.2,0.5,0.2,0.8s-0.1,0.5-0.2,0.8c-0.1,0.3-0.2,0.4-0.4,0.6s-0.4,0.3-0.6,0.4s-0.5,0.2-0.8,0.2
		s-0.5,0-0.8-0.2c-0.2-0.1-0.4-0.2-0.6-0.4c-0.2-0.2-0.3-0.4-0.4-0.6C127.7,43.6,127.6,43.3,127.6,43z M128.9,57.2h5.7v-4.4
		c0-0.4-0.1-0.8-0.2-1.1c-0.1-0.3-0.4-0.6-0.6-0.9c-0.3-0.3-0.6-0.5-0.9-0.6s-0.7-0.2-1.1-0.2c-0.4,0-0.8,0.1-1.1,0.2
		c-0.4,0.2-0.7,0.4-0.9,0.6c-0.3,0.3-0.5,0.6-0.6,0.9c-0.1,0.3-0.2,0.7-0.2,1.1v4.4H128.9z M132.1,43c0-0.3,0.1-0.5,0.2-0.8
		c0.1-0.2,0.2-0.4,0.4-0.6c0.2-0.2,0.4-0.3,0.6-0.4c0.2-0.1,0.5-0.2,0.8-0.2s0.5,0.1,0.8,0.2c0.2,0.1,0.4,0.2,0.6,0.4
		c0.2,0.2,0.3,0.4,0.4,0.6c0.1,0.2,0.2,0.5,0.2,0.8s0,0.5-0.2,0.8c-0.2,0.3-0.2,0.4-0.4,0.6c-0.2,0.2-0.4,0.3-0.6,0.4
		c-0.2,0.1-0.5,0.2-0.8,0.2s-0.5,0-0.8-0.2c-0.2-0.1-0.4-0.2-0.6-0.4s-0.3-0.4-0.4-0.6C132.2,43.6,132.1,43.3,132.1,43z"/>
	<path class="st1" d="M139.9,57.2h7.2V61h-7.2V57.2z"/>
	<path class="st1" d="M145.8,57.2h7.2V61h-7.2V57.2z"/>
	<path class="st1" d="M151.7,57.2h7.2V61h-7.2V57.2z"/>
	<path class="st1" d="M157.7,57.2h7.2V61h-7.2V57.2z"/>
	<path class="st1" d="M171.9,46.4v9.8c0,0.7-0.1,1.3-0.4,2c-0.3,0.6-0.6,1.1-1.1,1.6c-0.5,0.5-1,0.8-1.6,1.1
		c-0.6,0.3-1.3,0.4-1.9,0.4h-3.4v-3.7h3.4c0.3,0,0.6-0.1,0.8-0.3s0.3-0.5,0.3-0.8v-9.8h3.8V46.4z M168.2,43c0-0.3,0-0.5,0.2-0.8
		c0.1-0.2,0.2-0.4,0.4-0.6c0.2-0.2,0.4-0.3,0.6-0.4c0.2-0.1,0.5-0.2,0.8-0.2s0.5,0.1,0.8,0.2c0.2,0.1,0.4,0.2,0.6,0.4
		c0.2,0.2,0.3,0.4,0.4,0.6c0.1,0.2,0.2,0.5,0.2,0.8s-0.1,0.5-0.2,0.8s-0.2,0.4-0.4,0.6c-0.2,0.2-0.4,0.3-0.6,0.4
		c-0.2,0.1-0.5,0.2-0.8,0.2s-0.5,0-0.8-0.2c-0.3-0.2-0.4-0.2-0.6-0.4c-0.2-0.2-0.3-0.4-0.4-0.6S168.2,43.3,168.2,43z"/>
	<path class="st1" d="M52.5,93.6v3.7h-6.5v-7.9c0-0.4-0.1-0.8-0.2-1.2c-0.2-0.4-0.4-0.7-0.6-1c-0.3-0.3-0.6-0.5-0.9-0.7
		c-0.4-0.2-0.7-0.2-1.2-0.2c-0.4,0-0.8,0.1-1.2,0.2c-0.4,0.2-0.7,0.4-0.9,0.7s-0.5,0.6-0.6,1s-0.2,0.8-0.2,1.2v2.9
		c0,0.3,0.1,0.6,0.3,0.8c0.2,0.2,0.5,0.3,0.8,0.3h2.3v3.7h-2.3c-0.7,0-1.3-0.1-1.9-0.4c-0.6-0.3-1.1-0.6-1.6-1.1s-0.8-1-1.1-1.6
		s-0.4-1.2-0.4-1.9v-2.9c0-1,0.2-1.9,0.5-2.6c0.4-0.8,0.8-1.6,1.5-2.2c0.6-0.6,1.3-1.1,2.2-1.5c0.8-0.4,1.7-0.6,2.5-0.6
		c0.9,0,1.8,0.2,2.6,0.6c0.8,0.4,1.6,0.9,2.2,1.5c0.6,0.6,1.1,1.4,1.5,2.2c0.4,0.8,0.5,1.7,0.5,2.5v4.1h2.5V93.6z M38.9,79.3
		c0-0.3,0.1-0.5,0.2-0.8c0.1-0.2,0.2-0.4,0.4-0.6c0.2-0.2,0.4-0.3,0.6-0.4c0.2-0.1,0.5-0.2,0.8-0.2s0.5,0.1,0.8,0.2
		c0.2,0.1,0.4,0.2,0.6,0.4c0.2,0.2,0.3,0.4,0.4,0.6c0.1,0.2,0.2,0.5,0.2,0.8s-0.1,0.5-0.2,0.8c-0.1,0.2-0.2,0.4-0.4,0.6
		c-0.2,0.2-0.4,0.3-0.6,0.4c-0.2,0.1-0.5,0.2-0.8,0.2s-0.5,0-0.8-0.2c-0.2-0.1-0.4-0.2-0.6-0.4c-0.2-0.2-0.3-0.4-0.4-0.6
		C39,79.8,38.9,79.6,38.9,79.3z M43.5,79.3c0-0.3,0.1-0.5,0.2-0.8c0.1-0.2,0.2-0.4,0.4-0.6c0.2-0.2,0.4-0.3,0.6-0.4
		c0.2-0.1,0.5-0.2,0.8-0.2s0.5,0.1,0.8,0.2s0.4,0.2,0.6,0.4c0.2,0.2,0.3,0.4,0.4,0.6c0.1,0.2,0.2,0.5,0.2,0.8s-0.1,0.5-0.2,0.8
		c-0.1,0.2-0.2,0.4-0.4,0.6c-0.2,0.2-0.4,0.3-0.6,0.4c-0.2,0.1-0.5,0.2-0.8,0.2s-0.5,0-0.8-0.2c-0.2-0.1-0.4-0.2-0.6-0.4
		c-0.2-0.2-0.3-0.4-0.4-0.6C43.6,79.9,43.5,79.6,43.5,79.3z"/>
	<path class="st1" d="M51.4,100.6c0-0.3,0.1-0.5,0.2-0.8c0.1-0.2,0.2-0.4,0.4-0.6c0.2-0.2,0.4-0.3,0.6-0.4c0.2-0.1,0.5-0.2,0.8-0.2
		s0.5,0,0.8,0.2c0.2,0.1,0.4,0.2,0.6,0.4c0.2,0.2,0.3,0.4,0.4,0.6c0.1,0.2,0.2,0.5,0.2,0.8s-0.1,0.5-0.2,0.8
		c-0.1,0.2-0.2,0.4-0.4,0.6c-0.2,0.2-0.4,0.3-0.6,0.4c-0.2,0.1-0.5,0.2-0.8,0.2s-0.5-0.1-0.8-0.2c-0.2-0.1-0.4-0.2-0.6-0.4
		c-0.2-0.2-0.3-0.4-0.4-0.6C51.4,101.2,51.4,100.9,51.4,100.6z M59.7,82.6v9.8c0,0.7-0.1,1.3-0.4,2c-0.3,0.6-0.6,1.1-1.1,1.6
		s-1,0.8-1.6,1.1s-1.2,0.4-1.9,0.4h-3.4v-3.7h3.4c0.3,0,0.6-0.1,0.8-0.3c0.2-0.2,0.3-0.5,0.3-0.8v-9.8h3.8V82.6z M55.9,100.6
		c0-0.3,0.1-0.5,0.2-0.8c0.1-0.2,0.2-0.4,0.4-0.6c0.2-0.2,0.4-0.3,0.6-0.4c0.2-0.1,0.5-0.2,0.8-0.2s0.5,0,0.8,0.2
		c0.2,0.1,0.4,0.2,0.6,0.4c0.2,0.2,0.3,0.4,0.4,0.6c0.1,0.2,0.2,0.5,0.2,0.8s-0.1,0.5-0.2,0.8c-0.1,0.2-0.2,0.4-0.4,0.6
		c-0.2,0.2-0.4,0.3-0.6,0.4c-0.2,0.1-0.5,0.2-0.8,0.2s-0.5-0.1-0.8-0.2c-0.2-0.1-0.4-0.2-0.6-0.4c-0.2-0.2-0.3-0.4-0.4-0.6
		C55.9,101.2,55.9,100.9,55.9,100.6z"/>
	<path class="st1" d="M63.5,82.6c1.8,0,3.3,0.2,4.6,0.5s2.4,0.8,3.1,1.3c0.8,0.5,1.5,1.3,1.8,2.2c0.3,0.9,0.6,1.9,0.6,2.9v4h2.7v3.7
		H62.6v-3.7h7.2v-4c0-0.5-0.1-1-0.4-1.4c-0.2-0.4-0.6-0.7-1.2-1c-0.5-0.3-1.2-0.5-2-0.6c-0.8-0.1-1.8-0.2-2.9-0.2v-3.7H63.5z"/>
	<path class="st1" d="M77.9,91.2c0-0.6,0.1-1.2,0.3-1.7c0.2-0.5,0.4-1,0.7-1.5c0.3-0.4,0.7-0.8,1.1-1.1s0.9-0.5,1.4-0.7
		c0.3-0.6,0.8-1.1,1.3-1.6c0.5-0.5,1.1-0.9,1.8-1.2c0.7-0.3,1.4-0.6,2.1-0.8c0.7-0.2,1.5-0.3,2.2-0.3c0.9,0,1.8,0.1,2.5,0.4
		c0.8,0.3,1.6,0.7,2.3,1.2c0.7,0.6,1.2,1.3,1.6,2.2c0.4,0.9,0.6,2,0.6,3.1v2.9c0,0.7-0.1,1.3-0.4,1.9c-0.3,0.6-0.6,1.1-1.1,1.6
		c-0.5,0.5-1,0.8-1.6,1.1s-1.3,0.4-2,0.4H75.2v-3.7h2.7V91.2z M81.7,93.5H84v-2.4c0-0.2,0-0.3-0.1-0.5c-0.1-0.2-0.1-0.3-0.2-0.4
		c-0.1-0.1-0.2-0.2-0.4-0.3c-0.2-0.1-0.3-0.1-0.5-0.1c-0.3,0-0.6,0.1-0.8,0.4c-0.2,0.3-0.3,0.6-0.3,0.9V93.5z M87.7,93.6h2.9
		c0.3,0,0.6-0.1,0.8-0.3c0.2-0.2,0.3-0.5,0.3-0.8v-2.9c0-0.6-0.1-1-0.3-1.4s-0.4-0.7-0.7-1c-0.3-0.3-0.6-0.4-1-0.6
		c-0.4-0.2-0.8-0.2-1.2-0.2c-0.5,0-1.1,0.1-1.6,0.2c-0.5,0.1-1,0.3-1.4,0.6c0.6,0.5,1.1,1.1,1.5,1.8c0.4,0.7,0.5,1.5,0.5,2.3
		L87.7,93.6L87.7,93.6z"/>
	<path class="st1" d="M107.3,85.2v10.6c0,0.4,0.1,0.8,0.2,1.2c0.2,0.4,0.4,0.7,0.7,1s0.6,0.5,1,0.7c0.4,0.2,0.8,0.2,1.2,0.2h5.2
		c0.6,0,1.1-0.1,1.5-0.4s0.8-0.6,1.1-1.1h-4.3c-0.7,0-1.3-0.1-1.9-0.4c-0.6-0.3-1.1-0.6-1.6-1.1c-0.5-0.5-0.8-1-1.1-1.6
		c-0.3-0.6-0.4-1.2-0.4-1.9v-2.9c0-1,0.2-1.9,0.5-2.6c0.3-0.8,0.8-1.6,1.5-2.2c0.6-0.6,1.3-1.1,2.2-1.5c0.8-0.4,1.7-0.5,2.6-0.5
		c0.9,0,1.8,0.2,2.6,0.6c0.8,0.4,1.6,0.9,2.2,1.5s1.1,1.4,1.5,2.2c0.4,0.8,0.5,1.7,0.5,2.6v4.1h2.7v3.7h-2.9
		c-0.2,0.8-0.5,1.5-0.9,2.1c-0.4,0.6-0.9,1.2-1.5,1.7c-0.6,0.5-1.2,0.9-2,1.1c-0.7,0.3-1.5,0.4-2.3,0.4h-5.2c-1,0-1.9-0.2-2.6-0.5
		c-0.8-0.4-1.6-0.9-2.2-1.5s-1.1-1.4-1.5-2.2c-0.4-0.8-0.5-1.7-0.5-2.6V85.3L107.3,85.2L107.3,85.2z M111.3,79.3
		c0-0.3,0.1-0.5,0.2-0.8c0.1-0.2,0.2-0.4,0.4-0.6c0.2-0.2,0.4-0.3,0.6-0.4c0.2-0.1,0.5-0.2,0.8-0.2s0.5,0.1,0.8,0.2s0.4,0.2,0.6,0.4
		c0.2,0.2,0.3,0.4,0.4,0.6c0.1,0.2,0.2,0.5,0.2,0.8s0,0.5-0.2,0.8c-0.2,0.3-0.2,0.4-0.4,0.6c-0.2,0.2-0.4,0.3-0.6,0.4
		c-0.2,0.1-0.5,0.2-0.8,0.2s-0.5,0-0.8-0.2c-0.2-0.1-0.4-0.2-0.6-0.4c-0.2-0.2-0.3-0.4-0.4-0.6C111.4,79.9,111.3,79.6,111.3,79.3z
		 M118.5,93.6v-4.1c0-0.4-0.1-0.8-0.2-1.2c-0.2-0.4-0.4-0.7-0.6-1c-0.3-0.3-0.6-0.5-1-0.7c-0.4-0.2-0.8-0.2-1.2-0.2
		c-0.4,0-0.8,0.1-1.2,0.2c-0.4,0.2-0.7,0.4-0.9,0.7c-0.3,0.3-0.5,0.6-0.6,1c-0.2,0.4-0.2,0.8-0.2,1.2v2.9c0,0.3,0.1,0.6,0.3,0.8
		c0.2,0.2,0.5,0.3,0.8,0.3L118.5,93.6L118.5,93.6z M115.9,79.3c0-0.3,0.1-0.5,0.2-0.8c0.1-0.2,0.2-0.4,0.4-0.6
		c0.2-0.2,0.4-0.3,0.6-0.4c0.2-0.1,0.5-0.2,0.8-0.2s0.5,0.1,0.8,0.2c0.2,0.1,0.4,0.2,0.6,0.4c0.2,0.2,0.3,0.4,0.4,0.6
		c0.1,0.2,0.2,0.5,0.2,0.8s-0.1,0.5-0.2,0.8c-0.1,0.2-0.2,0.4-0.4,0.6c-0.2,0.2-0.4,0.3-0.6,0.4c-0.2,0.1-0.5,0.2-0.8,0.2
		s-0.5,0-0.8-0.2c-0.3-0.2-0.4-0.2-0.6-0.4c-0.2-0.2-0.3-0.4-0.4-0.6C116,79.9,115.9,79.6,115.9,79.3z"/>
	<path class="st1" d="M123.8,100.6c0-0.3,0.1-0.5,0.2-0.8c0.1-0.2,0.2-0.4,0.4-0.6c0.2-0.2,0.4-0.3,0.6-0.4c0.2-0.1,0.5-0.2,0.8-0.2
		s0.5,0,0.8,0.2c0.2,0.1,0.4,0.2,0.6,0.4c0.2,0.2,0.3,0.4,0.4,0.6c0.1,0.2,0.2,0.5,0.2,0.8s-0.1,0.5-0.2,0.8
		c-0.1,0.2-0.2,0.4-0.4,0.6c-0.2,0.2-0.4,0.3-0.6,0.4c-0.2,0.1-0.5,0.2-0.8,0.2s-0.5-0.1-0.8-0.2c-0.3-0.1-0.4-0.2-0.6-0.4
		c-0.2-0.2-0.3-0.4-0.4-0.6C123.8,101.2,123.8,100.9,123.8,100.6z M132.1,82.6v10.9h2.7v3.7h-11.1v-3.7h4.6V82.6H132.1z
		 M128.3,100.6c0-0.3,0-0.5,0.2-0.8c0.2-0.3,0.2-0.4,0.4-0.6c0.2-0.2,0.4-0.3,0.6-0.4c0.2-0.1,0.5-0.2,0.8-0.2s0.5,0,0.8,0.2
		s0.4,0.2,0.6,0.4c0.2,0.2,0.3,0.4,0.4,0.6c0.1,0.2,0.2,0.5,0.2,0.8s-0.1,0.5-0.2,0.8c-0.1,0.2-0.2,0.4-0.4,0.6
		c-0.2,0.2-0.4,0.3-0.6,0.4c-0.2,0.1-0.5,0.2-0.8,0.2s-0.5-0.1-0.8-0.2c-0.2-0.1-0.4-0.2-0.6-0.4c-0.2-0.2-0.3-0.4-0.4-0.6
		C128.4,101.2,128.3,100.9,128.3,100.6z"/>
	<path class="st1" d="M142,82.6v10.9h2.7v3.7h-11.1v-3.7h4.6V82.6H142z M137.1,100.6c0-0.3,0-0.5,0.2-0.8c0.1-0.2,0.2-0.4,0.4-0.6
		c0.2-0.2,0.4-0.3,0.6-0.4c0.2-0.1,0.5-0.2,0.8-0.2s0.5,0,0.8,0.2c0.3,0.2,0.4,0.2,0.6,0.4c0.2,0.2,0.3,0.4,0.4,0.6
		c0.1,0.2,0.2,0.5,0.2,0.8s-0.1,0.5-0.2,0.8s-0.2,0.4-0.4,0.6c-0.2,0.2-0.4,0.3-0.6,0.4c-0.2,0.1-0.5,0.2-0.8,0.2s-0.5-0.1-0.8-0.2
		c-0.2-0.1-0.4-0.2-0.6-0.4c-0.2-0.2-0.3-0.4-0.4-0.6C137.2,101.2,137.1,100.9,137.1,100.6z"/>
	<path class="st1" d="M150.1,77.4v7.1c0.9-0.6,1.8-1,2.8-1.4c1-0.3,2-0.5,2.9-0.5c0.9,0,1.7,0.1,2.4,0.4c0.8,0.3,1.5,0.7,2,1.2
		c0.5,0.5,1.1,1.3,1.4,2.2s0.5,2,0.5,3.2v4h2.7v3.7h-21.4v-3.7h2.7V77.4H150.1z M155.8,86.4c-0.4,0-0.9,0-1.4,0.1
		c-0.5,0.1-0.9,0.2-1.4,0.4c-0.4,0.2-0.8,0.4-1.2,0.6c-0.4,0.2-0.7,0.5-1,0.8s-0.5,0.6-0.7,0.9c-0.2,0.3-0.2,0.6-0.2,0.9v3.5h8.3v-4
		c0-0.6-0.1-1.1-0.2-1.5c-0.1-0.4-0.3-0.7-0.6-1c-0.2-0.3-0.5-0.4-0.8-0.6C156.4,86.4,156.1,86.4,155.8,86.4z"/>
	<path class="st1" d="M171.9,82.6v9.8c0,0.7-0.1,1.3-0.4,2c-0.3,0.6-0.6,1.1-1.1,1.6s-1,0.8-1.6,1.1s-1.3,0.4-1.9,0.4h-3.4v-3.7h3.4
		c0.3,0,0.6-0.1,0.8-0.3c0.2-0.2,0.3-0.5,0.3-0.8v-9.8h3.8V82.6z M163.6,79.3c0-0.3,0.1-0.5,0.2-0.8c0.1-0.2,0.2-0.4,0.4-0.6
		c0.2-0.2,0.4-0.3,0.6-0.4c0.2-0.1,0.5-0.2,0.8-0.2s0.5,0.1,0.8,0.2s0.4,0.2,0.6,0.4c0.2,0.2,0.3,0.4,0.4,0.6
		c0.1,0.2,0.2,0.5,0.2,0.8s-0.1,0.5-0.2,0.8c-0.1,0.3-0.2,0.4-0.4,0.6c-0.2,0.2-0.4,0.3-0.6,0.4c-0.2,0.1-0.5,0.2-0.8,0.2
		s-0.5,0-0.8-0.2c-0.2-0.1-0.4-0.2-0.6-0.4c-0.2-0.2-0.3-0.4-0.4-0.6C163.7,79.9,163.6,79.6,163.6,79.3z M168.1,79.3
		c0-0.3,0.1-0.5,0.2-0.8c0.1-0.2,0.2-0.4,0.4-0.6c0.2-0.2,0.4-0.3,0.6-0.4s0.5-0.2,0.8-0.2s0.5,0.1,0.8,0.2c0.2,0.1,0.4,0.2,0.6,0.4
		c0.2,0.2,0.3,0.4,0.4,0.6c0.1,0.2,0.2,0.5,0.2,0.8s-0.1,0.5-0.2,0.8c-0.1,0.2-0.2,0.4-0.4,0.6c-0.2,0.2-0.4,0.3-0.6,0.4
		c-0.2,0.1-0.5,0.2-0.8,0.2s-0.5,0-0.8-0.2c-0.3-0.2-0.4-0.2-0.6-0.4c-0.2-0.2-0.3-0.4-0.4-0.6C168.2,79.9,168.1,79.6,168.1,79.3z"
		/>
</g>
<path class="st2" d="M181.8,137.1l20.8,40.5c0,13.5-11,24.5-24.5,24.5h-153c-13.5,0-24.5-11-24.5-24.5l21.6-35.8
	C49.4,95.5,149.7,95.1,181.8,137.1z"/>
<g>
	<path class="st1" d="M77,155.2c-5.3-2.5-10-2.4-14.9,1c-0.1-1.5-0.2-2.4-0.2-3.4c0-9.4,0-18.9,0-28.3c0-6.4,2.8-9.1,9.3-9.1
		c19.9,0,39.8,0,59.7,0c6.5,0,9.2,2.7,9.2,9.2c0,19.8,0,39.6,0,59.4c0,6.2-2.8,9-9.1,9.1c-20,0-40,0-60,0c-8.6,0-9.9-6.4-8.9-12.4
		c0.4-2.5,2.5-2.9,4.8-2.9c10.7,0,21.3,0,32,0c5.5,0,11.1,0,16.6,0c5.8-0.1,9-3.2,9.1-8.9c0.1-9.7,0.1-19.5,0-29.2
		c0-5.4-3.1-8.8-8.5-8.9c-10.1-0.2-20.1-0.2-30.2,0c-5.2,0.1-8.3,3.3-8.6,8.6c-0.2,3.9-0.1,7.8-0.1,11.7
		C77.2,152.1,77.1,153.3,77,155.2z"/>
	<path class="st1" d="M101,142.7c1.5,0,3.1-0.1,4.6,0c3.7,0.4,6.6,3.1,6.8,6.8c0.2,3.1,0.2,6.2,0,9.2c-0.2,3.7-3.1,6.5-6.8,6.8
		c-3.1,0.2-6.2,0.2-9.2,0c-4-0.3-6.8-3.2-7-7.2c-0.1-2.7-0.1-5.3,0-8c0.2-4.5,3-7.4,7.6-7.7C98.3,142.6,99.7,142.7,101,142.7
		L101,142.7z"/>
	<path class="st1" d="M70.1,173.5c-4.6,0-8.3-3.6-8.2-8.2c0.1-4.6,3.7-8.1,8.4-8c4.5,0.1,8,3.6,8,8
		C78.3,169.9,74.7,173.5,70.1,173.5z"/>
</g>
</svg>
