<?xml version="1.0" encoding="utf-8"?>
<!-- Generator: Adobe Illustrator 25.0.1, SVG Export Plug-In . SVG Version: 6.00 Build 0)  -->
<svg version="1.1" id="Layer_1" xmlns="http://www.w3.org/2000/svg" xmlns:xlink="http://www.w3.org/1999/xlink" x="0px" y="0px"
	 viewBox="0 0 202.6 202" style="enable-background:new 0 0 202.6 202;" xml:space="preserve">
<style type="text/css">
	.st0{fill:#EF7841;}
	.st1{fill:#B55130;}
	.st2{fill:none;stroke:#F0E6CB;stroke-width:2.8346;stroke-miterlimit:10;}
	.st3{fill:#F0E6CB;}
</style>
<path class="st0" d="M24.5,0h153C191,0,202,11,202,24.5v153c0,13.5-11,24.5-24.5,24.5h-153C11,202,0,191,0,177.5v-153
	C0,11,11,0,24.5,0z"/>
<path class="st1" d="M52.6,94.4l-4.3,11.3l4.5,29l-1.4,56.5L177.5,202c12.7,0,21.4-7.2,24.5-24.5l-52.9-83.1H52.6z"/>
<g>
	<path class="st2" d="M145.3,117H59.6c-6.3,0-11.3-5.1-11.3-11.3l0,0c0-6.3,5.1-11.3,11.3-11.3h85.8c6.3,0,11.3,5.1,11.3,11.3l0,0
		C156.7,112,151.6,117,145.3,117z"/>
	<path class="st3" d="M118.6,109.4c-0.5,0.8-0.9,1.5-1.3,2.4c-1.7-1.2-3.2-2.3-5-3.5c0,2,0,4,0,5.9c-0.7,0-1.5,0.1-2.1,0
		c-0.1,0-0.3-0.4-0.3-0.6c0-1.5,0-2.8,0-4.3c0-0.3,0-0.5,0-1c-1.7,1.2-3.2,2.2-4.9,3.4c-0.4-0.8-0.8-1.5-1.1-2.2
		c-0.1-0.1,0.2-0.5,0.4-0.6c1.3-0.9,2.6-1.8,3.9-2.7c0.3-0.1,0.5-0.3,0.8-0.5c-1.8-1.3-3.4-2.4-5.2-3.7c0.5-0.8,0.9-1.5,1.4-2.4
		c1.6,1.1,3,2.2,4.8,3.4c0-0.7,0-1.3,0-1.9c0-1,0-2,0-3c0-0.5,0.2-0.7,0.7-0.7c0.6,0,1.2,0,1.9,0c0,1.9,0,3.7,0,5.7
		c1.7-1.2,3.2-2.2,4.9-3.4c0.5,0.7,0.9,1.5,1.5,2.2c-1.8,1.3-3.4,2.4-5.3,3.8C115.2,106.9,116.9,108.1,118.6,109.4z"/>
	<path class="st3" d="M127.3,108.3c-1.7,1.2-3.2,2.2-4.8,3.4c-0.4-0.8-0.8-1.5-1.1-2.2c-0.1-0.1,0.2-0.5,0.3-0.6
		c1.3-0.9,2.6-1.9,4-2.8c0.2-0.1,0.4-0.3,0.7-0.5c-1.7-1.3-3.4-2.4-5.2-3.7c0.5-0.8,0.9-1.5,1.4-2.4c1.6,1.1,3,2.2,4.7,3.4
		c0-1.2,0-2.2,0-3.2c0-0.6,0-1.2,0-1.8c0-0.4,0.1-0.7,0.6-0.6h0.1c1.9-0.1,1.9-0.1,1.9,1.8c0,1.3,0,2.4,0,3.9
		c0.9-0.6,1.7-1.2,2.4-1.7s1.5-1.1,2.4-1.7c0.5,0.8,0.9,1.5,1.5,2.2c-1.8,1.3-3.4,2.4-5.3,3.7c1.8,1.3,3.5,2.5,5.2,3.8
		c-0.4,0.7-0.7,1.4-1.1,2c-0.2,0.4-0.5,0.3-0.7,0.1c-1.3-0.9-2.6-1.9-3.9-2.8c-0.1-0.1-0.3-0.2-0.5-0.3c0,2,0,3.9,0,5.9
		c-0.8,0-1.5,0-2.2,0c-0.1,0-0.3-0.4-0.3-0.6c0-1.5,0-2.9,0-4.4C127.3,109.1,127.3,108.8,127.3,108.3z"/>
	<path class="st3" d="M77.5,103c1.7-1.2,3.2-2.2,4.9-3.4c0.5,0.8,0.9,1.5,1.5,2.2c-1.8,1.3-3.4,2.4-5.3,3.7c1.1,0.8,2,1.5,3,2.2
		c0.6,0.4,1.1,0.9,1.7,1.2c0.4,0.3,0.5,0.5,0.2,0.9c-0.3,0.4-0.5,0.8-0.7,1.2c-0.3,0.5-0.5,0.6-1,0.3c-1.3-0.9-2.4-1.8-3.7-2.6
		c-0.1-0.1-0.3-0.2-0.6-0.3c0,2,0,3.9,0,5.8c-0.9,0-1.7,0-2.5,0c0-1.9,0-3.8,0-5.9c-1.7,1.2-3.2,2.3-4.9,3.4
		c-0.5-0.9-0.9-1.7-1.3-2.5c1.7-1.2,3.4-2.4,5.2-3.6c-1.7-1.3-3.4-2.4-5.2-3.7c0.5-0.8,0.9-1.5,1.4-2.4c1.6,1.1,3.1,2.2,4.8,3.4
		c0-1.1,0-2,0-2.9c0-0.2,0-0.5,0-0.7c0-2.2,0.1-2.4,2.5-1.9C77.5,99.2,77.5,101.1,77.5,103z"/>
	<path class="st3" d="M91.5,105.6c-1.8-1.3-3.4-2.4-5.2-3.7c0.5-0.8,0.9-1.5,1.4-2.4c1.6,1.1,3.1,2.2,4.7,3.4c0-0.3,0.1-0.5,0.1-0.8
		c0-1.4,0-2.7,0-4.1c0-0.6,0.2-0.8,0.8-0.7c0.5,0.1,1.1,0,1.7,0c0,1.9,0,3.7,0,5.7c1.7-1.2,3.3-2.2,4.9-3.4c0.5,0.8,0.9,1.5,1.5,2.2
		c-1.7,1.3-3.5,2.4-5.3,3.8c1.8,1.3,3.5,2.5,5.2,3.8c-0.5,0.8-0.9,1.6-1.3,2.4c-1.7-1.2-3.2-2.2-4.9-3.5c0,2,0,4,0,5.9
		c-0.8,0-1.5,0-2.1,0c-0.5,0-0.5-0.3-0.5-0.6c0-1.5,0-3,0-4.5c0-0.3,0-0.5,0-0.9c-1.7,1.2-3.2,2.2-4.9,3.4c-0.4-0.8-0.8-1.5-1.1-2.3
		c-0.1-0.1,0.2-0.5,0.4-0.6c1.3-0.9,2.6-1.9,4-2.7C91,106,91.2,105.9,91.5,105.6z"/>
</g>
<g>
	<path class="st3" d="M68.2,13.9v13.6h3.4v4.7H68c-0.2,1.1-0.6,2.1-1.2,2.9s-1.3,1.5-2.2,2.1c-0.8,0.5-1.8,0.9-2.8,1.2
		c-1,0.3-2,0.4-3.1,0.4c-1.2,0-2.3-0.2-3.5-0.5c-1.1-0.4-2.1-0.9-3-1.6c-0.9-0.7-1.6-1.6-2.1-2.6s-0.8-2.3-0.8-3.7V17.1h4.7v13.4
		c0,0.6,0.1,1.2,0.4,1.6s0.6,0.9,1.1,1.2c0.4,0.3,0.9,0.5,1.5,0.7c0.6,0.2,1.1,0.2,1.7,0.2c0.6,0,1.1-0.1,1.7-0.2
		c0.6-0.2,1.1-0.4,1.5-0.7s0.8-0.7,1.1-1.2s0.4-1,0.4-1.6V13.9H68.2z M56.4,9.8c0-0.3,0.1-0.6,0.2-0.9s0.3-0.5,0.5-0.8
		c0.2-0.2,0.5-0.4,0.8-0.5c0.3-0.1,0.6-0.2,0.9-0.2c0.3,0,0.6,0.1,0.9,0.2c0.3,0.1,0.5,0.3,0.8,0.5s0.4,0.5,0.5,0.8
		c0.1,0.3,0.2,0.6,0.2,0.9c0,0.3-0.1,0.6-0.2,0.9c-0.1,0.3-0.3,0.5-0.5,0.8c-0.2,0.2-0.5,0.4-0.8,0.5c-0.3,0.1-0.6,0.2-0.9,0.2
		c-0.3,0-0.6-0.1-0.9-0.2c-0.3-0.1-0.5-0.3-0.8-0.5c-0.2-0.2-0.4-0.5-0.5-0.8S56.4,10.1,56.4,9.8z"/>
	<path class="st3" d="M70.1,27.6h9v4.7h-9V27.6z"/>
	<path class="st3" d="M77.5,27.6h9v4.7h-9V27.6z"/>
	<path class="st3" d="M84.9,27.6h9v4.7h-9V27.6z"/>
	<path class="st3" d="M92.4,27.6h3.5c0-0.2-0.1-0.5-0.1-0.7c0-0.2,0-0.5,0-0.7v-3.8c0-1.2,0.2-2.2,0.6-3.3c0.4-1,1-1.9,1.8-2.7
		c0.8-0.8,1.6-1.4,2.6-1.8c1-0.4,2.1-0.7,3.2-0.7c1.1,0,2.2,0.2,3.2,0.7c1,0.5,1.9,1.1,2.6,1.9c0.8,0.8,1.3,1.7,1.8,2.7
		c0.4,1,0.6,2.1,0.6,3.2v3.8c0,0.3,0,0.5,0,0.7c0,0.2,0,0.5-0.1,0.7h3.5v4.7h-6c-0.8,0.7-1.6,1.3-2.6,1.7c-1,0.4-2,0.6-3.1,0.6
		c-2.3,0-4.2-0.8-5.7-2.3h-6V27.6z M104.1,18.7c-0.5,0-1,0.1-1.4,0.3c-0.4,0.2-0.8,0.5-1.1,0.8c-0.3,0.3-0.6,0.7-0.8,1.2
		c-0.2,0.5-0.3,0.9-0.3,1.5v3.8c0,0.5,0.1,1,0.3,1.5c0.2,0.5,0.4,0.9,0.8,1.2c0.3,0.3,0.7,0.6,1.1,0.8c0.4,0.2,0.9,0.3,1.4,0.3
		c0.5,0,1-0.1,1.4-0.3c0.4-0.2,0.8-0.5,1.1-0.8c0.3-0.3,0.6-0.7,0.8-1.2c0.2-0.4,0.3-0.9,0.3-1.4v-3.8c0-0.5-0.1-1-0.3-1.4
		c-0.2-0.4-0.4-0.8-0.8-1.2c-0.3-0.3-0.7-0.6-1.1-0.8C105,18.8,104.6,18.7,104.1,18.7z"/>
	<path class="st3" d="M114.2,27.6h9v4.7h-9V27.6z"/>
	<path class="st3" d="M121.6,27.6h9v4.7h-9V27.6z"/>
	<path class="st3" d="M132,16c0.4-0.2,0.9-0.4,1.5-0.6c0.6-0.2,1.3-0.5,2-0.7c0.7-0.2,1.4-0.4,2.2-0.5c0.8-0.1,1.5-0.2,2.2-0.2
		c1,0,2.1,0.1,3.1,0.4c1,0.3,1.9,0.7,2.7,1.3c0.8,0.6,1.4,1.5,1.9,2.6c0.5,1.1,0.7,2.5,0.7,4.2v3.7c0,0.8-0.2,1.6-0.5,2.4
		c-0.3,0.7-0.8,1.4-1.3,1.9c-0.6,0.5-1.2,1-2,1.3c-0.7,0.3-1.5,0.5-2.4,0.5h-13v-4.7h13c0.4,0,0.8-0.1,1-0.4c0.3-0.3,0.4-0.6,0.4-1
		v-3.7c0-0.8-0.1-1.4-0.3-1.9c-0.2-0.5-0.5-0.9-0.8-1.2c-0.3-0.3-0.7-0.5-1.2-0.6c-0.4-0.1-0.9-0.2-1.3-0.2c-0.5,0-1,0.1-1.6,0.2
		s-1.1,0.2-1.6,0.4c-0.5,0.2-1,0.3-1.5,0.5c-0.5,0.2-0.8,0.4-1.2,0.5L132,16z M137.5,9.8c0-0.3,0.1-0.6,0.2-0.9
		c0.1-0.3,0.3-0.5,0.5-0.8s0.5-0.4,0.8-0.5c0.3-0.1,0.6-0.2,0.9-0.2c0.3,0,0.6,0.1,0.9,0.2c0.3,0.1,0.5,0.3,0.7,0.5
		c0.2,0.2,0.4,0.5,0.5,0.8s0.2,0.6,0.2,0.9c0,0.3-0.1,0.6-0.2,0.9s-0.3,0.5-0.5,0.8c-0.2,0.2-0.5,0.4-0.7,0.5
		c-0.3,0.1-0.6,0.2-0.9,0.2c-0.3,0-0.6-0.1-0.9-0.2c-0.3-0.1-0.5-0.3-0.8-0.5c-0.2-0.2-0.4-0.5-0.5-0.8
		C137.6,10.4,137.5,10.1,137.5,9.8z"/>
	<path class="st3" d="M56.3,61.4c0.4-0.2,0.9-0.4,1.5-0.6c0.6-0.2,1.3-0.5,2-0.7c0.7-0.2,1.4-0.4,2.2-0.5c0.8-0.1,1.5-0.2,2.2-0.2
		c1,0,2.1,0.1,3.1,0.4c1,0.3,1.9,0.7,2.7,1.3s1.4,1.5,1.9,2.6c0.5,1.1,0.7,2.5,0.7,4.2V73h3.4v4.7H61.5c-0.2,0-0.4,0.1-0.5,0.3
		c-0.1,0.2-0.2,0.4-0.2,0.6c0,0.2,0.1,0.4,0.2,0.6c0.1,0.2,0.3,0.3,0.5,0.3h6.3v4.7h-6.3c-0.9,0-1.7-0.2-2.4-0.5
		c-0.7-0.3-1.2-0.8-1.7-1.3s-0.8-1.1-1-1.8c-0.2-0.7-0.3-1.4-0.3-2.1s0.1-1.4,0.3-2.1s0.6-1.3,1-1.8c0.5-0.5,1-1,1.7-1.3
		c0.7-0.3,1.5-0.5,2.4-0.5h6.2V68c0-0.8-0.1-1.4-0.3-1.9s-0.5-0.9-0.8-1.2c-0.3-0.3-0.7-0.5-1.2-0.6c-0.4-0.1-0.9-0.2-1.3-0.2
		c-0.5,0-1,0.1-1.6,0.2s-1.1,0.2-1.6,0.4c-0.5,0.2-1,0.3-1.5,0.5c-0.5,0.2-0.8,0.4-1.1,0.5L56.3,61.4z"/>
	<path class="st3" d="M74.4,73h9v4.7h-9V73z"/>
	<path class="st3" d="M81.8,73h9v4.7h-9V73z"/>
	<path class="st3" d="M89.2,73h9v4.7h-9V73z"/>
	<path class="st3" d="M107.1,59.4v12.2c0,0.9-0.2,1.6-0.5,2.4c-0.3,0.7-0.8,1.4-1.3,2c-0.6,0.6-1.2,1-2,1.3
		c-0.7,0.3-1.5,0.5-2.4,0.5h-4.3V73h4.3c0.4,0,0.7-0.1,1-0.4c0.3-0.3,0.4-0.6,0.4-1V59.4H107.1z M102.3,81.9c0-0.3,0.1-0.6,0.2-0.9
		c0.1-0.3,0.3-0.5,0.5-0.7c0.2-0.2,0.5-0.4,0.8-0.5c0.3-0.1,0.6-0.2,0.9-0.2s0.6,0.1,0.9,0.2c0.3,0.1,0.5,0.3,0.8,0.5
		s0.4,0.5,0.5,0.7c0.1,0.3,0.2,0.6,0.2,0.9c0,0.3-0.1,0.6-0.2,0.9c-0.1,0.3-0.3,0.5-0.5,0.8c-0.2,0.2-0.5,0.4-0.8,0.5
		c-0.3,0.1-0.6,0.2-0.9,0.2s-0.6-0.1-0.9-0.2c-0.3-0.1-0.5-0.3-0.8-0.5c-0.2-0.2-0.4-0.5-0.5-0.8C102.4,82.6,102.3,82.3,102.3,81.9z
		"/>
	<path class="st3" d="M119,59.4v15.8c0,0,0,0.2,0,0.5c0,0.3-0.1,0.8-0.2,1.3c-0.1,0.5-0.3,1.1-0.6,1.8s-0.7,1.3-1.3,2
		c-0.6,0.7-1.3,1.4-2.2,2.1s-2,1.3-3.3,1.8l-1.8-4.4c0.6-0.3,1.1-0.5,1.6-0.8c0.5-0.3,0.9-0.6,1.2-0.9c0.3-0.3,0.6-0.6,0.8-0.9
		c0.2-0.3,0.4-0.5,0.6-0.8c0.3-0.6,0.5-1.2,0.5-1.7v-16H119z"/>
	<path class="st3" d="M127.6,52.8v25h-4.7v-25H127.6z"/>
	<path class="st3" d="M133.9,79.6h5.9c0.7,0,1.3-0.2,1.9-0.5c0.6-0.3,1-0.8,1.3-1.4h-5.5c-0.8,0-1.6-0.2-2.4-0.5s-1.4-0.8-1.9-1.3
		c-0.6-0.5-1-1.2-1.3-1.9c-0.3-0.7-0.5-1.5-0.5-2.4v-3.7c0-1.2,0.2-2.3,0.7-3.3c0.4-1,1-1.9,1.8-2.7s1.6-1.4,2.7-1.8
		c1-0.5,2.1-0.7,3.2-0.7c1.2,0,2.2,0.2,3.3,0.7c1,0.5,1.9,1.1,2.7,1.9c0.8,0.8,1.4,1.7,1.8,2.7c0.4,1,0.7,2.1,0.7,3.2V76
		c0,1.1-0.2,2.2-0.7,3.2s-1,1.9-1.8,2.7s-1.6,1.4-2.7,1.8c-1,0.4-2.1,0.7-3.2,0.7h-5.9V79.6z M143.5,73v-5.2c0-0.5-0.1-1-0.3-1.4
		s-0.5-0.9-0.8-1.2s-0.7-0.6-1.2-0.8c-0.4-0.2-0.9-0.3-1.4-0.3c-0.5,0-1,0.1-1.4,0.3c-0.4,0.2-0.8,0.5-1.1,0.8
		c-0.3,0.3-0.6,0.8-0.8,1.2c-0.2,0.5-0.3,1-0.3,1.5v3.7c0,0.4,0.1,0.7,0.4,1c0.3,0.3,0.6,0.4,1,0.4H143.5z"/>
</g>
<g>
	<g>
		<path class="st3" d="M51.4,140.4c0-2.8,0.1-5.5,0-8.1c-0.1-3.3,0.9-4.6,4.3-4.6c10.3,0.1,20.6,0.2,30.9,0.3c3.3,0,6.6,0,9.9,0
			c5.6,0,11.2,0,16.7,0c8.5,0,17.1-0.2,25.6-0.1c5.3,0,10.6,0.4,15.9,0.6c2,0.1,3,1.6,3,4.3c0,2.1,0.1,4.2,0.1,6.3
			c0,1.2,0.4,1.4,1.6,1.3c1.1-0.1,3,0,3.1,0.5c0.6,1.5,0.6,3.3,0.6,4.9c0,0.4-1.2,0.9-1.9,1.1c-1,0.2-2.1,0-3.2,0
			c0,9.9,0,19.6,0,29.6c1.2,0,2.2,0,3.3,0c1.5,0,2.1,0.8,2.1,2.2c0,0.1,0,0.2,0,0.4c0.2,4.5-1.4,4.2-4.9,3.8
			c-0.1,0.6-0.1,1.1-0.1,1.7c0,2.3,0.1,4.6,0,6.9c-0.1,2.5-1.2,3.6-3.7,3.7c-3.6,0.1-7.3,0.1-10.9,0.1c-6,0-11.9,0.1-17.9-0.1
			c-4.9-0.2-9.8,0.4-14.7,0.2c-5-0.2-10.1-0.2-15.1-0.1c-8.7,0.1-17.5,0.3-26.2,0.3c-4.9,0-9.8-0.2-14.7-0.4c-2.6-0.1-3.7-1.4-3.7-4
			c0-2.5,0-5.1,0-7.8c-0.9,0-1.7,0-2.6,0c-1.9,0-2.5-0.6-2.5-2.4c0-0.2,0-0.4,0-0.6c0-3.7,0-3.6,3.7-4c0.5-0.1,1.2-0.7,1.2-1.1
			c0.1-9.2,0.1-18.5,0.1-27.7c0-0.1-0.1-0.2,0-0.1c-1.7-0.5-3.5-0.6-4.7-1.5c-0.7-0.5-0.4-2.4-0.3-3.7
			C46.6,140.3,47.7,139.9,51.4,140.4z M151.3,188.8c0-18.2,0-36,0-54.1c-31.2,0-62.1,0-93.3,0c0.4,17.8,0.1,35.8,0.1,54.1
			C89.4,188.8,120.4,188.8,151.3,188.8z"/>
		<path class="st3" d="M122.8,160.5c1.3,1.1,1.7,2.8,1.7,4.8c-0.2,4.3,0,8.7-0.1,13.1c0,2.3-1.3,3.7-3.7,3.8c-3.9,0.1-7.8,0-12.1,0
			c0-5.6,0-11.2,0-16.8c0-0.8-0.4-1.5-0.6-2.3c-0.5-2-1.1-4,0.5-5.8c0.2-0.2,0.3-0.6,0.3-1c-0.1-4.6-0.1-9.2-0.3-13.7
			c-0.1-1.4,0.4-1.8,1.7-1.8c3.7,0.1,7.4,0,11.2,0.1c2,0,2.8,0.8,2.9,2.8c0.1,4.2,0.1,8.4-0.1,12.6
			C124,157.7,123.3,158.9,122.8,160.5z M118,163.8c-3.3-0.6-3.3-0.5-3.4,2.2c-0.1,3.2-0.1,6.3-0.3,9.5c0,1.2,0.6,1.4,1.5,1.3
			c0.7-0.1,2.1,0.8,2.1-0.9C118,171.9,118,167.9,118,163.8z M117.9,151.6C118,151.6,118,151.6,117.9,151.6c0-1.4,0.1-2.7,0-4.1
			c-0.1-0.4-0.8-1.1-1.2-1.1c-0.7,0-1.9,0.5-1.9,0.8c-0.2,3.1-0.2,6.3,0,9.4c0,0.4,1.4,0.8,2.2,1c0.2,0,0.8-0.9,0.9-1.4
			C118,154.7,117.9,153.2,117.9,151.6z"/>
		<path class="st3" d="M97.1,176.8c0.1-0.6,0.3-1.3,0.3-1.9c0-9.3,0-18.7,0-28c0-1.1,0-2.2,0-3.4c0-1.5,0.7-2.3,2.3-2.2
			c0.4,0,0.9,0.1,1.3,0.1c2.4,0.1,2.8,0.4,2.8,2.8c0,9.8,0,19.6-0.1,29.3c0,1.7,0,3.4-0.1,5c-0.1,2.6-1.3,3.7-3.9,3.7
			c-3,0-6.1,0-9.1,0.1c-3.2,0.1-4.4-0.9-4.4-4.1c0-9.9,0.2-19.8,0.2-29.6c0-2,0.1-4.1,0-6.1c0-1.1,0.1-1.6,1.5-1.5
			c4.9,0.4,4.8,0.3,4.9,5.3c0,5.5,0.2,10.9,0.1,16.4c0,4-0.2,7.9-0.3,11.9c0,1.3,0,2.3,1.8,1.7C95.3,176.1,96.1,176.5,97.1,176.8z"
			/>
		<path class="st3" d="M139.5,151c-0.1-0.9-0.3-1.5-0.2-2.2c0.2-2-0.5-2.6-2.5-2.4c-1.6,0.1-2,0.3-2,2.1c0.2,7.9,0.2,15.8,0.3,23.7
			c0,1.4,0,2.7,0,4.3c0.7,0.1,1.6,0.1,2.5,0.3c1.1,0.1,1.5-0.4,1.5-1.4c-0.1-3.6-0.2-7.2-0.3-10.8c0-0.3,0-0.8-0.1-0.9
			c-2.3-1.7-1-3.9-1.1-6.3c2.2,0,4.3-0.1,6.4,0.1c0.4,0,1,1.2,1,1.8c0.1,4.7,0,9.3,0,14c0,1.7,0,3.4,0,5c0,2.8-1.4,4.2-4.1,4.2
			c-2.8,0-5.7,0-8.5-0.1c-2.2,0-3.7-1.3-3.7-3.6c-0.1-4.7,0-9.3,0-14c0-4.9-0.1-9.9-0.1-14.8c0-2,0-4.1,0.2-6.1c0.2-1.9,1.5-3,3.4-3
			c3.1,0,6.2-0.1,9.3,0c2.6,0.1,3.4,1.1,3.3,3.6c-0.1,1.7-0.1,3.4,0,5c0,1.2-0.5,1.6-1.5,1.5C141.9,150.9,140.7,151,139.5,151z"/>
		<path class="st3" d="M72,165.6c0.1,1.8,0.2,3.2,0.2,4.6c0.1,3.3,0.1,6.7,0.1,10c0,1.5-0.6,2.3-2.3,2.3c-4.3,0.1-4.5,0-4.5-4.4
			c0-4,0.2-7.9,0.2-11.9c0-0.2,0-0.5-0.1-0.7c-1.8-2.1-1.1-4.2-0.3-6.4c0.1-0.3,0.2-0.7,0.2-1.1c0.2-2.2,0.6-4.4,0.6-6.7
			c0-1.6-0.4-3.2-0.5-4.7c-0.1-1.5-0.1-3-0.1-4.5c0-1,0.4-1.4,1.5-1.4c4,0.1,8.1,0.1,12.1,0.2c2.3,0,3,0.7,3,3c0,6,0,12.1,0,18.1
			c0,2.3-0.9,3.2-3.3,3.4C76.7,165.7,74.5,165.6,72,165.6z M75.5,150.7C75.5,150.7,75.5,150.7,75.5,150.7c0-0.8-0.2-1.7,0-2.4
			c0.5-1.8-0.8-1.6-1.8-1.6c-1.1-0.1-1.6,0.2-1.5,1.6c0.1,3.4-0.2,6.8-0.2,10.2c0,0.5,0.6,1.4,1,1.5c0.9,0.1,1.9-0.2,2.7-0.6
			c0.2-0.1-0.1-1.2-0.2-1.8c0-0.2,0-0.4,0-0.6C75.5,154.8,75.5,152.8,75.5,150.7z"/>
	</g>
</g>
</svg>
