<svg id="Layer_1" data-name="Layer 1" xmlns="http://www.w3.org/2000/svg" viewBox="0 0 202 202"><defs><style>.cls-1{fill:#ef7841;}.cls-2{fill:#b55130;}.cls-3{fill:#f0e6cb;}</style></defs><rect class="cls-1" width="202" height="202" rx="24.5"/><path class="cls-2" d="M350.88,410.77c-7.38-3.84-37.59-21-38.87-21.09-.28.11-5.92,2.94-8.67,7.47-4.25,7-7.65,17.35-20.55,22.27-4.56,1.74-25.94-11.47-30-9.61-2.64,1.22-7.65.26-9.22,2.24-4.22,5.32-6.86,11.32-10.29,15.16-9.76,10.91-13.93,17.12-15.78,17.72-2.83,1.48-2,3.13-.37,6.39,14.76,29,91.9,67.08,94.63,70.18h62.7A24.5,24.5,0,0,0,399,497V474.36C398.46,472.86,351.34,416.22,350.88,410.77Z" transform="translate(-197 -319.5)"/><path class="cls-3" d="M245.29,407.79c7.64,3.73,12.2.39,15.69-5.7a26.84,26.84,0,0,1,2.83-3.51c1.48,1.35,1.48,1.35-4.11,11.59,3.53.52,7,1.43,10.38,1.42,4.7,0,7.82,2.15,10.38,5.71a5.51,5.51,0,0,0,2.81,2.12q-9.11-12.12-18.2-24.25c6.69,1.56,14.34-1.1,19.91,5.56l-1-3.64,28.48-7.41-18.84,25.14c3.14,0,3.59,1.58,3.54,4-.18,8.55-.07,17.11-.07,26.2-8.16,0-15.93,0-23.7-.06a3.29,3.29,0,0,1-2.06-1.38q-12.9-17-25.71-34.13A8,8,0,0,1,245.29,407.79Z" transform="translate(-197 -319.5)"/><path class="cls-3" d="M325.71,443.63c0-8.9-.14-17.8.06-26.69a11.4,11.4,0,0,0-2.91-8.2c-3.44-4-6.68-8.21-9.87-12.44-.65-.85-.7-2.16-1-3.26l1.33-.58c4.82,6.05,9.83,12,14.39,18.22,2.11,2.9,4.17,3.56,7.52,2.66,5.32-1.41,10.76-2.36,17-3.68l-25.63,34.11Z" transform="translate(-197 -319.5)"/><path class="cls-3" d="M217.65,451.32a728,728,0,0,1,160.7,0Z" transform="translate(-197 -319.5)"/><path class="cls-3" d="M224.63,444.93H218l26.07-32.88,2.37,2.79c-5.63,7.09-11.28,14-16.67,21.09C227.93,438.39,226.68,441.31,224.63,444.93Z" transform="translate(-197 -319.5)"/><path class="cls-3" d="M377.77,444.93h-7.49l.77-.67c-1.95-3.17-3.66-6.51-5.89-9.46-4.84-6.42-10-12.65-15.1-19.14l2.2-2.83Z" transform="translate(-197 -319.5)"/><rect class="cls-3" x="45.89" y="108.99" width="4.31" height="4.31" rx="1.25"/><rect class="cls-3" x="51.43" y="108.99" width="4.31" height="4.31" rx="1.25"/><rect class="cls-3" x="45.89" y="115.98" width="4.31" height="4.31" rx="1.25"/><rect class="cls-3" x="51.43" y="115.98" width="4.31" height="4.31" rx="1.25"/><rect class="cls-3" x="109.59" y="98.03" width="4.31" height="4.31" rx="1.25"/><rect class="cls-3" x="115.13" y="98.03" width="4.31" height="4.31" rx="1.25"/><rect class="cls-3" x="109.59" y="105.01" width="4.31" height="4.31" rx="1.25"/><rect class="cls-3" x="115.13" y="105.01" width="4.31" height="4.31" rx="1.25"/><rect class="cls-3" x="147.04" y="109.38" width="4.31" height="4.31" rx="1.25"/><rect class="cls-3" x="152.58" y="109.38" width="4.31" height="4.31" rx="1.25"/><rect class="cls-3" x="147.04" y="116.37" width="4.31" height="4.31" rx="1.25"/><rect class="cls-3" x="152.58" y="116.37" width="4.31" height="4.31" rx="1.25"/></svg>