<svg id="Layer_1" data-name="Layer 1" xmlns="http://www.w3.org/2000/svg" viewBox="0 0 202 202"><defs><style>.cls-1{fill:#ef7841;}.cls-2{fill:#b55130;}.cls-3{fill:#f0e6cb;}</style></defs><rect class="cls-1" width="202" height="202" rx="24.5"/><path class="cls-2" d="M337,403.55c-7.38-3.85-28.68-1.27-30-1.33-2.11.85-37.18-5.52-41.82-4-2.82,1.49-7.61,44.92-6,48.19,14.76,29,49.79,71.63,52.52,74.73h62.7a24.5,24.5,0,0,0,24.5-24.5V474C398.46,472.48,337.47,409,337,403.55Z" transform="translate(-197 -319.5)"/><path class="cls-3" d="M258.26,438.75l-15.54-22.33a44.14,44.14,0,0,1-6.58-9c-1.94-3.27-4.17-6.31-6.27-9.45s-4.36-6.19-6.46-9.34a8.14,8.14,0,0,1,2.17-11c4.49-3.16,9-6.28,13.51-9.41Q246.55,363,254,357.84a8.18,8.18,0,0,1,10.48.82,9.15,9.15,0,0,1,1.09,1.3c2.09,3,4.16,6,6.26,9,.16.22.49.32.66.54.69,1,1.36,1.91,2,2.89.15.23.14.57.28.81a7.67,7.67,0,0,0,.87,1.24,4.54,4.54,0,0,0,.71.59,2.92,2.92,0,0,1,.47.46q1.69,2.4,3.36,4.83a1.46,1.46,0,0,1,.26.66,1.47,1.47,0,0,0,.92,1.34,1.39,1.39,0,0,1,.53.46q1.71,2.42,3.37,4.84a4.46,4.46,0,0,1,.26.78,3.27,3.27,0,0,0,.3.69l14.67,21.09,15,21.54a8.24,8.24,0,0,1-2.1,11.81l-28,19.5a8.2,8.2,0,0,1-11.7-2.1Zm31.58-42.34q-12.48-18-25-35.9a7.33,7.33,0,0,0-10.47-1.89q-14,9.76-28.07,19.54a7.81,7.81,0,0,0-1.24,1.06,7.36,7.36,0,0,0-.63,9.43l49.82,71.59A7.36,7.36,0,0,0,285,462.16q14-9.69,27.87-19.4a8.39,8.39,0,0,0,1.26-1,7.31,7.31,0,0,0,.68-9.41Q302.34,414.35,289.84,396.41Z" transform="translate(-197 -319.5)"/><path class="cls-3" d="M247.39,380.36l3,4.23a6,6,0,0,1-1.5,8.48q-3.6,2.54-7.23,5a6,6,0,0,1-8.49-1.51q-3-4.24-5.93-8.52a6,6,0,0,1,1.53-8.52q3.6-2.52,7.23-5a6,6,0,0,1,8.45,1.55C245.4,377.49,246.39,378.93,247.39,380.36Zm-.4.26q-1.49-2.14-3-4.28a5.53,5.53,0,0,0-7.82-1.4l-7.18,5a5.53,5.53,0,0,0-1.45,7.82q3,4.31,6,8.57a5.54,5.54,0,0,0,7.84,1.36q3.6-2.48,7.17-5a5.56,5.56,0,0,0,1.4-7.83C249,383.44,248,382,247,380.62Z" transform="translate(-197 -319.5)"/><path class="cls-3" d="M248.81,388.76a1.95,1.95,0,1,1-3.24,2.17,1.95,1.95,0,1,1,3.24-2.17Z" transform="translate(-197 -319.5)"/><path class="cls-3" d="M237.18,375.48a2.16,2.16,0,1,1,2.47,3.55,2.16,2.16,0,0,1-2.47-3.55Zm2.63.77a1.68,1.68,0,0,0-2.35-.4,1.7,1.7,0,0,0-.42,2.4,1.72,1.72,0,0,0,2.37.4A1.69,1.69,0,0,0,239.81,376.25Z" transform="translate(-197 -319.5)"/><path class="cls-3" d="M247.12,382.1a14.32,14.32,0,0,0-1.08-1.66,4.47,4.47,0,0,0-3.26-1.48.49.49,0,0,1,.22-.1A4.48,4.48,0,0,1,247.12,382.1Z" transform="translate(-197 -319.5)"/><path class="cls-3" d="M238,389.09a13.69,13.69,0,0,0-1.82.55A4.46,4.46,0,0,0,233.9,392a1.23,1.23,0,0,1,.07-.44A4.42,4.42,0,0,1,238,389.09Z" transform="translate(-197 -319.5)"/><path class="cls-3" d="M233.49,393.78a11.87,11.87,0,0,0,.55,1.81,4.31,4.31,0,0,0,2.16,2.17c-.11,0-.25,0-.33,0A4.38,4.38,0,0,1,233.49,393.78Z" transform="translate(-197 -319.5)"/><path class="cls-3" d="M232.08,389a5,5,0,0,0,3.68-2.63,4.36,4.36,0,0,1-3.53,2.72S232.13,389,232.08,389Z" transform="translate(-197 -319.5)"/><path class="cls-3" d="M236.09,383.7a6.92,6.92,0,0,0-.81-1.66,15.8,15.8,0,0,0-1.84-1.62c.09,0,.21,0,.28,0A4.27,4.27,0,0,1,236.09,383.7Z" transform="translate(-197 -319.5)"/><path class="cls-3" d="M231.62,379.93c-.42.09-.85.17-1.27.28a4.49,4.49,0,0,0-2.52,1.84,3.72,3.72,0,0,1,.44-.73A4.21,4.21,0,0,1,231.62,379.93Z" transform="translate(-197 -319.5)"/><path class="cls-3" d="M238.18,383.71c0,.09.12.17.13.26a4.51,4.51,0,0,0,2.2,3.39,2.61,2.61,0,0,1-1.56-1.29A3.84,3.84,0,0,1,238.18,383.71Z" transform="translate(-197 -319.5)"/><path class="cls-3" d="M241.92,379a6.72,6.72,0,0,0-1.3.6c-.61.48-1.15,1.05-1.71,1.58a8.26,8.26,0,0,1,.78-1.12A3.55,3.55,0,0,1,241.92,379Z" transform="translate(-197 -319.5)"/><path class="cls-3" d="M227,384.67a10.91,10.91,0,0,0,.74,2.08,9.39,9.39,0,0,0,1.42,1.55,3,3,0,0,1-.64-.35A4.21,4.21,0,0,1,227,384.67Z" transform="translate(-197 -319.5)"/><path class="cls-3" d="M243.74,387.91a5.46,5.46,0,0,0,2.44-1.56c.28-.36.52-.75.78-1.13A4.11,4.11,0,0,1,243.74,387.91Z" transform="translate(-197 -319.5)"/><path class="cls-3" d="M249.19,385.79c-.1.31-.11.56-.24.65s-.46,0-.5-.08a.67.67,0,0,1,.08-.55C248.6,385.72,248.87,385.79,249.19,385.79Z" transform="translate(-197 -319.5)"/><path class="cls-3" d="M242.62,393.07a8.83,8.83,0,0,0-.67-1.57,17.29,17.29,0,0,0-1.44-1.66A4,4,0,0,1,242.62,393.07Z" transform="translate(-197 -319.5)"/><path class="cls-3" d="M238.75,398.19a6.13,6.13,0,0,0,3-1.77A3.76,3.76,0,0,1,238.75,398.19Z" transform="translate(-197 -319.5)"/><path class="cls-3" d="M234.56,382.52a3.55,3.55,0,0,1-1,5,3.59,3.59,0,0,1-5-1,3.64,3.64,0,0,1,.93-5A3.61,3.61,0,0,1,234.56,382.52Z" transform="translate(-197 -319.5)"/><path class="cls-3" d="M239.82,385.52a3.65,3.65,0,0,1,.83-5.06,3.62,3.62,0,0,1,5,.84,3.66,3.66,0,0,1-.84,5.11A3.59,3.59,0,0,1,239.82,385.52Z" transform="translate(-197 -319.5)"/><path class="cls-3" d="M241,391.59a3.63,3.63,0,0,1-.89,5,3.59,3.59,0,0,1-5-.88,3.65,3.65,0,0,1,.9-5.09A3.58,3.58,0,0,1,241,391.59Z" transform="translate(-197 -319.5)"/><path class="cls-3" d="M338.19,403.55c-1.8,1.69-3.6,3.2-5.17,4.91-8.23,8.94-8,21.39.65,30a34.21,34.21,0,0,0,6.18,4.71c1.41.87,1.68,1.68,1.18,3.14-3.29,9.53-8.91,17.26-17.44,22.77a13.51,13.51,0,0,1-2.09,1,12.83,12.83,0,0,1-10.77,0,45.84,45.84,0,0,0-7.27-2.72c-3.84-1-7.56-.19-11.25,1.23a58.49,58.49,0,0,1-8.93,2.58c-3.46.72-6.59-.5-9.23-2.72a32.28,32.28,0,0,1-5.24-5.21c-9.1-12.17-14.22-25.85-14.07-41.12.1-9.68,3.7-18.17,11.8-23.95s16.85-6.57,25.83-2.31a14.66,14.66,0,0,0,11.5.78c1.9-.64,3.78-1.38,5.63-2.18a21.05,21.05,0,0,1,15.24-.49C330.26,395.69,334.28,399.56,338.19,403.55Z" transform="translate(-197 -319.5)"/><path class="cls-3" d="M296.49,394c-2.18-10.53,8.81-23.76,20.09-24.32C320.83,379.49,308.11,395,296.49,394Z" transform="translate(-197 -319.5)"/></svg>