<?xml version="1.0" encoding="utf-8"?>
<!-- Generator: Adobe Illustrator 25.0.1, SVG Export Plug-In . SVG Version: 6.00 Build 0)  -->
<svg version="1.1" id="Layer_1" xmlns="http://www.w3.org/2000/svg" xmlns:xlink="http://www.w3.org/1999/xlink" x="0px" y="0px"
	 viewBox="0 0 202 202" style="enable-background:new 0 0 202 202;" xml:space="preserve">
<style type="text/css">
	.st0{fill:#EF7841;}
	.st1{fill:#B55130;}
	.st2{fill:#F0E6CB;}
</style>
<g>
	<path class="st0" d="M24.5,0h153C191,0,202,11,202,24.5v153c0,13.5-11,24.5-24.5,24.5h-153C11,202,0,191,0,177.5v-153
		C0,11,11,0,24.5,0z"/>
	<polygon class="st1" points="202,202 202,69 174.3,56.5 32.5,56.5 32.5,142.1 110.9,202 	"/>
	<g>
		<path class="st2" d="M27,130.2c-1.6,0-3.1,0.1-4.6,0c-1.7-0.1-2.3-0.7-2.4-2.4c-0.1-1.5,0-3,0-4.5c-0.1-1.4,0.7-2.1,2-2.4
			c1.1-0.2,2.2-0.3,3.2-0.3c1,0,1.5-0.3,1.5-1.4c0-12.8,0.1-25.5,0.2-38.3c0-1.1-0.4-1.5-1.4-1.5c-1.1,0-2.2,0-3.3-0.1
			c-1.6-0.2-2.6-1.3-2.5-3c0.2-1.8,0.4-3.7,0.7-5.5c0-0.3,0.7-0.6,1.1-0.6c1.6-0.1,3.2,0,5,0c0.1-0.5,0.2-1.1,0.2-1.7
			c0-3.6,0-7.2,0-10.7c0-3,1.5-4.8,4.5-5c3-0.2,6-0.1,9-0.1c11,0,22,0.1,33,0.2c1.5,0,3,0.3,4.4,0.7c0.7-0.2,1.4-0.4,2.2-0.4
			c3.2-0.1,6.3-0.2,9.5,0c3.6,0.2,7.2-0.4,10.9-0.2c3.7,0.2,7.4,0.2,11,0.2c14.9-0.1,29.9-0.3,44.8-0.2c5,0,10,0.5,15,0.8
			c1.8,0.1,3.1,1.1,3.3,2.9c0.4,3,0.6,6,0.9,9c0.1,1.2,0.2,2.5,0.3,3.7c0.1,1,0.5,1.5,1.6,1.2c0.9-0.2,2-0.2,2.9-0.1
			c2.2,0.1,2.6,0.5,2.7,2.7c0.1,1.1,0.2,2.3,0.2,3.4c0.1,1.7-0.8,2.8-2.5,3c-1.6,0.1-3.2,0-5,0c0,0.7-0.1,1.2-0.1,1.8
			c0,12.6,0.1,25.2,0.1,37.8c0,1.3,0.3,1.8,1.6,1.7c1.2,0,2.4,0.1,3.6,0.2c1.3,0.1,2.1,1,2.1,2.1c0,1.9-0.5,3.7-0.7,5.6
			c0,0.3,0.1,0.7,0.2,1.3c-1.7,0-3.3,0.1-4.9,0c-1-0.1-1.3,0.1-1.4,1.1c-0.1,2.7-0.1,5.4-0.2,8.1c0,1.3,0,2.7-0.2,4
			c-0.3,2.2-1.3,3.4-3.5,3.7c-2.4,0.3-4.9,0.8-7.3,0.6c-5.2-0.6-10.3,0-15.5-0.1c-5.2-0.2-10.5-0.1-15.7-0.1c-1.5,0-2.9,0-4.4-0.1
			c-0.6,0-1.2-0.3-1.7-0.5c-1.3,0.2-2.6,0.5-4,0.5c-5.3,0.1-10.7,0.2-16,0.2c-5.9,0-11.7-0.1-17.6-0.2c-1.6,0-3.3,0.4-4.3-1.4
			c0.1,0.3,0.2,0.7,0.3,1c-1,0.1-1.9,0.4-2.8,0.4c-8.4,0.1-16.8,0.3-25.2,0.3c-8.2,0-16.4-0.3-24.6-0.5c-5.6-0.2-6.4-1-6.5-6.6
			C26.9,136.9,27,133.7,27,130.2z M95.6,138.4c0.3-0.1,1-0.4,1.7-0.5c1.3-0.1,2.7-0.1,4-0.1c20.9,0,41.8,0,62.7,0
			c2.2,0,2.3,0,2.3-2.2c0-3.8-0.1-7.7-0.1-11.5c-0.2-19.7-0.4-39.5-0.6-59.2c0-0.8,0-1.5,0-2.6c-43.3,0-86.3,0-129.6,0
			c0.1,6,0.2,12.2,0.2,18.3c0,16.1,0,32.2-0.1,48.4c0,1-0.4,1.9-0.6,2.7c0.2,0.7,0.5,1.4,0.6,2.1c0.1,0.8,0.1,1.7,0.1,2.5
			c0,1,0.5,1.5,1.5,1.5c5.1,0.1,10.2,0.3,15.3,0.3c4,0,8.1-0.2,12.1-0.2c8.9,0,17.7,0,26.6,0C92.9,137.8,94.1,138.1,95.6,138.4z"/>
		<path class="st2" d="M125.8,97.7c0.3,0.4,0.4,0.8,0.7,1c1.7,1.4,2,3.2,2,5.3c-0.1,6.3,0,12.5-0.2,18.8c-0.1,4.3-1.4,5.6-5.6,5.8
			c-5,0.2-10.1,0.1-15.1,0.2c-1.4,0-1.1-1-1.1-1.7c-0.1-6.4-0.2-12.8-0.2-19.2c0-2.5-0.2-4.8-1.1-7.3c-0.8-2.2-0.6-4.8,1.2-6.8
			c0.3-0.3,0.4-0.8,0.4-1.3c-0.1-6.4-0.3-12.8-0.3-19.2c0-2.3,0.1-2.4,2.4-2.4c5.2,0,10.5,0,15.7,0.2c2.8,0.1,3.6,1,3.6,3.9
			c-0.1,6.2-0.2,12.4-0.4,18.6C127.6,95.3,127.3,96.7,125.8,97.7z M119.5,112c-0.1,0-0.1,0-0.2,0c0-2.5-0.1-5,0-7.5
			c0.1-1.7-0.9-1.9-2.2-2c-1.5-0.1-2,0.6-2,2c-0.1,5.1-0.3,10.1-0.4,15.2c0,0.4,0.5,1,0.9,1.2c0.5,0.3,1.1,0.2,1.7,0.3
			c2.1,0.1,2.3,0,2.3-2.1C119.5,116.8,119.5,114.4,119.5,112z M115,79c0,4.5,0,9.1,0,13.7c0,1.4,0.8,1.8,2.9,1.7
			c1.3,0,1.3-0.9,1.4-1.8c0.1-3.4,0.2-6.8,0.2-10.3c0-3.9,0-3.9-3.9-3.6C115.5,78.8,115.4,78.8,115,79z"/>
		<path class="st2" d="M90.2,121.2c0.2-0.6,0.6-1.3,0.7-1.9c0.3-2.9,1-5.9,0.5-8.6c-0.5-2.6,0.4-5,0-7.5c-0.4-2.5-0.1-5.1-0.2-7.6
			c0-2.6-0.1-5.2-0.1-7.8c0-2.5-0.1-5.1,0-7.6c0-2,0.1-4,0.2-6.1c0.1-2.1,0.7-2.7,2.8-2.6c1.5,0.1,3.2-0.7,4.5,0.8
			c0.1,0.1,0.6-0.2,1.1-0.3c0.1,0.6,0.3,1.2,0.3,1.7c0,15.9,0,31.7-0.1,47.6c0,1.1-0.1,2.3-0.3,3.4c-0.3,2.5-1.2,3.6-3.7,3.7
			c-5.5,0.2-11.1,0.3-16.6,0.4c-0.4,0-0.9-0.2-1.3-0.4c-1.7-1-2.2-2.6-2.2-4.5c0-10.7,0.1-21.4,0.2-32c0-2.5,0.2-5,0.3-7.5
			c0-0.8-0.3-1.7-0.2-2.5c0-0.7,0.4-1.3,0.6-2c-0.9-2.6-0.8-5.3-0.4-8.1c0-0.3,0.9-0.6,1.4-0.7c1.2-0.1,2.4,0,3.5-0.1
			c1.8-0.2,3.6,1.2,3.6,3c0,14,0,28.1,0,42.1c0,0.9-0.1,1.9-0.1,2.8c-0.1,1.5,0.5,1.9,2,1.7c1.1-0.1,2.2,0,3.3,0.1
			C89.9,120.9,90.1,121,90.2,121.2z"/>
		<path class="st2" d="M143.1,78.7c0,14.2,0,27.9,0,42c1.5,0.1,3.1,0.3,4.8,0.2c0.4,0,1-1.2,1-1.8c0-2.4-0.3-4.7-0.4-7.1
			c-0.1-2.7,0-5.4-0.1-8.1c0-0.6-0.4-1.4-0.9-1.7c-0.9-0.5-1.2-1.1-1.1-2.1c0.1-1.4,0-2.9,0.1-4.3c0-0.9,0.5-1.5,1.4-1.5
			c2.6,0,5.3-0.1,7.9,0c0.4,0,1.1,0.8,1.1,1.3c0.2,1.7,0.3,3.5,0.3,5.3c0,7.5,0,14.9,0,22.4c0,1.2-0.4,2.5-0.9,3.5
			c-0.6,1.3-1.9,2.1-3.4,2.1c-4.8,0-9.5,0-14.3-0.1c-2.5-0.1-4.3-2.1-4.3-4.6c0.1-8.6,0.2-17.2,0.2-25.8c0-4.6-0.3-9.2-0.4-13.8
			c0-2.8,0.1-5.7,0.2-8.5c0-2.1,1.2-3.5,2.7-4.7c0.3-0.3,0.9-0.3,1.3-0.3c4.2,0,8.5-0.1,12.7-0.1c1.9,0,3.9,0.2,5.3,1.8
			c0.3,0.4,0.6,1,0.6,1.5c-0.1,3.1-0.2,6.2-0.3,9.3c0,1.1-0.5,1.6-1.6,1.6c-1.5,0-3,0.1-4.5,0.1c-0.6,0-1.3,0-1.1-1.3
			c0.3-1.3-0.1-2.9-0.4-4.3c-0.1-0.3-0.7-0.8-1.1-0.8C146.3,78.6,144.8,78.7,143.1,78.7z"/>
		<path class="st2" d="M69.5,88.3c0,4.4,0,8.8,0,13.2c0,2.1-0.7,3.2-2.8,3.6c-1.9,0.4-3.9,0.4-5.9,0.5c-1.3,0.1-2.7,0-4,0.1
			c-0.8,0-1.2,0.3-1.2,1.3c0.1,6.3,0.2,12.5,0.2,18.8c0,2.8-0.7,3.3-3.5,3.3c-0.9,0-1.8,0-2.6,0c-2.1,0-2.9-0.8-3-2.9
			c-0.1-4-0.1-8.1-0.1-12.1c0-2.6,0.3-5.1,0.4-7.7c0-0.4-0.2-1-0.5-1.2c-1-0.5-1.1-1.4-1-2.4c0.1-2.3-0.1-4.5,0.8-6.8
			c0.7-1.7,0.3-3.9,0.4-5.8c0.1-1.5,0.4-2.9,0.6-4.4c0-0.3-0.1-0.6-0.2-0.9c-0.1-0.3-0.4-0.6-0.4-0.9c0-3.7,0-7.5-0.1-11.2
			c0-1.2,0.5-1.7,1.7-1.7c6,0.1,11.9,0.1,17.9,0.3c2.6,0.1,3.2,0.8,3.2,3.5C69.5,79.4,69.5,83.8,69.5,88.3
			C69.5,88.3,69.5,88.3,69.5,88.3z M55.8,87.2C55.8,87.2,55.8,87.2,55.8,87.2c0,2.5,0.2,5.1-0.1,7.6c-0.2,1.7-0.3,2,1.5,2.3
			c0.8,0.1,1.5,0.2,2.3,0.2c1.3,0,2.5-1.8,1.7-2.6c-1-1.1-0.7-2.3-0.8-3.4c-0.1-3.1,0-6.2-0.1-9.3c0-3-0.1-3-3-2.8
			c-0.1,0-0.2,0-0.3,0c-1,0-1.4,0.4-1.3,1.4C55.8,82.7,55.8,84.9,55.8,87.2z"/>
	</g>
</g>
</svg>
