<?xml version="1.0" encoding="utf-8"?>
<!-- Generator: Adobe Illustrator 25.0.1, SVG Export Plug-In . SVG Version: 6.00 Build 0)  -->
<svg version="1.1" id="Layer_1" xmlns="http://www.w3.org/2000/svg" xmlns:xlink="http://www.w3.org/1999/xlink" x="0px" y="0px"
	 viewBox="0 0 202 202" style="enable-background:new 0 0 202 202;" xml:space="preserve">
<style type="text/css">
	.st0{fill:#EF7841;}
	.st1{fill:#B55130;}
	.st2{fill:#FCFCFE;}
</style>
<path class="st0" d="M24.5,0h153C191,0,202,11,202,24.5v153c0,13.5-11,24.5-24.5,24.5h-153C11,202,0,191,0,177.5v-153
	C0,11,11,0,24.5,0z"/>
<path class="st1" d="M143.7,52.3c-1.9-1-19.7-5.8-29.4,5.5c-7.8,9.2-5.1,35.1-13.3,48.8c-8.1,13.6-35.2,33.2-43.7,43.2
	c-3.9,4.6-2,8-2.9,10.6c-2,5.7-2.3,7.1-1.9,7.8c50.5,17,125,33.7,125,33.7c13.5,0,24.5-11,24.5-24.5v-22.6
	C201.5,153.4,144.2,57.8,143.7,52.3z"/>
<g>
	<path class="st2" d="M98.1,64.1c0-12.6,0-25.2,0-37.8c0-1,0.3-1.1,1.2-1.1c5.6,0,11.3,0,16.9,0c1.4,0,1.4,0.1,1.5,1.5
		c0.2,4.6,1.6,8.9,4.2,12.7c4.9,7.2,11.8,11.2,20.6,11.7c1,0.1,1.2,0.4,1.2,1.3c0,5.5,0,10.9,0,16.4c0,1-0.3,1.2-1.2,1.1
		c-7-0.2-13.6-2-19.6-5.6c-1.5-0.9-3.1-1.9-4.5-3c-0.7-0.5-0.8-0.1-0.8,0.4c0,0.4,0,0.8,0,1.2c0,12.5,0,24.9,0,37.4
		c0,3.8-0.4,7.6-1.6,11.1c-1.4,4.2-3.4,8-6.2,11.4c-3.6,4.4-8,7.8-13.2,10.1c-7.3,3.2-14.9,3.8-22.7,2c-1.9-0.4-3.7-0.9-5.4-1.7
		c-1.9-0.8-3.8-1.9-5.6-3.1c-2.5-1.7-4.7-3.6-6.8-5.8c-3.4-3.6-5.8-7.8-7.4-12.5c-1.5-4.5-2.1-9.1-1.8-13.9
		c0.5-6.5,2.5-12.5,6.3-17.8c4.2-6,9.8-10.3,16.7-12.9c5.4-2,10.9-2.5,16.6-2c0.6,0.1,0.7,0.3,0.7,0.8c0,6.1,0,12.3,0,18.4
		c0,0.6-0.1,0.7-0.8,0.6c-8.3-1.8-16.1,1.9-19.2,9.9c-2.5,6.5-0.3,13.9,5.3,18.2c5.1,3.9,12.8,4.2,18,0.7c3.7-2.4,6-5.7,7-10
		c0.3-1.4,0.4-2.7,0.4-4.1C98.1,88,98.1,76.1,98.1,64.1z"/>
	<path class="st2" d="M133.5,156.6c1.2-1.2,2.4-2.3,3.6-3.5c0.7-0.8,1.4-1.1,2.4-1c1.6,0.1,3.2,0,5.1,0c-0.7,0.7-1.1,1.2-1.6,1.7
		c-1.4,1.5-2.9,3-4.4,4.5c-0.5,0.5-0.5,0.9-0.1,1.4c1.9,2.6,3.8,5.3,5.7,8c0.3,0.4,0.9,0.9,0.7,1.4c-0.2,0.5-0.9,0.1-1.5,0.2
		c-0.7,0-1.4-0.1-2.1,0c-1.4,0.2-2.3-0.3-3.1-1.5c-0.9-1.4-1.9-2.7-2.8-4.1c-0.3-0.4-0.6-1.1-1.1-0.9c-0.6,0.3-1.2,0.8-1.2,1.6
		c0,1.3,0,2.6,0,3.8c0,0.7-0.2,1.1-1,1c-1.2-0.1-2.4,0-3.5,0c-0.6,0-0.9-0.2-0.9-0.9c0-6.5,0-13.1,0-19.6c0-0.9,0.2-1.2,1.1-1.1
		c1.1,0.1,2.2,0,3.3,0c0.8,0,1,0.3,1,1c0,2.4,0,4.8,0,7.3C133.2,156.1,133.1,156.4,133.5,156.6z"/>
	<path class="st2" d="M77.5,156.9c1.4-1.3,2.7-2.5,3.8-3.8c0.5-0.6,1.1-1,2-1c1.4,0.1,2.8,0,4.3,0c0.3,0,0.6-0.1,0.7,0.2
		c0.1,0.3-0.2,0.5-0.4,0.7c-1.7,1.7-3.3,3.4-5,5.1c-0.6,0.6-0.6,1-0.1,1.7c2.1,2.8,4.1,5.6,6.1,8.4c0.2,0.2,0.5,0.5,0.3,0.8
		c-0.2,0.3-0.6,0.2-0.8,0.2c-1.4,0-2.7,0-4.1,0c-0.5,0-0.7-0.2-0.9-0.5c-1.2-1.7-2.4-3.4-3.7-5.1c-0.3-0.4-0.5-1.2-1-1
		c-0.6,0.3-1.3,0.8-1.3,1.7c0,1.2-0.1,2.5,0,3.7c0,0.9-0.3,1.2-1.1,1.1c-1-0.1-2-0.1-3,0c-1,0.1-1.2-0.3-1.2-1.3
		c0-6.2,0-12.3,0-18.5c0-2.2-0.3-1.9,1.9-1.9c0.8,0,1.7,0,2.5,0c0.8,0,1,0.2,1,1c-0.1,2.4-0.1,4.8-0.1,7.3
		C77.4,156.1,77.4,156.4,77.5,156.9z"/>
	<path class="st2" d="M124.7,160.4c0,5.1-3.9,9.1-8.8,9.2c-5.2,0.1-9.4-4-9.4-9.2c0-4.9,4.1-9,8.9-9
		C120.8,151.3,124.7,155.2,124.7,160.4z M115.6,156.1c-2.6,0.1-4.5,2-4.4,4.6c0.1,2.5,2.1,4.3,4.6,4.3c2.5-0.1,4.4-2.1,4.3-4.7
		C120,157.9,117.9,156,115.6,156.1z"/>
	<path class="st2" d="M52.5,160.7c0-2.4-0.1-4.8,0-7.3c0-1.1-0.3-1.4-1.4-1.3c-1,0.1-2,0-3,0c-0.6,0-0.9-0.2-0.9-0.8c0-1,0-2,0-3
		c0-0.5,0.2-0.7,0.7-0.7c4.9,0,9.8,0,14.8,0c0.7,0,0.8,0.2,0.5,0.8c-0.4,1-0.7,1.9-1,2.9c-0.2,0.7-0.5,0.8-1.1,0.8
		c-0.9,0-1.7,0.1-2.6,0.1c-0.9,0-0.7,0.4-0.7,0.9c0,4.9,0,9.8,0,14.6c0,1.4,0,1.4-1.4,1.4c-1,0-2.1,0-3.1,0c-0.7,0-1-0.2-1-1
		C52.5,165.7,52.5,163.2,52.5,160.7C52.5,160.7,52.5,160.7,52.5,160.7z"/>
	<path class="st2" d="M95.8,160.6c0-2.5,0-5.1,0-7.6c0-0.7-0.2-0.9-0.9-0.9c-1.1,0-2.3,0-3.4,0c-0.7,0-0.9-0.2-0.9-0.9
		c0-0.9,0.1-1.8,0-2.7c-0.1-0.8,0.2-1,1-1c4.3,0,8.5,0,12.8,0c0.7,0,1.3,0,2,0c0.4,0,0.5,0.2,0.4,0.6c-0.4,1.1-0.8,2.2-1.1,3.2
		c-0.2,0.6-0.5,0.7-1,0.7c-0.8,0-1.6,0.1-2.4,0c-0.9-0.1-1.1,0.3-1.1,1.1c0,4.9,0,9.9,0,14.8c0,0.9-0.2,1.2-1.2,1.1
		c-1.1-0.1-2.2-0.1-3.3,0c-0.7,0-1-0.2-0.9-0.9C95.8,165.7,95.8,163.1,95.8,160.6z"/>
	<path class="st2" d="M64.5,161.9c0-2.1,0-4.2,0-6.3c0-0.7,0.2-1,1-1c1.2,0,2.4,0,3.5,0c0.5,0,0.8,0.1,0.8,0.7c0,4.4,0,8.7,0,13.1
		c0,0.6-0.2,0.8-0.8,0.8c-1.2,0-2.4,0-3.6,0c-0.7,0-0.9-0.2-0.9-0.9C64.6,166.2,64.5,164.1,64.5,161.9z"/>
	<path class="st2" d="M67.1,152.6c-1.7,0-2.6-0.9-2.7-2.8c0-1.4,1.1-2.6,2.4-2.6c1.7,0,3,1.1,3,2.7
		C69.9,151.5,68.8,152.6,67.1,152.6z"/>
</g>
</svg>
