<?xml version="1.0" encoding="utf-8"?>
<!-- Generator: Adobe Illustrator 25.0.1, SVG Export Plug-In . SVG Version: 6.00 Build 0)  -->
<svg version="1.1" id="Layer_1" xmlns="http://www.w3.org/2000/svg" xmlns:xlink="http://www.w3.org/1999/xlink" x="0px" y="0px"
	 viewBox="0 0 202.6 202" style="enable-background:new 0 0 202.6 202;" xml:space="preserve">
<style type="text/css">
	.st0{fill:#EF7841;}
	.st1{fill:#B55130;}
	.st2{fill:#F0E6CB;}
</style>
<path class="st0" d="M24.5,0h153C191,0,202,11,202,24.5v153c0,13.5-11,24.5-24.5,24.5h-153C11,202,0,191,0,177.5v-153
	C0,11,11,0,24.5,0z"/>
<path class="st1" d="M181.2,137l20.8,40.5c0,13.5-11,24.5-24.5,24.5h-153C11,202,0,191,0,177.5l21.6-35.8
	C48.8,95.4,149.1,95,181.2,137z"/>
<g>
	<path class="st2" d="M17.1,45c0.3-0.2,0.7-0.3,1.2-0.5c0.5-0.2,1-0.4,1.6-0.5c0.6-0.2,1.2-0.3,1.8-0.4c0.6-0.1,1.2-0.2,1.8-0.2
		c0.9,0,1.7,0.1,2.5,0.3s1.5,0.6,2.2,1.1c0.6,0.5,1.2,1.2,1.5,2.2c0.4,0.9,0.6,2.1,0.6,3.5v4.1h2.8v3.8H21.4c-0.2,0-0.3,0.1-0.4,0.2
		c-0.1,0.2-0.1,0.3-0.1,0.5s0,0.4,0.1,0.5c0.1,0.2,0.2,0.2,0.4,0.2h5.1v3.8h-5.1c-0.7,0-1.4-0.1-1.9-0.4c-0.5-0.3-1-0.6-1.4-1
		c-0.4-0.4-0.6-0.9-0.8-1.5S17,59.7,17,59.1s0.1-1.1,0.3-1.7c0.2-0.5,0.5-1,0.8-1.5c0.4-0.4,0.8-0.8,1.4-1c0.5-0.3,1.2-0.4,1.9-0.4
		h5.1v-4.1c0-0.6-0.1-1.1-0.3-1.6s-0.4-0.7-0.7-1c-0.3-0.2-0.6-0.4-0.9-0.5c-0.4-0.1-0.7-0.1-1.1-0.1c-0.4,0-0.8,0-1.3,0.1
		c-0.5,0.1-0.9,0.2-1.3,0.3c-0.4,0.1-0.8,0.3-1.2,0.4c-0.4,0.2-0.7,0.3-0.9,0.4L17.1,45z"/>
	<path class="st2" d="M31.9,54.5h7.3v3.8h-7.3V54.5z"/>
	<path class="st2" d="M37.9,54.5h7.3v3.8h-7.3V54.5z"/>
	<path class="st2" d="M44,54.5h7.3v3.8H44V54.5z"/>
	<path class="st2" d="M50,54.5h7.3v3.8H50V54.5z"/>
	<path class="st2" d="M56.1,54.5h7.3v3.8h-7.3V54.5z"/>
	<path class="st2" d="M62.1,54.5h7.3v3.8h-7.3V54.5z"/>
	<path class="st2" d="M68.2,54.5h7.3v3.8h-7.3V54.5z"/>
	<path class="st2" d="M82.8,43.4v10c0,0.7-0.1,1.3-0.4,2c-0.3,0.6-0.6,1.1-1.1,1.6s-1,0.8-1.6,1.1c-0.6,0.3-1.3,0.4-1.9,0.4h-3.5
		v-3.8h3.5c0.3,0,0.6-0.1,0.8-0.3c0.2-0.2,0.3-0.5,0.3-0.8v-10H82.8z M78.9,61.8c0-0.3,0.1-0.5,0.2-0.8c0.1-0.2,0.2-0.4,0.4-0.6
		c0.2-0.2,0.4-0.3,0.6-0.4c0.2-0.1,0.5-0.2,0.8-0.2c0.3,0,0.5,0,0.8,0.2c0.2,0.1,0.4,0.2,0.6,0.4s0.3,0.4,0.4,0.6
		c0.1,0.2,0.2,0.5,0.2,0.8s-0.1,0.5-0.2,0.8c-0.1,0.2-0.2,0.4-0.4,0.6s-0.4,0.3-0.6,0.4c-0.2,0.1-0.5,0.2-0.8,0.2
		c-0.3,0-0.5-0.1-0.8-0.2c-0.2-0.1-0.4-0.2-0.6-0.4c-0.2-0.2-0.3-0.4-0.4-0.6C78.9,62.3,78.9,62,78.9,61.8z"/>
	<path class="st2" d="M92.5,43.4v12.9c0,0,0,0.2,0,0.4c0,0.3-0.1,0.6-0.2,1s-0.3,0.9-0.5,1.4c-0.2,0.5-0.6,1.1-1.1,1.7
		c-0.5,0.6-1.1,1.1-1.8,1.7c-0.7,0.6-1.6,1.1-2.7,1.5l-1.5-3.6c0.5-0.2,0.9-0.4,1.3-0.7c0.4-0.2,0.7-0.5,1-0.7
		c0.3-0.2,0.5-0.5,0.7-0.7c0.2-0.2,0.3-0.4,0.5-0.6c0.3-0.5,0.4-1,0.4-1.4v-13H92.5z"/>
	<path class="st2" d="M99.5,38v20.3h-3.8V38H99.5z"/>
	<path class="st2" d="M104.7,59.9h4.8c0.6,0,1.1-0.1,1.5-0.4c0.5-0.3,0.8-0.6,1-1.1h-4.4c-0.7,0-1.3-0.1-1.9-0.4
		c-0.6-0.3-1.1-0.6-1.6-1.1s-0.8-1-1.1-1.6c-0.3-0.6-0.4-1.2-0.4-1.9v-3c0-1,0.2-1.9,0.5-2.7s0.8-1.6,1.5-2.2s1.3-1.1,2.2-1.5
		s1.7-0.6,2.6-0.6c0.9,0,1.8,0.2,2.7,0.6c0.8,0.4,1.6,0.9,2.2,1.5s1.1,1.4,1.5,2.2c0.4,0.8,0.5,1.7,0.5,2.6v6.6
		c0,0.9-0.2,1.8-0.5,2.6c-0.4,0.8-0.8,1.6-1.5,2.2c-0.6,0.6-1.3,1.1-2.2,1.5c-0.8,0.4-1.7,0.5-2.6,0.5h-4.8V59.9z M112.4,54.5v-4.2
		c0-0.4-0.1-0.8-0.2-1.2c-0.2-0.4-0.4-0.7-0.6-1s-0.6-0.5-0.9-0.7c-0.4-0.2-0.7-0.2-1.2-0.2s-0.8,0.1-1.2,0.2
		c-0.4,0.2-0.7,0.4-0.9,0.7c-0.3,0.3-0.5,0.6-0.6,1c-0.2,0.4-0.2,0.8-0.2,1.2v3c0,0.3,0.1,0.6,0.3,0.8c0.2,0.2,0.5,0.3,0.8,0.3
		H112.4z"/>
	<path class="st2" d="M139.7,43.4v11.1h2.8v3.9h-3c-0.2,0.9-0.5,1.7-1,2.4c-0.5,0.7-1.1,1.2-1.8,1.7c-0.7,0.4-1.4,0.8-2.3,1
		c-0.8,0.2-1.7,0.3-2.5,0.3c-1,0-1.9-0.1-2.8-0.4c-0.9-0.3-1.7-0.7-2.5-1.3c-0.7-0.6-1.3-1.3-1.7-2.2c-0.4-0.9-0.7-1.9-0.7-3V45.9
		h3.8v10.9c0,0.5,0.1,0.9,0.3,1.3c0.2,0.4,0.5,0.7,0.9,1c0.4,0.3,0.8,0.4,1.2,0.6c0.5,0.1,0.9,0.2,1.4,0.2c0.5,0,0.9-0.1,1.4-0.2
		c0.5-0.1,0.9-0.3,1.2-0.6c0.4-0.3,0.6-0.6,0.9-1c0.2-0.4,0.3-0.8,0.3-1.3V43.4H139.7z M130.1,40c0-0.3,0.1-0.5,0.2-0.8
		c0.1-0.2,0.2-0.4,0.4-0.6s0.4-0.3,0.6-0.4s0.5-0.2,0.8-0.2c0.3,0,0.5,0.1,0.8,0.2c0.2,0.1,0.4,0.2,0.6,0.4s0.3,0.4,0.4,0.6
		c0.1,0.2,0.2,0.5,0.2,0.8c0,0.3-0.1,0.5-0.2,0.8c-0.1,0.2-0.2,0.4-0.4,0.6c-0.2,0.2-0.4,0.3-0.6,0.4c-0.2,0.1-0.5,0.2-0.8,0.2
		c-0.3,0-0.5-0.1-0.8-0.2c-0.2-0.1-0.4-0.2-0.6-0.4c-0.2-0.2-0.3-0.4-0.4-0.6C130.1,40.5,130.1,40.2,130.1,40z"/>
	<path class="st2" d="M141.2,54.5h7.3v3.8h-7.3V54.5z"/>
	<path class="st2" d="M147.3,54.5h2.9c0-0.2,0-0.4-0.1-0.6c0-0.2,0-0.4,0-0.6v-3.1c0-0.9,0.2-1.8,0.5-2.7s0.8-1.6,1.4-2.2
		c0.6-0.6,1.3-1.1,2.1-1.5c0.8-0.4,1.7-0.5,2.6-0.5c0.9,0,1.8,0.2,2.6,0.6c0.8,0.4,1.5,0.9,2.2,1.5c0.6,0.6,1.1,1.4,1.4,2.2
		c0.4,0.8,0.5,1.7,0.5,2.6v3.1c0,0.2,0,0.4,0,0.6s0,0.4-0.1,0.6h2.9v3.8h-4.9c-0.6,0.6-1.3,1.1-2.1,1.4c-0.8,0.3-1.6,0.5-2.5,0.5
		c-1.9,0-3.4-0.6-4.6-1.9h-4.9V54.5z M156.8,47.2c-0.4,0-0.8,0.1-1.1,0.2s-0.7,0.4-0.9,0.6c-0.3,0.3-0.5,0.6-0.6,1
		c-0.2,0.4-0.2,0.8-0.2,1.2v3.1c0,0.4,0.1,0.8,0.2,1.2c0.2,0.4,0.4,0.7,0.6,1c0.3,0.3,0.6,0.5,0.9,0.6c0.4,0.2,0.7,0.2,1.1,0.2
		c0.4,0,0.8-0.1,1.1-0.2c0.4-0.2,0.7-0.4,0.9-0.7c0.3-0.3,0.5-0.6,0.6-1c0.2-0.4,0.2-0.7,0.2-1.2v-3.1c0-0.4-0.1-0.8-0.2-1.2
		c-0.2-0.4-0.4-0.7-0.6-1c-0.3-0.3-0.6-0.5-0.9-0.7S157.2,47.2,156.8,47.2z"/>
	<path class="st2" d="M165.1,54.5h7.3v3.8h-7.3V54.5z"/>
	<path class="st2" d="M173.6,45c0.3-0.2,0.7-0.3,1.2-0.5c0.5-0.2,1-0.4,1.6-0.5c0.6-0.2,1.2-0.3,1.8-0.4c0.6-0.1,1.2-0.2,1.8-0.2
		c0.9,0,1.7,0.1,2.5,0.3s1.5,0.6,2.2,1.1s1.2,1.2,1.5,2.2s0.6,2.1,0.6,3.5v3c0,0.7-0.1,1.3-0.4,1.9c-0.3,0.6-0.6,1.1-1.1,1.6
		s-1,0.8-1.6,1.1c-0.6,0.3-1.3,0.4-2,0.4h-10.6v-3.8h10.6c0.3,0,0.6-0.1,0.8-0.3c0.2-0.2,0.3-0.5,0.3-0.8v-3c0-0.6-0.1-1.1-0.3-1.6
		s-0.4-0.7-0.7-1s-0.6-0.4-0.9-0.5s-0.7-0.1-1.1-0.1c-0.4,0-0.8,0-1.3,0.1c-0.5,0.1-0.9,0.2-1.3,0.3c-0.4,0.1-0.8,0.3-1.2,0.4
		c-0.4,0.2-0.7,0.3-0.9,0.4L173.6,45z M178,40c0-0.3,0.1-0.5,0.2-0.8c0.1-0.2,0.2-0.4,0.4-0.6s0.4-0.3,0.6-0.4
		c0.2-0.1,0.5-0.2,0.8-0.2s0.5,0.1,0.8,0.2c0.2,0.1,0.4,0.2,0.6,0.4s0.3,0.4,0.4,0.6c0.1,0.2,0.2,0.5,0.2,0.8c0,0.3-0.1,0.5-0.2,0.8
		c-0.1,0.2-0.2,0.4-0.4,0.6c-0.2,0.2-0.4,0.3-0.6,0.4c-0.2,0.1-0.5,0.2-0.8,0.2s-0.5-0.1-0.8-0.2c-0.2-0.1-0.4-0.2-0.6-0.4
		c-0.2-0.2-0.3-0.4-0.4-0.6C178.1,40.5,178,40.2,178,40z"/>
	<path class="st2" d="M39.7,80.4v11.1h1.1c0.3,0,0.6-0.1,0.8-0.3c0.2-0.2,0.3-0.5,0.3-0.8v-10h3.8v10c0,0.7-0.1,1.3-0.4,1.9
		s-0.6,1.1-1.1,1.6c-0.5,0.4-1,0.8-1.6,1.1c-0.6,0.3-1.3,0.4-2,0.4h-7.5c-0.2,0.9-0.5,1.7-1,2.3s-1.1,1.2-1.8,1.7s-1.4,0.8-2.3,1
		c-0.8,0.2-1.6,0.3-2.5,0.3c-1,0-1.9-0.1-2.8-0.4c-0.9-0.3-1.7-0.7-2.5-1.3c-0.7-0.6-1.3-1.3-1.7-2.1s-0.7-1.8-0.7-3v-11H22v11
		c0,0.5,0.1,0.9,0.3,1.3c0.2,0.4,0.5,0.7,0.9,0.9s0.8,0.4,1.2,0.6s0.9,0.2,1.4,0.2c0.5,0,0.9-0.1,1.4-0.2s0.9-0.3,1.2-0.6
		s0.6-0.6,0.9-0.9c0.2-0.4,0.3-0.8,0.3-1.3V80.4h3.9v11.1h2.3V80.4H39.7z M33.6,77c0-0.3,0.1-0.5,0.2-0.8c0.1-0.2,0.2-0.4,0.4-0.6
		c0.2-0.2,0.4-0.3,0.6-0.4c0.2-0.1,0.5-0.2,0.8-0.2c0.3,0,0.5,0.1,0.8,0.2c0.2,0.1,0.4,0.2,0.6,0.4s0.3,0.4,0.4,0.6
		c0.1,0.2,0.2,0.5,0.2,0.8c0,0.3-0.1,0.5-0.2,0.8c-0.1,0.2-0.2,0.4-0.4,0.6s-0.4,0.3-0.6,0.4C36,78.9,35.8,79,35.5,79
		c-0.3,0-0.5,0-0.8-0.2c-0.2-0.1-0.4-0.2-0.6-0.4c-0.2-0.2-0.3-0.4-0.4-0.6C33.6,77.5,33.6,77.3,33.6,77z M35.8,73.2
		c0-0.3,0.1-0.5,0.2-0.8s0.2-0.4,0.4-0.6s0.4-0.3,0.6-0.4c0.2-0.1,0.5-0.2,0.8-0.2c0.3,0,0.5,0.1,0.8,0.2s0.4,0.2,0.6,0.4
		s0.3,0.4,0.4,0.6c0.1,0.2,0.2,0.5,0.2,0.8s-0.1,0.5-0.2,0.8c-0.1,0.2-0.2,0.4-0.4,0.6s-0.4,0.3-0.6,0.4c-0.2,0.1-0.5,0.2-0.8,0.2
		c-0.3,0-0.5-0.1-0.8-0.2c-0.2-0.1-0.4-0.2-0.6-0.4S36.1,74.2,36,74C35.9,73.8,35.8,73.5,35.8,73.2z M38.2,77c0-0.3,0.1-0.5,0.2-0.8
		c0.1-0.2,0.2-0.4,0.4-0.6s0.4-0.3,0.6-0.4s0.5-0.2,0.8-0.2c0.3,0,0.5,0.1,0.8,0.2c0.2,0.1,0.4,0.2,0.6,0.4c0.2,0.2,0.3,0.4,0.4,0.6
		c0.1,0.2,0.2,0.5,0.2,0.8c0,0.3-0.1,0.5-0.2,0.8s-0.2,0.4-0.4,0.6c-0.2,0.2-0.4,0.3-0.6,0.4c-0.2,0.1-0.5,0.2-0.8,0.2
		c-0.3,0-0.5,0-0.8-0.2s-0.4-0.2-0.6-0.4s-0.3-0.4-0.4-0.6S38.2,77.3,38.2,77z"/>
	<path class="st2" d="M52.8,75v15.4c0,0.3,0.1,0.6,0.3,0.8s0.5,0.3,0.8,0.3h1.9v3.8H54c-0.7,0-1.3-0.1-2-0.4
		c-0.6-0.3-1.1-0.6-1.6-1.1s-0.8-1-1.1-1.6c-0.3-0.6-0.4-1.3-0.4-1.9V75H52.8z"/>
	<path class="st2" d="M68.2,77.3l-3.5,3.1c1,0,2,0.1,2.9,0.4c1,0.2,1.8,0.6,2.6,1.1c0.7,0.5,1.4,1.2,1.8,2.1s0.7,2,0.7,3.4v3
		c0,0.7-0.1,1.3-0.4,1.9c-0.3,0.6-0.6,1.1-1.1,1.6s-1,0.8-1.6,1.1c-0.6,0.3-1.3,0.4-2,0.4H54.6v-3.8h13.2c0.3,0,0.6-0.1,0.8-0.3
		c0.2-0.2,0.3-0.5,0.3-0.8v-3c0-0.6-0.1-1.1-0.4-1.5c-0.3-0.4-0.6-0.7-1-1c-0.4-0.2-0.9-0.4-1.4-0.5c-0.5-0.1-1.1-0.1-1.6-0.1
		c-0.5,0-1.1,0-1.7,0.1c-0.6,0.1-1.1,0.2-1.6,0.3c-0.5,0.1-1,0.3-1.4,0.4c-0.4,0.1-0.8,0.3-1,0.4l-1.7-3.1l8.4-7.8L68.2,77.3z"/>
	<path class="st2" d="M96.2,80.4v13.5c0,1.1-0.2,2.1-0.7,3c-0.4,0.9-1,1.6-1.7,2.2c-0.7,0.6-1.5,1-2.5,1.3c-0.9,0.3-1.9,0.4-2.8,0.4
		s-1.9-0.1-2.8-0.4c-0.9-0.3-1.7-0.7-2.5-1.3c-0.7-0.6-1.3-1.3-1.7-2.2c-0.4-0.9-0.7-1.9-0.7-3V82.9h3.9v10.9c0,0.5,0.1,0.9,0.3,1.3
		c0.2,0.4,0.5,0.7,0.9,1c0.4,0.3,0.8,0.4,1.2,0.6c0.5,0.1,0.9,0.2,1.4,0.2c0.5,0,1-0.1,1.4-0.2c0.5-0.1,0.9-0.3,1.2-0.6
		c0.4-0.3,0.6-0.6,0.9-1c0.2-0.4,0.3-0.8,0.3-1.3V80.4H96.2z M86.6,77c0-0.3,0-0.5,0.2-0.8c0.1-0.2,0.2-0.4,0.4-0.6s0.4-0.3,0.6-0.4
		s0.5-0.2,0.8-0.2c0.3,0,0.5,0.1,0.8,0.2s0.4,0.2,0.6,0.4s0.3,0.4,0.4,0.6c0.1,0.2,0.2,0.5,0.2,0.8c0,0.3-0.1,0.5-0.2,0.8
		s-0.2,0.4-0.4,0.6s-0.4,0.3-0.6,0.4S88.8,79,88.5,79c-0.3,0-0.5,0-0.8-0.2s-0.4-0.2-0.6-0.4s-0.3-0.4-0.4-0.6S86.6,77.3,86.6,77z"
		/>
	<path class="st2" d="M101.4,96.9h4.8c0.6,0,1.1-0.1,1.5-0.4c0.5-0.3,0.8-0.6,1-1.1h-4.4c-0.7,0-1.3-0.1-1.9-0.4
		c-0.6-0.3-1.1-0.6-1.6-1.1c-0.4-0.4-0.8-1-1.1-1.6c-0.3-0.6-0.4-1.2-0.4-1.9v-3c0-1,0.2-1.9,0.5-2.7c0.4-0.8,0.8-1.6,1.5-2.2
		c0.6-0.6,1.3-1.1,2.2-1.5c0.8-0.4,1.7-0.5,2.6-0.5c0.9,0,1.8,0.2,2.7,0.6c0.8,0.4,1.6,0.9,2.2,1.5c0.6,0.6,1.1,1.4,1.5,2.2
		c0.4,0.8,0.5,1.7,0.5,2.6v4.2h2.8v3.8h-2.9c-0.2,0.8-0.5,1.5-0.9,2.1s-0.9,1.2-1.5,1.7s-1.2,0.9-2,1.1s-1.5,0.4-2.3,0.4h-4.8V96.9z
		 M109.1,91.5v-4.2c0-0.4-0.1-0.8-0.2-1.2c-0.2-0.4-0.4-0.7-0.6-1s-0.6-0.5-1-0.7c-0.4-0.2-0.8-0.2-1.2-0.2s-0.8,0.1-1.2,0.2
		c-0.4,0.2-0.7,0.4-0.9,0.7c-0.3,0.3-0.5,0.6-0.6,1c-0.2,0.4-0.2,0.8-0.2,1.2v3c0,0.3,0.1,0.6,0.3,0.8c0.2,0.2,0.5,0.3,0.8,0.3
		H109.1z"/>
	<path class="st2" d="M114.5,91.5h2.8v-4.4c0-1,0.2-1.9,0.5-2.7c0.4-0.8,0.8-1.5,1.4-2.1c0.6-0.6,1.3-1.1,2.1-1.4
		c0.8-0.3,1.7-0.5,2.6-0.5c0.9,0,1.8,0.2,2.6,0.5c0.8,0.3,1.5,0.8,2.1,1.4c0.6,0.6,1.1,1.3,1.4,2.1c0.4,0.8,0.5,1.7,0.5,2.6v3.3
		c0,0.8-0.1,1.4-0.4,2.1c-0.3,0.6-0.6,1.2-1.1,1.6c-0.5,0.4-1,0.8-1.6,1s-1.3,0.4-2,0.4h-11.3V91.5z M121.1,91.5h4.6
		c0.3,0,0.6-0.1,0.8-0.3c0.2-0.2,0.3-0.5,0.3-0.9v-3.3c0-0.4-0.1-0.8-0.2-1.1c-0.2-0.3-0.4-0.6-0.6-0.9c-0.3-0.3-0.6-0.5-0.9-0.6
		s-0.7-0.2-1.1-0.2c-0.4,0-0.8,0.1-1.1,0.2c-0.4,0.2-0.7,0.4-0.9,0.6c-0.3,0.3-0.5,0.6-0.6,0.9s-0.2,0.7-0.2,1.1V91.5z M122.1,77
		c0-0.3,0.1-0.5,0.2-0.8c0.1-0.2,0.2-0.4,0.4-0.6c0.2-0.2,0.4-0.3,0.6-0.4s0.5-0.2,0.8-0.2c0.3,0,0.5,0.1,0.8,0.2
		c0.2,0.1,0.4,0.2,0.6,0.4s0.3,0.4,0.4,0.6c0.1,0.2,0.2,0.5,0.2,0.8c0,0.3-0.1,0.5-0.2,0.8s-0.2,0.4-0.4,0.6s-0.4,0.3-0.6,0.4
		c-0.2,0.1-0.5,0.2-0.8,0.2c-0.3,0-0.5,0-0.8-0.2s-0.4-0.2-0.6-0.4c-0.2-0.2-0.3-0.4-0.4-0.6C122.1,77.5,122.1,77.3,122.1,77z"/>
	<path class="st2" d="M137.8,75v20.3H134V75H137.8z"/>
	<path class="st2" d="M141.8,80.4c1.8,0,3.4,0.2,4.7,0.5c1.3,0.3,2.4,0.8,3.2,1.3s1.4,1.3,1.8,2.2c0.4,0.9,0.6,1.9,0.6,3v3
		c0,0.7-0.1,1.3-0.4,1.9c-0.3,0.6-0.6,1.1-1.1,1.6s-1,0.8-1.6,1.1c-0.6,0.3-1.3,0.4-2,0.4H141v-3.8h6.1c0.3,0,0.6-0.1,0.8-0.3
		c0.2-0.2,0.3-0.5,0.3-0.8v-3c0-0.5-0.1-1-0.4-1.4c-0.2-0.4-0.6-0.7-1.2-1c-0.5-0.3-1.2-0.5-2-0.6c-0.8-0.1-1.8-0.2-3-0.2V80.4z"/>
	<path class="st2" d="M157.3,96.9h4.8c0.6,0,1.1-0.1,1.5-0.4c0.5-0.3,0.8-0.6,1-1.1h-4.4c-0.7,0-1.3-0.1-1.9-0.4
		c-0.6-0.3-1.1-0.6-1.6-1.1s-0.8-1-1.1-1.6c-0.3-0.6-0.4-1.2-0.4-1.9v-3c0-1,0.2-1.9,0.5-2.7s0.8-1.6,1.5-2.2
		c0.6-0.6,1.3-1.1,2.2-1.5c0.8-0.4,1.7-0.5,2.6-0.5c0.9,0,1.8,0.2,2.7,0.6c0.8,0.4,1.6,0.9,2.2,1.5c0.6,0.6,1.1,1.4,1.5,2.2
		c0.4,0.8,0.5,1.7,0.5,2.6v4.2h2.8v3.8h-2.9c-0.2,0.8-0.5,1.5-0.9,2.1s-0.9,1.2-1.5,1.7s-1.2,0.9-2,1.1s-1.5,0.4-2.3,0.4h-4.8V96.9z
		 M165.1,91.5v-4.2c0-0.4-0.1-0.8-0.2-1.2c-0.2-0.4-0.4-0.7-0.6-1s-0.6-0.5-1-0.7c-0.4-0.2-0.8-0.2-1.2-0.2s-0.8,0.1-1.2,0.2
		c-0.4,0.2-0.7,0.4-0.9,0.7c-0.3,0.3-0.5,0.6-0.6,1c-0.2,0.4-0.2,0.8-0.2,1.2v3c0,0.3,0.1,0.6,0.3,0.8c0.2,0.2,0.5,0.3,0.8,0.3
		H165.1z"/>
	<path class="st2" d="M170.5,91.5h2.8v-4.4c0-1,0.2-1.9,0.5-2.7c0.4-0.8,0.8-1.5,1.4-2.1c0.6-0.6,1.3-1.1,2.1-1.4
		c0.8-0.3,1.7-0.5,2.6-0.5c0.9,0,1.8,0.2,2.6,0.5c0.8,0.3,1.5,0.8,2.1,1.4c0.6,0.6,1.1,1.3,1.4,2.1c0.4,0.8,0.5,1.7,0.5,2.6v3.3
		c0,0.8-0.1,1.4-0.4,2.1c-0.3,0.6-0.6,1.2-1.1,1.6c-0.5,0.4-1,0.8-1.6,1s-1.3,0.4-2,0.4h-11.3V91.5z M177.1,91.5h4.6
		c0.3,0,0.6-0.1,0.8-0.3c0.2-0.2,0.3-0.5,0.3-0.9v-3.3c0-0.4-0.1-0.8-0.2-1.1c-0.2-0.3-0.4-0.6-0.6-0.9c-0.3-0.3-0.6-0.5-0.9-0.6
		s-0.7-0.2-1.1-0.2c-0.4,0-0.8,0.1-1.1,0.2c-0.4,0.2-0.7,0.4-0.9,0.6c-0.3,0.3-0.5,0.6-0.6,0.9s-0.2,0.7-0.2,1.1V91.5z M178,77
		c0-0.3,0.1-0.5,0.2-0.8c0.1-0.2,0.2-0.4,0.4-0.6c0.2-0.2,0.4-0.3,0.6-0.4s0.5-0.2,0.8-0.2c0.3,0,0.5,0.1,0.8,0.2
		c0.2,0.1,0.4,0.2,0.6,0.4s0.3,0.4,0.4,0.6c0.1,0.2,0.2,0.5,0.2,0.8c0,0.3-0.1,0.5-0.2,0.8s-0.2,0.4-0.4,0.6s-0.4,0.3-0.6,0.4
		c-0.2,0.1-0.5,0.2-0.8,0.2c-0.3,0-0.5,0-0.8-0.2s-0.4-0.2-0.6-0.4c-0.2-0.2-0.3-0.4-0.4-0.6C178.1,77.5,178,77.3,178,77z"/>
</g>
<g>
	<g>
		<path class="st2" d="M49.1,134.4c-1.2,0.1-2.5,0.1-3.7,0.4c-7.1,1.5-12.2,5.3-14.4,12.4c-1.3,4-0.8,7.9,1.6,11.4
			c1.8,2.6,4.3,4.3,7.5,4.7c5.5,0.7,10.3-2.6,11.6-8c0.7-3,0.3-5.9-1.5-8.4c-1.3-1.8-3.1-2.8-5.1-3.5c-0.5-0.2-1-0.3-1.5-0.4
			c-0.3-0.1-0.4-0.2-0.4-0.5c0.1-2.4,1.1-4.4,2.9-6c0.9-0.8,2-1.4,3.2-1.7c0.2,0,0.5,0,0.7,0.1c3.7,1.9,6.5,4.6,8.5,8.2
			c1.5,2.7,2.3,5.7,2.4,8.8c0.1,5.2-1.5,9.7-4.9,13.6c-2.9,3.3-6.6,5.5-10.9,6.3c-6.1,1.2-11.7-0.2-16.5-4.2
			c-3.9-3.2-6.2-7.3-6.9-12.2c-0.9-6.2,0.9-11.7,5.2-16.4c2.8-3,6.3-4.9,10.4-5.8c4-0.8,7.9-0.4,11.7,1.2
			C49.1,134.4,49.1,134.4,49.1,134.4z"/>
		<path class="st2" d="M107.8,146.2c0-1.9,0-3.7,0-5.5c1.2,0,2.5,0,3.7,0c0,6.6,0,13.2,0,19.9c-0.3,0-0.6,0-0.8,0
			c-0.7,0-1.5,0-2.2,0c-0.3,0-0.4-0.1-0.4-0.4c0-0.2-0.1-0.4-0.1-0.6c-0.1,0.1-0.2,0.1-0.3,0.2c-1.8,1.7-4.8,1.3-6.4,0
			c-1.4-1.2-2.1-2.7-2.5-4.4c-0.4-2.2-0.2-4.3,0.9-6.3c1.3-2.3,3.6-3.5,6.3-3.2c0.3,0,0.6,0.1,0.9,0.1
			C107.2,146.1,107.5,146.1,107.8,146.2z M107.8,153c0-0.9,0-1.9,0-2.8c0-0.8,0-0.8-0.8-1.1c-2-0.5-3.6,0.2-4.4,2.1
			c-0.6,1.6-0.6,3.2,0.2,4.8c0.9,1.8,2.8,2.3,4.4,1.1c0.4-0.3,0.6-0.6,0.6-1.1C107.8,155,107.8,154,107.8,153z"/>
		<path class="st2" d="M181.2,154.3c-3.2,0-6.3,0-9.4,0c-0.1,1.5,0.9,2.9,2.5,3.2c1.8,0.4,3.5,0,5-1c0.1,0,0.1-0.1,0.2-0.2
			c0.3,1,0.7,2,1,3c-0.6,0.5-1.4,0.8-2.1,1c-1.6,0.4-3.2,0.6-4.9,0.3c-2.6-0.5-4.3-2-5-4.5c-0.7-2.5-0.6-5,0.7-7.3
			c1-1.7,2.5-2.7,4.4-3c1.8-0.3,3.4,0,4.9,1c1.4,1,2,2.4,2.3,4C181.1,152,181.1,153.1,181.2,154.3z M177.3,151.6
			c0.1-1.4-1.1-2.8-2.4-2.8c-1.6,0-2.9,1.3-2.9,2.8C173.7,151.6,175.5,151.6,177.3,151.6z"/>
		<path class="st2" d="M156.6,147.1c0.9-0.4,1.7-0.8,2.6-1.1c1.6-0.4,3.1-0.3,4.6,0.6c1.2,0.8,1.7,2,2,3.4c0.1,0.7,0.2,1.3,0.2,2
			c0,2.7,0,5.5,0,8.2c0,0.1,0,0.2,0,0.3c-1.2,0-2.4,0-3.7,0c0-0.2,0-0.4,0-0.5c0-2.5,0-5.1,0-7.6c0-0.7-0.1-1.5-0.4-2.1
			c-0.7-1.3-2.2-1.7-3.5-1c-0.1,0.1-0.2,0.1-0.3,0.2c-0.9,0.5-1.3,1.1-1.2,2.2c0.1,2.8,0,5.6,0,8.4c0,0.2,0,0.3,0,0.5
			c-1.2,0-2.4,0-3.7,0c0-0.1,0-0.3,0-0.4c0-4.5,0-8.9,0-13.4c0-0.4,0.1-0.5,0.5-0.5c0.8,0,1.7,0,2.5,0c0.3,0,0.4,0.1,0.4,0.4
			C156.5,146.8,156.5,147,156.6,147.1z"/>
		<path class="st2" d="M125.6,160.5c-1.2,0-2.3,0-3.4,0c-0.1-0.3-0.1-0.6-0.2-1c-0.9,0.8-1.8,1.2-2.9,1.3c-2.5,0.3-4.7-1.2-5.3-3.4
			c-0.5-2.1,0.5-4.2,2.6-5.1c1.4-0.6,2.9-0.9,4.4-1c0.3,0,0.7-0.1,1-0.1c0.3-1.5-0.7-2.5-2.3-2.4c-1,0-2,0.4-2.8,0.9
			c-0.2,0.1-0.4,0.3-0.7,0.4c-0.4-0.8-0.7-1.6-1.1-2.4c-0.1-0.3,0.1-0.4,0.2-0.5c0.8-0.6,1.8-1,2.8-1.2c1.4-0.4,2.8-0.4,4.2-0.1
			c1.9,0.5,3,1.8,3.4,3.7c0.1,0.6,0.1,1.1,0.1,1.7c0,2.8,0,5.7,0,8.5C125.6,160.2,125.6,160.3,125.6,160.5z M121.9,153.8
			c-0.3,0-0.6,0-0.9,0.1c-0.8,0.2-1.7,0.3-2.5,0.5c-0.8,0.2-1.3,1.1-1.2,1.9c0,0.7,0.5,1.2,1.3,1.4c1.2,0.2,2.2-0.1,3.1-0.9
			c0.1-0.1,0.1-0.2,0.1-0.3C121.9,155.7,121.9,154.8,121.9,153.8z"/>
		<path class="st2" d="M136.9,153.3c0-1.5,0.4-2.9,1.1-4.1c1.1-1.9,2.7-3,4.9-3.2c2.3-0.3,4.3,0.3,5.9,2c1,1.1,1.6,2.4,1.8,3.9
			c0.4,2.2,0,4.2-1.2,6.1c-1.3,2.1-3.3,3-5.7,3c-3.5,0-5.9-2.4-6.5-5.6C137,154.6,137,154,136.9,153.3z M140.6,153.4
			c0,0.9,0.2,1.9,0.7,2.8c1.1,1.8,3.4,2,4.7,0.4c1.2-1.5,1.4-4.6,0.3-6.2c-1.4-2.1-4.1-1.9-5.2,0.4
			C140.7,151.6,140.6,152.4,140.6,153.4z"/>
		<path class="st2" d="M83,153.6c0.1-2.5,0.7-4.4,2.3-6c1.4-1.4,3.2-1.9,5.2-1.7c2.1,0.1,3.8,1.1,5,2.9c1.1,1.7,1.5,3.6,1.3,5.6
			c-0.2,1.5-0.6,2.8-1.5,4c-1.4,1.8-3.2,2.6-5.4,2.5c-3.6,0-5.9-2.5-6.6-5.7C83.1,154.6,83,153.9,83,153.6z M86.6,153.2
			c0,1.4,0.3,2.5,0.9,3.3c1.1,1.5,3.4,1.6,4.6,0.1c1.3-1.6,1.4-4.7,0.2-6.3c-1.2-1.8-3.7-1.8-4.9,0
			C86.8,151.2,86.7,152.2,86.6,153.2z"/>
		<path class="st2" d="M129.3,146.2c0.1-0.9,0.1-1.8,0.3-2.6c0.4-1.9,1.8-3.1,3.8-3.2c1.3-0.1,2.7,0,4,0.6c-0.1,1-0.3,2-0.4,3.1
			c-0.1,0-0.3-0.1-0.4-0.1c-0.6-0.1-1.3-0.2-1.9-0.3c-0.9,0-1.5,0.7-1.6,1.5c0,0.3,0,0.7,0,1.1c1,0,2,0,3,0c0,1,0,2,0,3
			c-1,0-2,0-3,0c0,1.9,0,3.8,0,5.7c0,1.9,0,3.8,0,5.7c-1.2,0-2.5,0-3.7,0c0-1.9,0-3.8,0-5.7c0-1.9,0-3.8,0-5.7c-0.6,0-1.2,0-1.9,0
			c0-1,0-2,0-3C128.2,146.2,128.8,146.2,129.3,146.2z"/>
		<path class="st2" d="M82.7,146.2c-0.5,1.3-1,2.5-1.5,3.7c-1.4,3.5-2.8,6.9-4.2,10.4c-0.1,0.3-0.2,0.3-0.5,0.3c-0.8,0-1.6,0-2.4,0
			c-0.4,0-0.5-0.1-0.7-0.4c-1.5-3.6-3-7.1-4.5-10.6c-0.4-1.1-0.9-2.1-1.4-3.3c0.2,0,0.3,0,0.5,0c1,0,2.1,0,3.1,0
			c0.3,0,0.4,0.1,0.5,0.4c1.1,2.8,2.2,5.6,3.3,8.5c0.1,0.2,0.1,0.3,0.3,0.6c0.3-0.7,0.5-1.3,0.7-1.9c0.9-2.4,1.8-4.7,2.7-7.1
			c0.1-0.3,0.3-0.4,0.6-0.4C80.4,146.2,81.5,146.2,82.7,146.2z"/>
	</g>
</g>
</svg>
